<?xml version="1.0" standalone="no"?>
<!DOCTYPE svg PUBLIC "-//W3C//DTD SVG 1.1//EN" "http://www.w3.org/Graphics/SVG/1.1/DTD/svg11.dtd" >
<svg xmlns="http://www.w3.org/2000/svg" xmlns:xlink="http://www.w3.org/1999/xlink" version="1.1">
<metadata>
Created by FontForge 20170924 at Fri Apr  3 15:56:30 2020
 By www-data
AAlexander Lettering (c) (AminMario). 2019. All Rights Reserved
</metadata>
<defs>
<font id="AlexanderLettering" horiz-adv-x="451" >
  <font-face 
    font-family="Alexander Lettering"
    font-weight="400"
    font-stretch="normal"
    units-per-em="2048"
    panose-1="2 0 5 0 0 0 0 0 0 0"
    ascent="1638"
    descent="-410"
    x-height="434"
    cap-height="1394"
    bbox="-1384 -890 2501 1724"
    underline-thickness="150"
    underline-position="-292"
    unicode-range="U+001D-E083"
  />
<missing-glyph horiz-adv-x="1024" 
 />
    <glyph glyph-name="uniE025" unicode="ss" horiz-adv-x="691" 
d="M312 -71q23 0 43 13q58 34 73 115q4 21 4 42q0 32 -8 69l-17 -16q-112 -113 -112 -184l2 -29q5 -8 15 -10zM-11 -179q17 0 44 24q65 56 82 158v7q1 5 1 34q-52 -63 -62 -73q-78 -87 -78 -139l5 -9q5 -2 8 -2zM-12 -212q-15 0 -33 14q-11 12 -11 36q0 66 108 181
q22 22 58 67q-13 48 -50 101q-69 93 -80 156q-2 8 -2 39q6 61 45 109h1v1q38 38 78 44l20 2q15 -1 29 -5l5 -2.5t3 -0.5q0 -1 11 -7q41 -30 41 -62l1 -11q0 -15 -12 -15q-13 0 -21 20q-1 25 -30 43q-10 5 -15 5q0 1 -3 1h-3l-2 1q-43 0 -78 -36q-8 -11 -10 -11l-3 -6
q-6 -6 -6 -10q-17 -21 -19 -67l1 -21l10 -37q11 -29 30 -58l16 -23q11 -18 24 -36q29 -43 44 -84q18 24 40 51q35 42 36.5 45.5t57.5 75.5q49 64 52 66q-19 36 -19 60l-1 18q0 42 21 84q2 5 5.5 9t5.5 8.5t15 20.5q7 6 7 7q33 30 80 37q38 0 60 -15q39 -30 39 -59l1 -14
q0 -13 -12 -14q-9 0 -16 11q-4 4 -4.5 6.5t-0.5 5.5t-1 5t-1 5t-1.5 4t-7.5 10q-13 19 -27 19q-8 4 -19 4q-37 0 -71 -33q-7 -9 -8.5 -10t-4.5 -7q-23 -28 -27 -75q0 -4 -1 -7q2 -2 3 -25q0 -6 2 -11l1 -1q0 -24 64 -110q26 -37 37 -60q54 47 130 107q107 83 108 91
q7 4 11 4q14 0 14 -19q-1 -7 -6 -13l-107 -89q-78 -61 -138 -115q13 -42 13 -95q0 -70 -37 -130q-23 -34 -61 -57q-25 -15 -51 -15q-34 0 -48 29q-5 6 -5 21q0 4 -0.5 7.5t-1.5 4.5q0 59 36 113q30 48 91 109l26 24q-14 36 -47 79l-25 35l-6 9q-18 -27 -91 -125l-101 -124
q4 -19 5 -48q0 -70 -34 -134q-30 -57 -82 -93q-22 -15 -45 -15z" />
    <glyph glyph-name="uniE026" unicode="st" horiz-adv-x="617" 
d="M-12 -179q14 0 34 15q43 32 77 105q0 5 2 6q14 42 14 84l-1 12q-27 -36 -65 -78q-54 -60 -64 -91l-2 -2q-8 -27 -8 -35q0 -16 13 -16zM-13 -212q-16 0 -31 12q-14 15 -14 37q0 21 16 58q27 54 84 111q28 30 52 61l13 20q-3 17 -10 32q0 3 -1 4t-1.5 2.5t-8.5 15.5l-35 57
q-13 13 -47 74q-18 35 -23 58q0 5 -4 20l-1 22q0 32 11 61l1 1v1t1.5 3t12 22t20.5 30q47 47 96 47l4 1l17 -2v-1q6 0 11 -3q53 -19 61 -75q0 -22 -13 -22q-7 0 -15 12q-3 5 -3.5 6t-0.5 3q-3 5 -3 8.5t-4 8.5q0 1 -2 3q-9 17 -28 25q-3 0 -6 2h-4v1h-7q-1 1 -3 1
q-39 0 -75 -36q-1 0 -1 -2l-14 -17q-22 -37 -22 -78q0 -25 9 -54q0 -13 63 -108q24 -35 34 -53q2 -6 3 -6q3 -11 9 -18l3 -9q8 12 18 30l7 12q18 30 34 62q11 14 127 245q148 300 190 371q-108 -4 -217 -15q-7 0 -7 13q0 27 236 32q42 156 100 358q5 9 12 9q19 0 19 -18
l-40 -140q-7 -15 -41 -148l-1 -2l-9 -31q-4 -13 -7 -27q278 0 487 -21q6 -1 6 -6q0 -15 -10 -15q-174 15 -350 15q-70 0 -141 -2l-15 -58l-78 -321q-54 -233 -83 -403l-40 -220q-2 -9 -11 -9q-21 0 -21 18q73 410 107 546q56 246 77 328l-72 -144q-134 -283 -263 -499l-2 -3
q1 -2 1 -4.5t1 -6t1 -15.5q1 -1 1 -2.5t1 -22.5q0 -116 -81 -197l-1 -2q-2 -2 -20 -17q-7 -4 -14 -11q-24 -15 -45 -15z" />
    <glyph glyph-name="uniE027" unicode="tt" horiz-adv-x="479" 
d="M163 -168q-12 0 -18 5.5t-6 14.5l40 223q19 97 25 133q33 169 56 266q53 241 87 379q-111 -1 -223 -5l-14 -55q-100 -377 -202 -944q-1 -9 -12 -9q-19 0 -19 18q50 291 75 398q42 223 138 590q-108 -4 -216 -12q-10 0 -11 14q0 23 236 30q96 368 113 368q19 0 19 -18
q-57 -193 -99 -350q78 2 222 2q56 199 68 253q65 243 78 243q8 0 13 -5.5t5 -13.5l-5 -19q-93 -334 -102 -373l-22 -85q240 -3 479 -21q7 0 7 -8q0 -13 -13 -13q-232 15 -479 15q-118 -489 -188 -870q-24 -151 -32 -151z" />
    <glyph glyph-name="uniE028" unicode="rr" horiz-adv-x="914" 
d="M12 449q53 70 85 134q12 28 12 44q0 11 -1.5 13.5t-1.5 4t-8 2.5q-10 -3 -10 -4.5t-13 -14.5q-61 -75 -63 -179zM472 473q56 90 84 166q13 36 13 55q0 14 -3 20l-3 4q-20 0 -44 -52q-45 -85 -47 -193zM604 -138q-51 0 -55 73q0 63 70 300q57 201 58 227q0 26 -3 26
q-43 -28 -80 -59q-24 -24 -56 -39q-26 -13 -43 -13q-27 0 -41 17q-100 -202 -255 -402q-19 -29 -55 -33q-52 0 -55 63q8 66 67 230t63 212q-52 -28 -85 -50q-25 -19 -56 -31q-19 -7 -22 -7q-3 -3 -21 -3q-16 0 -30 7q-24 12 -26 36l-3 26q0 134 83 219q14 20 38 20
q14 0 29 -10q17 -17 17 -44q-1 -24 -9 -39q-42 -89 -117 -172q7 -7 20 -7q36 6 76 34q4 2 7 5q13 10 60 36q6 4 24 13q1 0 3.5 1.5t6.5 1.5v1l10 1q26 0 30 -32l1 -3q0 -46 -65 -223q-69 -185 -69 -227q0 -18 14 -25q4 -2 8 -2q8 0 19 7q6 6 8 7q5 5 7 9q164 207 264 406
q-5 19 -5 44q0 161 83 274q15 23 39 23q8 0 16 -3l6 -3q22 -22 22 -54q0 -42 -15 -73q-36 -95 -108 -197q6 -7 16 -7q34 5 82 45q32 29 91 66l12 4q34 0 34 -46q0 -61 -65 -276q-66 -228 -66 -259q0 -5 -1 -9.5t-1 -15.5q0 -21 12 -27q5 -5 9 -5q21 4 35 29q160 254 265 499
q17 -2 17 -11l-1 -3q-101 -256 -259 -511q-22 -38 -55 -41z" />
    <glyph glyph-name="uniE029" unicode="ll" horiz-adv-x="431" 
d="M286 604q28 54 58 121q102 224 182 447q52 148 57 203q-62 -33 -107 -152q-10 -25 -46 -129l-43 -138q-58 -179 -101 -352zM53 532l20 40q109 218 200 481q47 133 51 185q-59 -33 -101 -136q-22 -57 -45 -131q-32 -104 -40 -125q-39 -137 -85 -314zM87 -293q-7 0 -12 8
t-5 20q0 51 90 495q43 185 60 251q20 99 133 481q71 219 92 275q60 148 144 176l6 1q8 0 11 -4l3 -1l4 -6q4 -9 4 -17q0 -58 -61 -227q-77 -217 -185 -455q-81 -174 -116 -217v-2q-94 -371 -154 -757q-3 -19 -7.5 -20t-6.5 -1zM-120 -299q-7 0 -12.5 7t-5.5 19q0 5 21 158
q52 308 118 580q59 235 150 530q20 62 42 121q51 129 136 160l5 1q8 0 14 -5l4 -3v-1q6 -5 6 -16q0 -42 -20 -104q-40 -138 -115 -321q-70 -175 -141 -311q-39 -78 -59 -103q-7 -24 -64 -291q-41 -218 -59 -355q-8 -63 -13 -64.5t-7 -1.5z" />
    <glyph glyph-name=".notdef" horiz-adv-x="1024" 
 />
    <glyph glyph-name="uni001D" horiz-adv-x="0" 
 />
    <glyph glyph-name="uni001D" horiz-adv-x="0" 
 />
    <glyph glyph-name="glyph2" horiz-adv-x="508" 
 />
    <glyph glyph-name="space" unicode=" " horiz-adv-x="400" 
 />
    <glyph glyph-name="space" unicode="&#xa0;" horiz-adv-x="400" 
 />
    <glyph glyph-name="exclam" unicode="!" horiz-adv-x="377" 
d="M112 116q-19 0 -21 14l54 487q29 243 55 486q2 7 12 7q19 -3 21 -14l-16 -153q-3 -16 -4.5 -34.5t-4.5 -38.5q-54 -456 -85 -747q-2 -7 -11 -7zM99 -19q-16 0 -29 13q-8 10 -8 22q0 20 11.5 29t24.5 9q18 0 31 -13q8 -10 8 -22q0 -19 -12 -28.5t-26 -9.5z" />
    <glyph glyph-name="quotedbl" unicode="&#x22;" horiz-adv-x="302" 
d="M86 882q-1 0 -5.5 4t-7.5 6q-9 9 -10 10.5t-1 2.5l9 10q12 25 12 42q0 21 -9 38l-4 7l-6 7l12 12q6 6 12 10h1l9 -12q18 -27 18 -64q-1 -37 -30 -73zM156 882l-12 10q-9 9 -10 10.5t-1 2.5l7 8q14 14 14 44q0 21 -9 38l-4 7l-6 7l12 12q6 6 12 10h1l9 -12q18 -28 18 -64
q-2 -42 -31 -73z" />
    <glyph glyph-name="numbersign" unicode="#" horiz-adv-x="1002" 
d="M336 -69q-19 0 -20 9q40 135 88 267q-133 -1 -267 -9q-39 -109 -73 -219q-3 -5 -11 -5q-19 0 -20 9q32 108 69 213q-96 -6 -192 -15q-12 0 -12 22q0 6 3 8q107 12 213 18q40 113 86 222q-108 -4 -215 -13q-11 3 -11 19q0 17 240 29q83 197 105 234l21 48q4 5 13 5
q6 0 12 -3q5 -5 5 -8l-25 -56q-57 -121 -57 -126l-39 -93q95 4 189 4l80 -1l24 55q38 93 60 132l21 48q4 5 13 5q6 0 12 -3q5 -5 5 -8l-25 -56q-57 -121 -57 -126l-20 -47l269 -10q11 -1 11 -18q0 -9 -5 -12q-191 6 -289 8q-45 -109 -86 -219q185 0 240 -7l53 -1
q11 -1 11 -18q0 -9 -5 -12l-195 6h-116q-49 -135 -92 -271q-3 -5 -11 -5zM149 231q134 8 267 8q41 111 87 219q-140 0 -268 -5q-45 -109 -86 -222z" />
    <glyph glyph-name="dollar" unicode="$" horiz-adv-x="307" 
d="M97 50q-13 0 -16 7q0 122 2 207q-13 1 -32 14q-51 35 -51 90q0 11 13 11q8 0 21 -6q6 -2 6 -4t1 -3q0 -12 9 -26q13 -23 35 -29q3 106 11 211l-14 15q-78 75 -78 175q0 32 7 66q5 4 6.5 11.5t7.5 11.5l1 3q29 35 74 35q19 -1 25 -3q9 86 16 126l6 60q4 9 14 9q14 0 18 -9
l-8 -70q-7 -55 -15 -129l1 -2h1q37 -21 64 -73h1l2 -5q0 -4 -7.5 -10.5t-14 -9t-9.5 -2.5q-5 0 -9 9q-2 1 -2 2t-1 2q-12 22 -32 37l-3 -30l-17 -193q36 -39 47 -64q5 -12 6 -13.5t5 -13.5l8 -21q4 -19 4 -45q0 -13 -2 -28q-16 -79 -78 -99h-4q-4 -136 -4 -204
q0 -10 -15 -10zM118 313q2 2 5.5 3t6.5 4q6 0 17.5 24t11.5 43l2 4q-2 4 -2 11q0 20 -5 26q0 6 -17 43l-11 14q0 -9 -1 -17zM100 581q8 105 20 209q-1 0 -1.5 0.5t-3 2t-11.5 1.5q-31 0 -52 -28q-2 -4 -3 -6.5t-1.5 -4t-0.5 -4.5t-1 -7.5t-1 -24.5q0 -58 10 -71v-3
q14 -27 45 -64z" />
    <glyph glyph-name="percent" unicode="%" horiz-adv-x="472" 
d="M269 230q3 0 9 5q18 18 18 48q0 12 -1.5 14.5t-1.5 3.5v1.5t-0.5 1.5t-1 1t-0.5 0.5v1t-0.5 2t-8.5 8.5q-1 1 -2 1.5t-3 0.5t-3 1l1 13l-5 -4q-7 -6 -16.5 -27t-10.5 -46q1 -2 1 -4.5t1 -3.5q5 -18 24 -18zM62 750l12 6q17 13 17 47q0 17 -4 22q-7 13 -9 13t-4 1t-4 1v4
l2 11l-5 -4q-5 0 -17 -29q-12 -21 -12 -44l1 -2v-5q11 -21 23 -21zM269 197h-10l-2 1q-37 6 -46 51v3l-1 2q0 22 5 37q1 1 3 8q13 38 32 57q1 0 3 2t4.5 3.5t3 1.5t1.5 1h1q5 0 9 -11q1 -3 2.5 -6.5t1.5 -6.5q3 11 7 11l19 -9q2 0 6.5 -5.5t5.5 -6.5q5 -6 8 -12q0 -2 1 -2
v-2q6 -12 6 -31q0 -15 -2 -19q0 -10 -7 -24q-13 -37 -51 -43zM22 115q-9 0 -15.5 7t-6.5 11l334 827q3 5 7 5q8 0 15 -6.5t7 -11.5l-334 -828q-2 -4 -7 -4zM61 717q-30 4 -42.5 24.5t-12.5 32.5q0 23 7 44q13 39 34 60q1 0 1 1l10 6q7 0 13 -24l1 -2q1 13 8 13
q20 -11 25 -16l1 -1q2 -2 3 -2v-1l1 -1q0 -1 6 -10q2 -4 2 -5t0.5 -3t2.5 -4q3 -13 3 -34l-3 -19q-12 -54 -60 -59z" />
    <glyph glyph-name="ampersand" unicode="&#x26;" horiz-adv-x="756" 
d="M212 425q6 6 6 8q55 63 55 132q-4 24 -5.5 28t-3 6t-1.5 3l1 -1q0 5 -12 5q-33 0 -44 -47q-12 -32 -12 -83q3 -25 16 -51zM263 54q-114 0 -159 83q-16 29 -16 66q0 57 32 104q10 18 29 44q25 27 40 47q-21 32 -24 61l-2 20q0 35 10 77q8 28 9 28q7 28 40 49q12 6 28 6
q21 0 40 -18q11 -12 13 -27t3 -30q-2 -61 -52 -139l-23 -28l24 -27l64 -54q43 -32 47 -32q3 -3 9 -6q12 -7 12 -15q0 -13 -21 -16q-23 9 -75 49.5t-82 75.5l-19 -23q-69 -79 -69 -148q0 -67 66 -100q32 -14 80 -14q68 1 121 31q103 63 103 180q-1 93 -44 147q-4 6 -4 13
q3 12 16 12q11 0 17 -9q16 -13 35 -72q12 -36 13 -89q0 -103 -69 -172l-28 -24h-1v-1l-11 -7q-57 -38 -152 -42z" />
    <glyph glyph-name="quotesingle" unicode="'" horiz-adv-x="22" 
d="M-107 626q-1 0 -5.5 4t-7.5 6q-9 9 -10 10.5t-1 2.5l9 10q12 25 12 42q0 21 -9 38l-4 7l-6 7l12 12q6 6 12 10h1l9 -12q18 -27 18 -64q-1 -37 -30 -73z" />
    <glyph glyph-name="parenleft" unicode="(" horiz-adv-x="326" 
d="M122 0q-10 0 -13 4l-15 29q-24 35 -64 157q-20 81 -26 128q0 19 -2 21l-2 81q0 103 45 232l34 73q60 107 115 151q12 12 15 12t6 -3q10 -7 10 -19q0 -4 -23 -27q-42 -42 -84 -111l-11 -21q-14 -27 -16.5 -30.5t-16.5 -42.5q-3 -6 -3.5 -8t-0.5 -3.5t-1 -2.5
q-18 -49 -30 -121q-4 -22 -4 -38q-3 -6 -3 -56q0 -60 10 -116q28 -153 85 -249q0 -2 1 -3q11 -19 12 -24q0 -10 -18 -13z" />
    <glyph glyph-name="parenright" unicode=")" horiz-adv-x="403" 
d="M18 0q-7 0 -15 11q0 3 -1.5 6t-1.5 5q0 5 10 13q38 39 82 107l1 2q7 14 11 17q36 73 52 115q37 111 37 231q0 65 -16 146q-3 8 -3 12l-9 29q-8 28 -23 62q0 4 -1.5 6t-2 2.5t-1 1.5t-1 2.5t-1 2.5t-0.5 3l-59 118q0 3 6 8t15 5q6 0 10 -4q56 -107 80 -170q1 -8 7 -20
q12 -31 23 -95q9 -57 9 -116q0 -181 -88 -344q-5 -12 -20 -34q-45 -68 -74 -98q-23 -24 -26 -24z" />
    <glyph glyph-name="asterisk" unicode="*" horiz-adv-x="541" 
d="M174 218q-4 0 -10.5 2t-11 3.5t-4.5 2.5q9 54 16 107q-1 -1 -1.5 -1t-7.5 -7q-2 0 -3 -1t-72 -57q-3 0 -11 10l-8 17l108 83q-104 44 -104 84q0 9 6 15q5 0 19 -16h8l4 -5q8 -7 8 -8t1.5 -1t9.5 -7q2 -2 3.5 -2.5t14.5 -9.5q6 -2 9 -5q11 -6 26 -12l14 124q0 2 5 2l12 -1
q3 -1 6 -1t6 -1t3 -3q-4 -57 -12 -122l99 78q17 15 18 15q3 0 11.5 -10t8.5 -15q-55 -45 -111 -88q66 -25 107 -57q0 -4 -8.5 -14t-13.5 -10q-39 30 -115 57l-2 -2l-15 -102q-4 -20 -7 -41q-1 -1 -6 -1z" />
    <glyph glyph-name="plus" unicode="+" horiz-adv-x="410" 
d="M170 234q-22 0 -22 6l4 248l-152 -5l-1 33q101 5 153 5l3 202q1 1 34 1l-3 -202l56 1l81 -1q3 -1 3 -18q-1 -2 -1 -6.5t-1 -6.5t-2 -2l-80 1l-57 -1l-4 -251q-1 -3 -11 -4z" />
    <glyph glyph-name="comma" unicode="," horiz-adv-x="302" 
d="M29 0q-1 1 -6 31q26 17 26 42q-5 29 -34 46q2 7 14 25l2 3q24 -11 41 -40q10 -16 10 -36q0 -15 -6 -31q-14 -30 -38 -37z" />
    <glyph glyph-name="hyphen" unicode="-" horiz-adv-x="461" 
d="M286 395q-99 13 -177 13l-54 -1q-3 0 -3 16q0 14 3 17l54 1l13 -1q53 0 79 -3q20 -2 24.5 -2t65.5 -7q1 -1 1 -6q0 -4 -1 -8.5t-1 -7t-1 -6t-3 -5.5z" />
    <glyph glyph-name="hyphen" unicode="&#xad;" horiz-adv-x="461" 
d="M286 395q-99 13 -177 13l-54 -1q-3 0 -3 16q0 14 3 17l54 1l13 -1q53 0 79 -3q20 -2 24.5 -2t65.5 -7q1 -1 1 -6q0 -4 -1 -8.5t-1 -7t-1 -6t-3 -5.5z" />
    <glyph glyph-name="period" unicode="." horiz-adv-x="236" 
d="M26 65q-10 0 -18 7.5t-8 17.5q0 11 8 18t18 7q11 0 18.5 -7t7.5 -18q0 -10 -7.5 -17.5t-18.5 -7.5z" />
    <glyph glyph-name="slash" unicode="/" horiz-adv-x="472" 
d="M21 0q-9 0 -15 5.5t-6 11.5q125 442 284 844q49 129 73 183l26 66q4 6 11 6q8 0 13.5 -6.5t5.5 -11.5q0 -4 -19 -49q-6 -13 -12 -29q-69 -168 -69 -174l-108 -290q-99 -295 -175 -549q-1 -7 -9 -7z" />
    <glyph glyph-name="zero" unicode="0" horiz-adv-x="503" 
d="M135 162q-18 0 -23 3q-6 0 -10 3h-3q-43 17 -67 67q-15 33 -15 45q-3 13 -5.5 27t-6 31t-5.5 98q0 126 45 251q49 122 97 183l17 22q5 5 9 11l24 28q6 6 12 6q14 0 14 -16q0 -11 -6 -17l-37 -44l-28 -42q-4 -7 -16 -24q0 -3 -3 -5q0 -2 -0.5 -3t-1 -1.5t-0.5 -1.5
q-11 -12 -47 -98v-2q-11 -22 -26 -82q-20 -96 -20 -168q0 -66 7 -99q2 -10 3 -24l2 -5q0 -9 6 -26q12 -49 41 -69l5.5 -5.5t1.5 -0.5q6 0 13 -6q2 -1 3.5 -1t5 -1t10.5 -1q41 0 78 34q48 51 111 173q44 87 65 165q4 12 4 16t1 6q12 52 12 106q0 26 -3 54q-1 3 -1 6.5t-1 4.5
q0 8 -1 10t-2 9q-15 61 -39 87l-5 6l-16 16q-36 26 -69 26q-8 0 -12 -1l-10 -1q-13 0 -13 15q0 17 28 20l32 -3q21 -3 64 -30q29 -28 42 -50q2 -2 2.5 -3t0.5 -1.5t1 -1.5q10 -20 23 -59q11 -49 11 -104q0 -93 -32 -185q-36 -100 -99 -206q-38 -64 -70 -97q-42 -42 -98 -45z
" />
    <glyph glyph-name="one" unicode="1" horiz-adv-x="259" 
d="M49 168h-35l57 322q12 75 81 455q3 6 10 6q22 -2 22 -14q-63 -345 -82 -456q-13 -85 -53 -313z" />
    <glyph glyph-name="two" unicode="2" horiz-adv-x="528" 
d="M74 135q-28 0 -42 7l-20 13q-24 25 -24 52q0 41 37 98q12 11 146 206q101 147 152 249q63 131 63 158q0 8 -2.5 10t-2.5 3q-9 9 -29 9q-63 0 -228 -89q-4 -2 -8 -2q-13 0 -13 14q0 11 11.5 17.5t23.5 13.5q133 66 153 66l13 4q27 7 42 7q30 0 49 -12l2 -1l7 -6
q13 -17 14 -24t1 -22q-1 -3 -1 -6.5t-5 -16.5q-36 -88 -64 -142q-79 -150 -234 -365q-73 -103 -78 -114q-17 -30 -17 -53q1 -21 18 -34l3 -1q3 -4 6 -4t6 -2q11 -2 23 -2q20 0 47 7q287 82 296 82q12 0 12 -13q0 -12 -14 -18l-264 -74q-42 -13 -79 -15z" />
    <glyph glyph-name="three" unicode="3" horiz-adv-x="611" 
d="M141 144q-82 0 -125 35h-2v1q-14 14 -14 17q2 12 21 15q5 0 10.5 -5.5t6.5 -5.5q30 -26 102 -26q30 0 50 1q2 2 24 3l11 2q23 5 41 7q5 0 12.5 3t17.5 6q65 24 110 74q65 73 66 163q0 21 -2 25q-1 13 -15 58q-25 59 -72 96q-76 61 -172 67l-37 -17q-6 0 -10.5 6t-4.5 15
q0 6 2 6q99 46 152 85q44 34 52 49q6 6 26 37q10 23 10 38l-1 5h-1v2q-12 24 -51 24q-37 -7 -61 -24q-6 -3 -7.5 -4.5t-4.5 -2t-34 -22.5q-3 -3 -9 -6q-12 -7 -21 -16q-24 -19 -25.5 -19t-1.5 -2q-26 -21 -52 -44q-30 -29 -33 -29q-7 0 -16 12q-3 5 -3 8l1 3q86 80 129 109
q2 2 3 2.5t32 21.5q54 37 98 43q91 0 91 -69q0 -29 -33 -73l-3 -4q-4 -5 -6.5 -7.5t-4.5 -6.5q-32 -43 -128 -95q25 -6 52 -15q72 -26 128 -88q46 -51 59 -112q2 -9 3 -12t1 -6.5t1 -6.5q1 -7 1 -16t1 -11q0 -54 -22 -105q-43 -96 -134 -146q-24 -13 -49 -21q-1 -2 -18 -4
q-3 -3 -19 -5q-36 -8 -56 -8q-22 -4 -66 -5z" />
    <glyph glyph-name="four" unicode="4" horiz-adv-x="473" 
d="M53 329h-8q-2 1 -4.5 1.5t-3.5 0.5t-3.5 1t-3.5 2q-23 11 -27 38q-3 15 -3 40q22 132 68 273q2 11 10 27v2l36 89q0 1 0.5 2.5l1 3t2 3t3 7t5.5 12.5q8 13 19 39l26 55q9 19 17 39q3 5 7 5q8 0 15.5 -6t7.5 -12q-7 -16 -13 -31.5t-19 -39.5l-17 -34q0 -1 -1 -2t-1 -4
q-89 -177 -134 -429q0 -37 8 -46l5 -3h6l11 5q8 8 13 9q4 4 14 10q63 46 121 99q50 50 76 82q9 9 12 9q11 0 16 -11q3 -6 3 -9q0 -4 -37 -46q-50 -51 -64 -64q-56 -51 -141 -109q-14 -7 -21 -7zM285 50q-22 0 -23 11q13 143 22 211q13 113 35 231q20 117 33 171
q20 91 43 182q3 5 10 5q21 -3 21 -16q-26 -99 -33 -138q-9 -37 -18 -85q-13 -55 -19 -95q-26 -148 -35 -224q-2 -27 -5 -34q-11 -100 -22 -213q-1 -6 -9 -6z" />
    <glyph glyph-name="five" unicode="5" horiz-adv-x="617" 
d="M158 120q-6 2 -19.5 2t-40.5 8q-84 39 -94 90l-4 15q0 12 13 12q8 0 14 -5q6 -2 7 -8q0 -2 0.5 -4t1.5 -2v-4q11 -36 63 -61q2 0 3 -1q6 -3 8 -3t3 -1h2q0 -1 1 -1h2q8 -6 47 -6q83 0 173 64q71 52 108 136q21 47 21 108q0 63 -28 123q0 2 -1 3t-1 2.5t-28 47.5
q-4 2 -12 15q-24 25 -51 34l1 -1l-3 1q-19 0 -47 -8q-65 -19 -151 -49v-14q0 -3 -16 -3t-17 4q9 191 41 282l5 17q-4 0 -4 15q1 15 5 16q174 -3 381 -13q2 -1 3 -6q0 -24 -6 -25q-150 9 -345 13q-39 -142 -46 -253l39 14h1q1 0 2.5 1.5t63.5 19.5q27 9 31.5 9t6.5 3
q29 8 51 8q2 -1 11 -1l4 -2q7 -1 22 -8h2q2 -2 3 -2t2 -1t1.5 -2t1.5 -1q19 -10 35 -32q47 -60 57 -101q15 -42 15 -63q2 -4 2 -18q2 -13 2 -28q-2 -74 -23 -112q-39 -114 -169 -184q-15 -8 -22 -11t-15 -7q-48 -22 -113 -22z" />
    <glyph glyph-name="six" unicode="6" horiz-adv-x="525" 
d="M201 178q59 0 116 45q85 68 85 162q0 18 -4 26q0 9 -3.5 15t-5.5 18l-6 9q-3 9 -7 13q-65 97 -172 97q-30 0 -54 -7q-89 -31 -110 -91l-6 -18q0 -14 -14 -14l-2 1l-1 -26q0 -96 54 -165q56 -56 93 -59q12 -4 37 -6zM208 147l-13 1q-100 8 -169 102q-42 69 -42 154
q0 75 42 213q43 120 89 190q4 5 7 10.5t8 10.5q0 2 3 5t3 4q5 5 14 20l4 4q21 26 43 45q2 0 12 9q32 22 56 29q6 1 9.5 2t6 2t6 1t6.5 2t18 2q51 0 77 -18q13 -8 13 -17q-1 -11 -16 -11t-27 9q-9 5 -36 5q-21 0 -50 -7l-6 -3q-23 -10 -27 -14q-26 -11 -82 -86
q-57 -79 -92 -183q-27 -79 -31 -102q-1 -1 -3 -12q-1 -1 -1 -3q41 53 117 76q26 7 54 7q86 0 153 -55q60 -50 70 -100l7 -28l3 -30q0 -18 -10 -62v-3q-21 -46 -26 -51q-20 -37 -62 -69q-48 -38 -113 -47v-1z" />
    <glyph glyph-name="seven" unicode="7" horiz-adv-x="420" 
d="M48 138q-9 0 -14.5 6t-5.5 10q0 3 56 157q9 19 26 64l62 148l-112 -11q-4 0 -4 20q0 9 2 9l127 12l44 99q77 160 87 196q8 26 8 54q0 18 -8 26l-1 1h-4q-20 0 -38 -4q-80 -16 -157 -64q-39 -24 -88 -59q-8 -7 -13 -7q-2 0 -4.5 1.5t-4.5 2.5q-6 4 -6 13q0 8 5 11l44 30
q112 81 223 102q14 4 36 4q14 -1 24 -5l2 -2h1v-1q1 0 1 -0.5t1 -1t2.5 -0.5t2 -1.5t1.5 -2.5l1 -1h1q0 -1 0.5 -1.5t1.5 -2t1.5 -3t1.5 -1.5q3 -6 7 -27q0 -64 -42 -147q-34 -72 -93 -205l123 16q6 0 6 -24q0 -6 -143 -22q-63 -144 -151 -382q-3 -7 -9 -7z" />
    <glyph glyph-name="eight" unicode="8" horiz-adv-x="466" 
d="M170 539l110 98q116 99 117 177q0 39 -22 72q-19 29 -55 39q-1 1 -5 1t-5 1q-61 0 -106 -61q-25 -36 -38 -90q-2 -15 -4 -20q-6 -61 -6 -89q0 -70 14 -128zM133 148q6 1 12.5 1t16.5 6q36 13 55 51q11 19 11 35q2 3 2 24q0 50 -25 105q-32 68 -47 102q-79 -79 -90 -105
q-35 -57 -35 -110q0 -12 3 -26q1 -4 2 -5.5t1 -4t3 -7.5q0 -1 1 -3t1 -4q17 -33 51 -50q17 -9 38 -9zM136 117q-36 0 -64 16q-45 27 -67 84q-1 12 -3 16v3q-2 12 -2 21q0 65 44 132q1 2 3 3q3 6 6 9q13 22 20 28q0 2 4 6l-1 2q0 18 9 26l58 52q-19 70 -19 153q0 209 121 274
q21 15 60 15l2 1l1 -1q35 0 65 -23q56 -44 56 -118q0 -28 -1.5 -29t-3 -7.5t-5.5 -19.5l-19 -37q-31 -50 -103 -113l-117 -105q9 -27 33 -77q50 -94 50 -172q-3 -31 -9 -45l-3 -7q-28 -70 -97 -84q-1 0 -3.5 -1t-7.5 -1t-7 -1z" />
    <glyph glyph-name="nine" unicode="9" horiz-adv-x="473" 
d="M112 113q-22 0 -28 4q-6 0 -8 2q-49 20 -69 63q-7 19 -7 32q0 28 10 28t19 -9q4 -4 4 -9l-1 -7q0 -9 7 -25v-2q17 -26 28 -31q23 -11 39 -13q47 0 88 35q3 2 3.5 3.5t5.5 5.5q26 24 36 51q9 11 38 97q2 8 10 30q33 111 41 146q36 131 58 320q-10 -16 -20 -27
q-10 -19 -48 -55q-54 -52 -88 -66q-12 -6 -15 -9t-21 -11q-34 -19 -79 -19q-45 1 -68.5 32t-23.5 62q0 23 9 60q30 84 105 129q3 2 6.5 3.5t4 2l1 1t1.5 0.5t2 1t2.5 1t3.5 1q39 23 102 23q53 -1 79 -14q20 -5 20 -13q0 -9 -6 -15.5t-11 -6.5q-4 1 -7 2.5t-30 8.5
q-17 5 -49 5q-37 0 -68 -13q-18 -6 -22 -9t-7 -3q-30 -16 -61 -51q-43 -59 -43 -110q0 -28 14 -43q24 -21 52 -21q33 3 62 17q123 62 187 176l7 15q3 3 7 3q5 0 7 -1q1 1 1 5q3 8 13 8q6 0 12.5 -4t6.5 -10l-5 -51q-7 -105 -54 -314q-22 -85 -48 -168q-6 -28 -14 -42
q-25 -79 -51 -114q0 -1 -7 -11q-12 -14 -12 -16l-20 -19q-50 -39 -101 -41z" />
    <glyph glyph-name="colon" unicode=":" horiz-adv-x="402" 
d="M167 565q-18 0 -31 13t-13 29q0 18 13 30.5t31 12.5t31 -12.5t13 -30.5q0 -16 -13 -29t-31 -13zM173 231q-18 0 -31 13t-13 29q0 18 13 30.5t31 12.5t31 -12.5t13 -30.5q0 -16 -13 -29t-31 -13z" />
    <glyph glyph-name="semicolon" unicode=";" horiz-adv-x="402" 
d="M167 565q-18 0 -31 13t-13 29q0 18 13 30.5t31 12.5t31 -12.5t13 -30.5q0 -16 -13 -29t-31 -13zM155 196q-1 1 -6 31q26 17 26 42q-5 29 -34 46q2 7 14 25l2 3q24 -11 41 -40q10 -16 10 -36q0 -15 -6 -31q-14 -30 -38 -37z" />
    <glyph glyph-name="semicolon" unicode="&#x37e;" horiz-adv-x="402" 
d="M167 565q-18 0 -31 13t-13 29q0 18 13 30.5t31 12.5t31 -12.5t13 -30.5q0 -16 -13 -29t-31 -13zM155 196q-1 1 -6 31q26 17 26 42q-5 29 -34 46q2 7 14 25l2 3q24 -11 41 -40q10 -16 10 -36q0 -15 -6 -31q-14 -30 -38 -37z" />
    <glyph glyph-name="less" unicode="&#x3c;" horiz-adv-x="476" 
d="M338 252l-73 22l-22 9q-19 7 -28 10t-71 28q-11 5 -25 10q-5 5 -56 27q-51 26 -51 57q3 33 30 56l26 24q110 98 139 125l87 77l3 1q3 0 8 -4t8 -9.5t3 -8.5t-241 -219q-30 -25 -30 -43q2 -6 3 -7q0 -10 166 -80l135 -45q4 -1 4 -7q0 -7 -5 -15t-10 -8z" />
    <glyph glyph-name="equal" unicode="=" horiz-adv-x="528" 
d="M406 514l-397 1q-3 0 -3 15q0 17 4 17h397q3 0 3 -17q0 -15 -4 -16zM400 330l-397 1q-3 0 -3 15q0 17 4 17h397q3 0 3 -17q0 -15 -4 -16z" />
    <glyph glyph-name="greater" unicode="&#x3e;" horiz-adv-x="430" 
d="M46 132q-5 0 -10 4q-10 8 -10 18q0 5 167 160q94 83 97 99q0 8 -1 9q-3 12 -31 27q-9 7 -22 10q0 2 -12 5q-46 16 -88 25q-136 32 -136 50q0 11 9 18q5 6 8 6q47 -21 105 -37q51 -9 112 -31q56 -17 78 -46q10 -12 10 -27l1 -2v-10q-1 -22 -36 -54z" />
    <glyph glyph-name="question" unicode="?" horiz-adv-x="430" 
d="M67 92q-12 0 -19 14q-27 54 -27 136q0 45 12 99l2 5q2 11 6 21q0 5 4 14q7 24 10 27q22 64 79 154q78 125 89 144q87 136 92 284q-1 6 -1 22q-1 27 -20 52q-17 13 -52 13q-67 0 -123 -49v-1l-13 -12q0 -1 -6 -7q-40 -46 -40 -118q1 -22 11 -63q0 -10 -17 -13
q-13 0 -17 13l-3 12q-6 12 -6 60q0 80 55 139l19 18q44 39 109 51q17 3 33 3q48 -3 72 -21l2 -2v-1q9 -9 14 -19q1 0 3 -6q12 -24 12 -87q0 -24 -5 -53q0 -21 -19 -78q-29 -90 -124 -239q-80 -122 -109 -196q-2 -2 -11 -29q-25 -72 -25 -135q0 -45 8 -76q2 -7 3 -13t6 -17
q1 -2 2 -6t2 -5q5 -9 9 -22q0 -5 -5.5 -9t-11.5 -4zM101 12q-10 0 -18 7.5t-8 17.5q0 11 8 18t18 7q11 0 18.5 -7t7.5 -18q0 -10 -7.5 -17.5t-18.5 -7.5z" />
    <glyph glyph-name="at" unicode="@" horiz-adv-x="770" 
d="M261 277l8 2l-1 -1q3 0 4 1t3 1t10 10q33 32 86 126q43 73 58 95q-11 2 -22 2q-37 0 -72 -19q-2 -1 -4 -1.5t-4 -1.5t-3 -3q-9 -4 -33 -30q-13 -13 -19 -25q-30 -36 -41 -95q0 -6 -2 -7l-1 -13l2 -14q6 -27 31 -27zM328 172q48 0 87 17q-3 27 -3 54q0 131 25 231l-44 -75
q-88 -149 -126 -149q-37 0 -57 28q0 3 -2 5q-7 17 -7 38q3 45 27 88l7 17l18 29q5 5 9 11q64 74 143 74q27 0 62 -10q12 -4 12 -9q-37 -124 -39 -222l-2 -60q0 -19 2 -38q11 6 14 9q8 0 45 39q11 11 17 22q43 64 43 140q0 89 -53 153q-3 3 -4 5t-4.5 5t-6.5 7l-8 8
q-77 65 -175 65q-21 0 -45 -5l-15 -2q-4 0 -8 3q-3 -4 -9 -9q-72 -43 -100 -113l-5 -12q-6 -6 -17 -57q-6 -27 -6 -62q0 -34 9 -61q2 -10 3 -11.5t1 -4t2 -4.5t4 -7l1 -3q35 -86 132 -122q3 -1 5.5 -1t4 -1.5t23.5 -6.5q5 -1 9.5 -1t14 -1t16.5 -1zM326 139q-46 0 -65 9
q-21 6 -41 14q-6 4 -12.5 7t-12.5 7q-70 45 -105 122l-1 2q0 9 -2.5 10.5t-2.5 3.5q-14 38 -14 93q0 56 23 116q27 68 71 110q38 33 45 33q15 8 21 9q6 0 9 -3q7 11 29 11q1 1 4 1t13 1.5t35 1.5q102 0 183 -73h1v-1q6 -3 22 -22q3 -4 7.5 -7.5t6 -7.5t2.5 -4.5t2 -1.5t2 -4
t8 -13q37 -69 37 -143q0 -70 -32 -130q-21 -54 -105 -109q-63 -32 -128 -32z" />
    <glyph glyph-name="A" unicode="A" horiz-adv-x="1241" 
d="M112 -271q47 0 95 46q74 71 147 217q77 152 208 472q39 95 75 178h-4q-19 -2 -54 -2q-226 -19 -324 -69q-61 -21 -129 -70q-139 -99 -195 -259q-28 -80 -28 -172q0 -91 33 -178q43 -109 136 -153q8 -8 40 -10zM1052 595q170 743 170 759q-2 13 -4 16.5t-2 4.5t-3 3
q-11 11 -27 12q-34 0 -85 -38q-1 -1 -2 -1.5t-3 -2t-5 -4.5t-7 -6q-135 -123 -264 -375q-60 -119 -135 -291q19 -2 104 -7l32 -5q0 -2 26 -5q14 -1 31 -6q57 -11 72 -19q36 -8 102 -35zM845 -394q-10 0 -10 29q0 25 112 507l97 421q-16 6 -23 9.5t-61 21.5q-14 5 -29 8
q-22 5 -24 7q-7 0 -18 4q-7 0 -31 7q-34 7 -95 14q-2 2 -71 6l-21 1l-93 -223q-127 -309 -204 -459q-138 -262 -257 -262q-90 4 -154 86q-93 117 -93 289q0 65 18 143q71 257 332 377q17 9 20 9t5 1v1h1q49 18 119 38q16 3 31 7q108 24 255 26q87 200 150 322
q155 300 306 401q44 26 78 26q41 0 59 -34h1v-1q10 -17 10 -37q-1 -20 -10 -67l-162 -702q85 -35 85 -53q0 -6 -12 -6q-22 0 -62 19l-19 8l-207 -896q-12 -48 -23 -48z" />
    <glyph glyph-name="B" unicode="B" horiz-adv-x="1342" 
d="M130 -408q-16 0 -17 20l18 88q-33 9 -72 23q-2 2 -5 3q-34 14 -73 39q-15 10 -15 11q-16 10 -58 49q-23 25 -23 34q0 11 12 11q14 0 26 -13l17.5 -17.5t0.5 -1t1 -1.5q71 -71 195 -106l135 666q12 65 159 738q-82 -79 -210 -225q-55 -62 -71 -94l-10 -21q-4 -15 -15 -15
q-10 0 -14 14q-1 3 -1 7q0 20 44 81q164 198 289 309l46 209q5 12 12 13q8 0 14 -6.5t6 -14.5l-36 -166q142 125 332 176q65 18 123 18q48 0 71 -12l22 -10q5 -5 12 -8q23 -21 34 -35q29 -38 39 -101v-5q2 -16 2 -33q-1 -108 -97 -225h-1v-1l-17 -17v-1l-9 -8
q-81 -73 -118 -91q-1 -2 -3 -3q-12 -9 -31 -20q-108 -71 -258 -142h2q4 4 26 4q12 6 102 6l10 -1q137 0 252 -73q35 -23 52 -41q114 -113 114 -286q0 -100 -38 -195q-38 -77 -52 -94q-28 -42 -90 -102q-154 -140 -410 -208q-152 -38 -259 -38q-28 0 -83 4l-2 1q-6 0 -9 1
l-40 6q-20 -99 -24 -99.5t-7 -0.5zM285 -287q171 0 372 72q65 23 127 56q27 13 46 26q97 50 190 169q92 127 92 281q0 189 -141 293q-82 57 -192 70l-6 1q-8 1 -11 1t-3 1l-53 2q-25 -1 -37 -1t-48 -4q-132 -16 -199 -39q-24 -8 -38 -8q-13 0 -14 11q0 17 26 24
q5 3 24.5 9.5l21 7t3.5 2t39 14.5q94 31 277 136q57 38 110 69q67 47 97 77q32 26 70 81q0 1 2 3q47 74 47 150q0 18 -2 36q-2 6 -2 12q-15 63 -55 96q-9 5 -10 8v-1l-27 12q-18 7 -53 7q-34 0 -96 -12q-147 -37 -288 -137q-3 -3 -8 -6t-11 -8v-1l-18 -14q-30 -23 -44 -35
l-148 -677l-158 -773q14 -4 45 -6q19 -3 25 -3q0 -2 48 -2z" />
    <glyph glyph-name="C" unicode="C" horiz-adv-x="964" 
d="M292 -339q-28 0 -47 4q-32 1 -93 46q0 2 -2.5 2t-22.5 21q-127 133 -127 457q0 99 12 214q30 302 133 549q144 354 386 432q50 16 104 16q23 0 45 -1q110 -22 158 -123q42 -80 42 -175q0 -109 -66 -241l-15 -22q-18 -18 -20 -30q-16 -17 -25 -17q-8 0 -8 10q0 22 28 59
q39 58 65 157q8 35 8 83q0 132 -75 215q-50 53 -128 53q-6 0 -8 -1h-19q-234 -29 -380 -298q-27 -45 -47 -94q-12 -21 -20 -46q-97 -240 -126 -527q-12 -112 -12 -208q0 -202 51 -332q39 -91 93 -129q21 -16 23.5 -17t4.5 -3q33 -21 81 -21q51 0 133 65l70 62l83 87l9 10
q79 96 121 160l13 19l13 19q12 19 16 19l6 -1q8 0 8 -13q0 -18 -22 -52q-59 -98 -200 -248l-94 -86q-36 -27 -65 -45t-71 -27z" />
    <glyph glyph-name="D" unicode="D" horiz-adv-x="1236" 
d="M104 -350q-18 0 -18 20l28 139q-65 14 -122 47q-17 12 -17 21q0 10 13 10q18 0 32 -10q47 -26 101 -37l148 728l120 548q-30 -25 -60 -52q-13 -11 -21 -11q-10 0 -10 11q0 17 17 31l26 22v1h1q29 26 59 51l63 289q3 12 11 13q19 0 19 -21l-54 -249q83 68 165 126
q14 7 23.5 12.5t13 6.5t9.5 4q81 34 157 34q39 0 82 -12q4 0 5 -1t2.5 -1t3.5 -1q81 -32 137 -93q32 -34 42 -57q11 -16 12 -21q64 -124 67 -307q-5 -231 -73 -406q-3 -5 -5 -11q-70 -179 -183 -306q-18 -21 -22 -26.5t-31 -32.5q-13 -16 -53 -51l-14 -13l-33 -27
q-56 -43 -82 -60q-34 -22 -112 -66l-89 -39q-136 -54 -253 -54q-31 0 -62 4l-29 -140q-3 -13 -14 -13zM201 -169q122 0 256 54q92 39 153 78l42 27q2 0 34 24q6 3 12 9l3 2q2 1 50 40q98 86 175 190q15 26 22 32q25 41 49 83q65 119 99 258q14 58 27 170l3 95
q-2 114 -28 206q-21 57 -36 86q-59 103 -151 145q-47 22 -107 22q-76 -3 -149 -36q-8 -5 -22 -11q-65 -38 -204 -155l-129 -595l-147 -721q24 -3 48 -3z" />
    <glyph glyph-name="E" unicode="E" horiz-adv-x="1087" 
d="M217 -245q-46 0 -80 17q-13 8 -13 9q-4 0 -17 15q-21 23 -21 33q-3 6 -4 12q-7 8 -7 57q6 104 139 708q-10 -4 -17 -9l-26 -11q-4 0 -10 12q-3 6 -3 13q0 3 64 35q123 549 153 642q-181 -49 -264 -104q-70 -43 -96 -96q-16 -28 -17 -45q-2 -11 -13 -11q-10 0 -16 8
q-4 4 -4 8q32 130 222 212q24 11 32 12q100 36 168 54q17 44 33 80q8 14 15 14q14 0 14 -20q0 -7 -9 -29l-15 -36q45 12 97 22q249 48 441 64l201 18q12 0 12 -15q0 -16 -13 -18l-201 -18q-325 -31 -549 -90q-24 -71 -49 -179q-21 -76 -104 -458q36 16 149 50q3 0 17 4
q147 35 336 55q7 0 7 -13q0 -18 -6 -20q-283 -30 -426 -83q-51 -17 -85 -32q-60 -273 -91 -428q-50 -238 -53 -286q0 -34 1 -37q0 -22 16 -46q26 -37 93 -37q122 0 303 90q195 92 312 187q20 17 26 17q12 -2 12 -14q0 -13 -13 -25l-86 -63q-111 -72 -245 -135
q-184 -90 -310 -90z" />
    <glyph glyph-name="F" unicode="F" horiz-adv-x="920" 
d="M193 -372q-23 0 -23 21l157 772q-19 -7 -23 -9.5t-18.5 -8t-24.5 -10.5q-7 -2 -8 -3q-22 -6 -125 -62q-6 0 -10 5t-5 11l-1 6q0 17 200 100l2 1q5 1 20 7q18 88 177 815q-180 -70 -318 -136q-176 -82 -181 -83q-4 0 -8 6t-4 13q0 9 7 13q359 170 513 226l27 124
q3 12 11 13q8 0 14 -6.5t6 -14.5l-22 -102q123 45 240 78l126 31q20 3 40 8q30 6 70 12q18 3 19 4q13 0 21 1.5t17 1.5q27 0 48 -7q48 -15 52 -47q0 -10 -13 -10q-16 0 -19.5 5t-5.5 8q-13 18 -61 18l-36 -3l-1 -1q-30 0 -202 -40q-37 -12 -51 -14q-111 -32 -253 -84
l-177 -816q2 1 5 1q25 11 31 11.5t100 30.5q50 12 93 24q101 23 216 45q8 0 8 -18q0 -12 -5 -15q-293 -57 -388 -94q-10 -4 -16 -4l-51 -19l-162 -792q-4 -12 -8 -13z" />
    <glyph glyph-name="G" unicode="G" horiz-adv-x="1045" 
d="M177 -730q7 1 11.5 1t6.5 2q20 0 109 57q95 71 181 214q45 73 141 277q5 14 12 28l5 12q-161 -63 -289 -158q0 -1 -22 -18q-105 -82 -186 -202q-14 -25 -15 -26t-1 -2.5t-1 -4t-6 -10.5q-23 -51 -23 -89q0 -58 45 -77q13 -4 32 -4zM173 -763q-27 0 -50 12q-51 29 -55 100
q5 157 233 353l75 57q3 2 9 6.5t65 39.5q64 41 212 99q51 120 73 192l39 116q30 101 58 215q9 41 14 57q17 83 27 141q-266 -340 -474 -504q-112 -88 -195 -100q-4 -4 -33 -4q-46 0 -84 27q-7 6 -9 6q-78 66 -78 221q0 108 28 279q53 318 192 543q75 119 174 204
q129 115 253 115q38 0 73 -11q92 -27 156 -99q60 -67 74 -122q20 -44 20 -77q0 -19 -11 -20q-7 0 -16 13q-6 8 -8.5 22t-3 15t-5.5 17l-10 32q-6 16 -29 53q-59 91 -151 127q-11 3 -13.5 4.5t-8 2.5t-13.5 3q-28 7 -58 7q-19 0 -40 -3q-15 -5 -18.5 -5.5t-30.5 -8.5
q-43 -19 -51 -26q-13 -4 -47 -31q-1 0 -20 -15q-11 -7 -29 -25q-4 -4 -9 -7q-60 -60 -65 -68q-205 -235 -275 -657q-26 -168 -26 -251q0 -159 74 -212q29 -17 39 -17q1 -1 3 -1t7.5 -1t14.5 -1q17 0 50 8q81 26 167 96q180 140 406 422l83 105q12 14 15.5 15t6.5 1q6 0 8 -5
q0 -1 1 -1q6 -7 6 -21q-15 -146 -97 -429q-45 -160 -111 -321q70 28 84 28q12 0 12 -12q0 -16 -25 -25l-89 -33q-145 -342 -275 -491q-66 -77 -169 -131l-29 -11l-2 -1q-2 -1 -3 -1t-5 -1q-5 -5 -31 -5z" />
    <glyph glyph-name="H" unicode="H" horiz-adv-x="1194" 
d="M237 -508q-18 1 -18 26l64 270l162 675q-88 -28 -167 -61l-85 -39q-91 -46 -139 -103q-38 -48 -43 -85l-2 -11q-2 -11 -13 -11q-19 1 -19 22q26 143 242 237h2q81 41 233 88q203 799 207 799q23 0 23 -18l-193 -770q299 79 482 105l155 734q3 12 13 12q8 0 13 -6t5 -14
l-152 -720q133 21 140 21q10 0 10 -11q0 -18 -12 -21l-145 -24l-11 -52q-160 -817 -168 -817q-21 0 -21 20l165 844q-297 -51 -483 -108q-21 -85 -233 -970q-3 -12 -12 -12z" />
    <glyph glyph-name="I" unicode="I" horiz-adv-x="460" 
d="M61 -457q-16 0 -16 24q0 6 94 422q124 570 229 1151q27 150 33 213q-27 -15 -70 -49q-82 -64 -159 -143q-61 -61 -87 -110q-28 -55 -48 -140q0 -4 -1 -9t-1 -11q-2 -4 -2 -37l-1 -7q2 -2 3 -32q11 -67 24 -89l14 -34q0 -10 -11 -11q-10 0 -20 10q-4 0 -24 47l-1 6
q-13 38 -16 74l-1 55l1 8q0 12 2 18q2 20 3 21q0 41 40 125q31 69 109 145q73 75 163 145q75 59 96 59q17 0 21 -21q-10 -125 -82 -494q-157 -818 -277 -1316q-6 -20 -15 -20z" />
    <glyph glyph-name="J" unicode="J" horiz-adv-x="825" 
d="M-33 -551q11 0 47 3q152 26 282 232q26 36 64 102q133 221 219 522q-33 -9 -76 -22q-89 -27 -203 -87q-201 -106 -348 -280q-125 -155 -125 -299q5 -97 57 -141q34 -28 83 -30zM-18 -584h-11q-6 2 -23 2q-130 19 -151 169q-2 7 -2 29l-1 7q1 13 1 17.5t1 13.5t1 13.5
t1.5 12t1.5 10.5q36 143 138 264q21 27 27 30q33 38 90 88q257 213 534 271q117 432 123 997q0 44 -16 59q-48 -32 -156 -146q-228 -242 -328 -383l-29 -41q-17 -27 -28 -27q-7 0 -8 13q0 17 18 46l30 41q73 102 238 284q203 222 260 248q11 0 12.5 -1t3 -1t1.5 -2l16 -12
l1 -2q15 -19 17 -48q1 -11 1 -34q-6 -554 -121 -985l28 5q11 0 15 2q8 0 41 3q36 0 36 -11q0 -16 -54 -23l-75 -9q-86 -308 -229 -551q-28 -46 -57 -91q-154 -240 -327 -256z" />
    <glyph glyph-name="K" unicode="K" horiz-adv-x="978" 
d="M79 418q17 0 59 10q37 14 86 42q-39 28 -76 37q-7 2 -35 5q-46 -5 -68 -31q-12 -13 -12 -30q0 -9 2 -10.5t3.5 -5t3 -4t3 -3.5t14.5 -7q4 -3 20 -3zM951 -415q-37 0 -303 360l-122 164q-7 14 -149 197q-39 50 -80 96l-1 2q-13 14 -25 25l-161 -789q-4 -12 -13 -12
q-18 0 -18 25l161 789q-93 -56 -161 -56q-32 0 -41 9q-1 0 -3 0.5t-2 1.5q-9 5 -21 18l-3 6q-1 0 -1 2q-8 15 -8 28q0 15 5 26q17 36 53 55q24 12 55 12q69 0 137 -54q11 56 206 945q3 12 7 13q24 0 24 -20l-200 -919q75 50 171 123q187 145 346 289q220 198 308 309
q0 2 10 11q3 3 9 3q11 0 11 -15q0 -12 -10 -26q-80 -104 -314 -313q-223 -203 -450 -365q-6 -6 -89 -60q59 -54 129 -147q102 -130 272 -361q206 -277 273 -342q11 -9 11 -17q0 -13 -13 -13z" />
    <glyph glyph-name="L" unicode="L" horiz-adv-x="1026" 
d="M151 -377q-37 0 -54 3q-34 8 -60 34q-37 44 -37 120q0 29 8 72t64 247q158 547 318 1012l96 285q7 18 16 19q15 0 15 -21q0 -15 -139 -420q-174 -512 -316 -1037q-29 -98 -29 -166q0 -94 73 -113q8 -2 24 -2q143 0 528 230q222 133 234 133q11 0 11 -11q0 -16 -21 -27
l-216 -128q-359 -214 -515 -230z" />
    <glyph glyph-name="M" unicode="M" horiz-adv-x="1438" 
d="M1062 -387q-7 0 -13 13q-4 8 -4 17l20 142q30 175 113 563q152 685 152 874q0 65 -16 70q-2 1 -19 1q-97 -24 -248 -275q-125 -209 -221 -439q-89 -210 -131 -348q-3 -15 -32 -124q-4 -14 -13 -14q-16 0 -17 20q0 2 1.5 7t2.5 13q2 24 30 119q59 244 78 520q3 47 3 93
q0 131 -30 206q-3 3 -5.5 8.5t-5.5 9t-4 5t-1.5 2l-1.5 1.5q-11 12 -35 12q-28 0 -68 -27q-4 -5 -8 -8t-5 -3.5t-1.5 -1l-1.5 -1.5q-74 -74 -220 -373q-98 -196 -203 -441l-3 -5l-124 -609q-3 -12 -12 -12q-19 0 -19 25q92 446 182 893l195 889q3 13 13 13q8 0 13 -6t5 -14
q-195 -896 -222 -1028q69 156 149 316q144 295 231 382q9 9 19 15q43 29 86 29q38 0 63 -36q14 -14 25 -53q22 -71 22 -196q0 -172 -41 -399l60 144q149 347 302 558q110 154 195 166q9 0 27 -3q30 -12 35 -53q3 -20 4 -37q0 -91 -20 -222q-23 -149 -79 -416l-102 -483
q-67 -322 -85 -474q-3 -25 -15 -25z" />
    <glyph glyph-name="N" unicode="N" horiz-adv-x="1127" 
d="M865 -380q-6 0 -11 8q-8 12 -8 34q3 354 61 784q36 230 48 283q28 138 28 219q0 93 -26 149q-33 70 -88 77q-4 0 -5 1q-52 0 -118 -49q-5 -3 -7.5 -5.5t-3.5 -2.5q-166 -119 -295 -370q-49 -91 -150 -327q-190 -440 -250 -739l-2 -7l-7 -35q-3 -12 -12 -12q-19 0 -19 25
q92 446 182 893l195 889q3 13 13 13q8 0 13 -6t5 -14l-195 -896l-90 -441q54 150 141 354q69 161 118 262q122 246 267 382l46 40q24 18 49 35q62 44 110 44q55 -2 91 -38q71 -70 71 -222q0 -79 -28 -222q-2 -7 -50 -294q0 -10 -9 -71q-33 -258 -46 -534q0 -31 -2 -58
q-2 -32 -2 -85q0 -18 -1 -35q-1 -29 -13 -29z" />
    <glyph glyph-name="O" unicode="O" horiz-adv-x="959" 
d="M322 -213q1 1 5 1q152 18 265 244q42 84 91 206q76 207 110 424q22 164 22 282l-1 81q-1 5 -1 11q0 119 -54 208q-65 93 -157 95q-12 0 -40 -5q-73 -20 -122 -76q-18 -20 -36 -43q14 2 30 2q44 0 71 -20q9 -6 16.5 -11.5t13 -16t5.5 -15.5q0 -10 -7 -11q-4 0 -14 7l-8 5
q-10 5 -13 9q-30 18 -68 21q-28 0 -50 -11l-6 -2q-96 -160 -96 -451q0 -253 85 -339q31 -31 31 -39q0 -7 -10 -7q-22 0 -49 29q-88 98 -90 341q0 258 65 412q-26 -33 -54 -84q-5 -11 -26 -47l-19 -39q-19 -38 -24 -50q-6 -18 -26 -58q-89 -212 -113 -392l-1 -2q0 -5 -1 -9
t-1 -7.5t-1 -4.5q-8 -74 -11 -149q0 -114 5 -134q0 -12 7 -54q17 -134 99 -226l40 -34q57 -41 138 -41zM308 -246q-79 0 -154 55l-3 3q-29 23 -59 60q-9 17 -14 21q-12 18 -27 52q-31 71 -41 155q0 3 -1 5q-4 28 -4 38l-1 17q-4 20 -4 118q1 5 1 24q11 253 117 520
q2 3 19 44q84 180 94 190q31 62 83 114q7 5 13 11q3 0 23 15q24 40 52 70q94 106 200 106q95 -3 162 -81q33 -38 39 -58q3 -6 4.5 -8t3.5 -12q36 -72 36 -218q0 -184 -23 -345q-36 -235 -138 -493l-3 -6q-4 -8 -8 -20q-52 -113 -57 -119q-15 -37 -66 -108
q-79 -109 -181 -141q-34 -9 -63 -9z" />
    <glyph glyph-name="P" unicode="P" horiz-adv-x="916" 
d="M24 -380h-6q-18 0 -18 22l167 817q-11 15 -16 28q-14 34 -14 41q0 14 10 14q17 0 29 -31l1 -2l179 821q-101 -54 -178 -133q-74 -71 -109 -133q-21 -33 -21.5 -34.5t-4.5 -9.5q-13 -26 -22 -26q-14 2 -14 18q0 9 5 19.5t6 12t1 2t1 1.5q11 26 72 105q6 6 10 12
q10 14 59 63q89 89 204 144l12 56q5 13 9 13h5q18 0 18 -21l-7 -31q101 44 183 55q16 6 50 7q9 3 55 3q80 0 129 -21l24 -9q52 -26 72 -46l16 -16v-1h1q43 -52 53 -102q10 -25 10 -85q0 -82 -31 -176q-11 -42 -34 -93q-39 -105 -125 -223q-76 -106 -147 -168
q-147 -136 -247 -154q-11 -3 -38 -6q-76 0 -117 27q-30 17 -52 36l-11 11l-162 -794q-2 -13 -7 -13zM360 386q89 0 188 77q8 8 18 14l45 38q141 117 262 341q90 196 90 317q0 57 -14 91q0 2 -1 3q-1 14 -31 60v-1l-1 1q-7 14 -35 35q-28 31 -111 50q-31 8 -103 8l-5 -1
q-22 0 -27 -2q-13 0 -18 -2q-6 0 -36 -6q-21 -3 -41 -8q-11 -4 -16 -4q-10 -2 -15 -5q-7 0 -30 -9q-45 -15 -85 -34l-193 -881q14 -18 32 -34l2 -1q6 -6 8 -6q14 -13 46 -27q3 0 4 -1t3 -1.5t21 -6t43 -5.5z" />
    <glyph glyph-name="Q" unicode="Q" horiz-adv-x="1055" 
d="M936 -194q-138 0 -379 167q-45 32 -87 65l-4 -2q-68 -24 -128 -26q-88 0 -152 43q-81 54 -127 161q-59 118 -59 298q0 208 100 397q77 140 174 227q34 30 73 58q21 38 46 69q122 153 258 153q53 0 108.5 -24t92.5 -62q3 -1 25 -24q125 -143 125 -364q0 -124 -32 -232
q-82 -280 -254 -477l-48 -52q-85 -87 -165 -127q36 -29 75 -56q231 -161 354 -161q17 0 32 3q11 0 11 -19q0 -12 -10 -14zM333 43q57 0 107 18q-118 94 -220 196l-1 4q0 5 6 11.5t15 6.5l6 -1q102 -103 228 -202q101 42 210 170q179 209 251 462q34 118 34 233
q0 196 -109 334q-6 6 -11 13q-65 65 -134 85q-6 4 -14 4q-3 0 -4 1q-14 5 -55 5q-36 -2 -52 -10q-23 0 -79 -39q-58 -44 -101 -103l20 12v1h1q81 42 162 42q41 -3 81 -21q27 -19 27 -30q0 -7 -8 -7q-16 0 -47 14l-2 1q-21 10 -67 10q-50 -4 -103 -25q-38 -16 -43.5 -21
t-16.5 -11q-17 -10 -34 -22l-12 -9q-68 -126 -68 -249q0 -73 22 -131l20 -43q12 -17 12 -31q0 -7 -7 -8q-22 0 -41 38q-11 24 -11.5 24.5t-0.5 2.5q-26 62 -26 141q0 111 46 219q-112 -98 -192 -248q-46 -89 -63 -167l-2 -7v-3q-1 -1 -1.5 -3.5l-1.5 -7.5t-3 -13
q-3 -13 -4 -22l-1 -4q-1 -10 -3 -12q-7 -64 -11 -140q1 -4 1 -24q0 -43 6 -68q22 -129 47 -176q39 -108 140 -165q40 -25 107 -25z" />
    <glyph glyph-name="R" unicode="R" horiz-adv-x="944" 
d="M8 -389q-18 0 -18 24l168 764q-50 8 -82.5 31.5t-41.5 45.5q-4 12 -6 24q0 9 1 11q2 26 21 45q24 24 65 29q41 0 81 -19l171 721q4 12 11 12q8 0 14 -6t6 -14q-81 -344 -169 -730q55 -32 112 -95q11 3 24 9q1 1 1.5 1t2 0.5t35.5 15.5q111 56 244 176q130 122 212 243
q91 150 91 277q0 26 -4 49q-1 1 -6 21q0 11 -16 41q-31 64 -117 91q-63 19 -128 19q-45 0 -80 -3q-126 -15 -199 -46h-2l-52 -24v-1l-30 -19q-148 -106 -171 -272q0 -7 -2 -16q-4 -16 -12 -16q-10 0 -18 30q2 26 9 62q9 44 51 113q55 85 154 145q69 47 239 73q9 0 17 2
q34 5 98 5q74 0 149 -26q86 -29 126 -107q12 -23 12 -31q4 -7 4 -9.5t1 -4.5q10 -35 10 -82q0 -97 -50 -204l-21 -42q-10 -15 -16 -27q-13 -27 -48 -71q-94 -120 -210 -223q-9 -6 -22 -19q-135 -113 -252 -157q59 -69 108 -158q82 -150 154 -254h1v-1q59 -73 83 -90
q77 -67 165 -93q9 -2 16.5 -3t9 -2t26 -3.5t24.5 -14.5q0 -10 -31 -17q-138 13 -262 137q-69 74 -106 138q-93 154 -112 193q-54 95 -109 158q-73 -21 -138 -21q-84 -369 -174 -774q-3 -11 -12 -11zM202 428q50 0 105 16q-42 42 -86 70l-20 -86h1zM165 431l7 32l17 70l-11 5
q-30 14 -62 14q-19 0 -37 -14t-18 -32v-9l1 -1v-2q14 -31 59 -51q2 0 3 -1q20 -8 41 -11z" />
    <glyph glyph-name="S" unicode="S" horiz-adv-x="993" 
d="M118 -305q87 0 276 137l15 12q44 34 99 84l64 64q60 69 87 129q-178 -65 -295 -119q-216 -99 -276 -210q-6 -13 -9 -25l-2 -6l-2 -13q5 -37 21 -45q2 -1 3.5 -2.5t3.5 -1.5t3.5 -0.5t2.5 -1.5h1q3 0 3 -2h5zM131 -338q-31 0 -53.5 15t-30.5 41q0 1 -0.5 2.5t-2 4.5
t-1.5 15q0 18 11 55q1 1 1 3q32 68 92 112q89 81 340 181l184 70h2q9 35 9 57q0 23 -6 52q0 1 -1 3t-1 4q-38 104 -205 204q-41 26 -94 46l-5 2q-18 7 -101 35q-85 25 -107 41q-65 30 -115 86q-47 61 -47 149q1 1 1 4.5t5 20.5t6 21q1 12 26 50q32 45 82 93q8 6 15 14
q169 148 361 242q95 47 255 95q21 4 41 10q72 18 112 18q35 0 48 -7q5 0 21 -9q72 -40 72 -136q0 -9 -5 -38q-4 -9 -4 -15q-22 -61 -50 -100t-40 -39q-9 0 -9 13q2 23 39 72l1 4q26 35 35 106q0 32 -14 61q-7 16 -12 19q-12 17 -18 17q0 2 -3 3t-6 4q-7 3 -15 7.5t-40 4.5
q-25 0 -69 -9q-15 -5 -24 -5q-86 -19 -202 -63q-288 -112 -496 -322q-76 -76 -81 -155l-1 -10l1 -2q0 -9 5 -29q21 -67 80 -110q8 -6 9 -8q24 -16 53 -30q3 0 5 -2q45 -20 110 -40q119 -38 171 -68q98 -52 182 -140q69 -74 69 -163q-1 -22 -6 -44q118 44 146 57
q13 -6 13 -15q0 -7 -9 -19l-160 -61q-29 -88 -119 -182q-28 -34 -123 -114q-114 -91 -250 -159q-42 -20 -77 -20z" />
    <glyph glyph-name="T" unicode="T" horiz-adv-x="729" 
d="M265 -390q-23 0 -23 19l183 833l188 800q-441 -138 -506 -176q-72 -43 -86 -99q-2 -10 -11 -11q-16 0 -20 15q0 32 38 75q47 53 163 93q206 71 448 145l348 100q221 60 510 125q12 0 12 -15q0 -13 -15 -19q-343 -79 -723 -186l-122 -36l-194 -824l-182 -827
q-3 -12 -8 -12z" />
    <glyph glyph-name="U" unicode="U" horiz-adv-x="983" 
d="M719 -251q-16 0 -20 18q0 86 6 178q12 129 15 143l21 134q5 47 63 282q48 176 107 352q-232 -495 -471 -762l-42 -47q-109 -113 -207 -113q-36 0 -54 10h-3l-14 7q-10 1 -36 26q-35 33 -55 80q-4 10 -18 56q-11 54 -11 106q0 78 20 185q53 305 108 499q44 145 99 272
q21 53 45 91q14 33 52 95q11 18 20 18q12 0 12 -16q0 -12 -13 -33q-16 -26 -45 -82q-84 -174 -105 -247l-21 -69q-36 -109 -72 -282q-67 -319 -67 -432q0 -79 27 -150q30 -66 82 -91q3 0 5 -2q22 -8 43 -8q53 0 111 40q68 46 198 209q116 154 227 347l24 43q128 239 258 552
q1 1 1 4l53 125q9 22 18 22q5 0 6 -1q18 -2 18 -19q-1 -7 -36 -98q-138 -363 -222 -654q-8 -34 -20 -78q-24 -91 -46 -203q-6 -28 -6 -32.5t-16 -98.5q-18 -145 -25 -260l-1 -103q-1 -13 -13 -13z" />
    <glyph glyph-name="V" unicode="V" horiz-adv-x="820" 
d="M217 -286q-9 0 -13 2l-3 -1q-2 0 -4 2t-3 2q-55 30 -67 158q-5 59 -5 198q0 516 70 1050q8 82 8 100q-3 55 -8 55l-5 4q-27 -11 -30 -14t-11 -6q-75 -48 -104 -144q-3 -3 -5 -19l-5 -28q-2 -30 -14 -30q-7 0 -14 14q-3 6 -4 15q0 38 17 78q34 99 146 161q13 5 22 6
q2 0 3 -1q14 -2 14.5 -2.5t1 -0.5t1.5 -1q20 -10 24 -42l1 -9q2 -2 2 -32q0 -66 -19 -202q-41 -345 -59 -804l-1 -136q0 -30 1 -39l-1 -8l3 -58q0 -51 1 -76v-7q14 -152 64 -152q51 16 145 202q70 138 137 300q84 201 218 545q81 223 209 535q10 24 20 26q11 0 11 -13
q0 -27 -11 -49l-186 -477q-141 -369 -235 -591q-216 -511 -312 -511z" />
    <glyph glyph-name="W" unicode="W" horiz-adv-x="1438" 
d="M73 -259q-2 1 -3.5 1t-7.5 2t-8 2q-51 28 -54 101q0 32 20 192q41 262 127 518q92 268 228 586l96 217q19 39 29 40q8 0 8 -17q0 -18 -15 -55q-127 -291 -201 -467q-155 -385 -224 -736q-29 -155 -32 -224q0 -12 -3 -28q0 -66 31 -95l15 -5l22 9q59 36 163 213
q87 144 225 412q8 18 78 150q94 179 124 179q15 0 22 -11l3 -8q15 -32 35 -266q26 -265 52 -411q20 -118 51 -171q12 -22 21 -22l6 -1v1h3q53 18 134 177q52 104 92 207q155 389 222 736q32 157 32 253q0 69 -19 105q-3 2 -3.5 6.5t-17.5 22.5q-33 30 -63 32l-17 -1
q-18 0 -20 -2l-9 -1q-9 0 -10 7q0 5 10 15q14 14 36 15q12 0 36 -6q15 0 53 -29q7 -5 8.5 -8.5t14.5 -16.5q8 -10 13 -26q21 -39 21 -113q0 -105 -37 -279q-71 -352 -226.5 -739.5t-256.5 -387.5q-22 0 -44 27q-61 83 -100 464l-26 256q-11 104 -19 135q-36 -42 -161 -286
l-119 -228q-114 -210 -194 -325q-82 -113 -126 -115z" />
    <glyph glyph-name="X" unicode="X" horiz-adv-x="1208" 
d="M-46 -303q-13 0 -13 15q0 11 5 18l139 196q9 9 92 120q139 186 303 380q113 135 132 155q-109 463 -156 610v5q-5 11 -8 23q-12 42 -41 71q-1 0 -3.5 3t-4.5 3t-3 1q-9 4 -26 4q-15 0 -24 -7t-9 -9t-0.5 -3t-1.5 -1t-2.5 -2.5t-9.5 -2.5q-4 0 -8.5 4t-4.5 5t-0.5 1t-1 1
t-0.5 7q3 11 9 17l10 9q18 14 43 14q28 0 52 -14q8 -9 12 -10q24 -20 48 -88q61 -200 137 -532l19 -80q72 81 93 106q34 39 53 57q122 130 137 147q194 200 394 390q8 7 14 7q13 0 13 -10q0 -15 -9 -26q-138 -133 -140 -133l-31 -30q-275 -277 -515 -547l14 -57
q70 -297 146 -502q35 -106 102 -168l7 -7q46 -32 101 -32q32 0 51 11q7 7 16 7q13 0 13 -15q0 -12 -12 -20l-23 -10q-16 -6 -48 -6q-52 0 -99 27q-97 65 -149 233q-7 14 -28 82q-49 143 -111 400l-6 28q-275 -324 -462 -573q-27 -38 -48 -66l-143 -197q-6 -9 -14 -9z" />
    <glyph glyph-name="Y" unicode="Y" horiz-adv-x="1021" 
d="M1 -544q77 0 190 77q245 171 392 460q38 87 47.5 113t15.5 36q35 92 67 194q-144 -85 -348 -249q-183 -150 -305 -297q-91 -109 -120 -199q-3 -11 -8 -47q1 -10 2 -20.5t1 -11t14 -28.5q0 -1 9 -11q18 -17 43 -17zM9 -577q-27 0 -30 3q-3 0 -12 3q-23 11 -32 21h-1
l-10 13h-1q-23 41 -23 68l-1 10q0 30 5 39q0 6 6 24q21 83 133 216q126 149 311 300q219 174 373 260q105 352 177 834q-103 -213 -264 -445q-197 -275 -308 -275l-2 1h-8l-2 1q-66 11 -105 74q-51 88 -51 238q0 117 30 249q44 182 110 286q8 9 15 9q13 0 13 -15
q0 -9 -15 -35q-51 -84 -92 -259q-28 -120 -28 -233q0 -153 49 -228q23 -36 61 -49q3 -2 6 -2t17 -4q23 0 27 2.5t5 4.5q98 38 255 259q165 238 266 454l38 83q6 30 16 30q16 0 16 -33q-1 -15 -25 -171q-65 -435 -159 -753q76 37 91 37q13 0 13 -7q0 -17 -34 -34
q-38 -15 -82 -39q-40 -129 -85 -239l-39 -94q-98 -232 -298 -420q-108 -99 -213 -152q-63 -32 -113 -32z" />
    <glyph glyph-name="Z" unicode="Z" horiz-adv-x="1247" 
d="M-92 -220l19 1q23 6 62 37q78 62 126 113q-66 -9 -120 -31q-46 -22 -62 -34l-6 -4.5t-22 -17t-25 -39.5q5 -20 28 -25zM-75 -253h-1q-39 0 -62 23q-15 15 -15 42q8 37 39 59l2 2q36 27 64 43l14 7q70 35 184 45q127 139 227.5 298.5t205.5 363.5q50 92 99 185
q99 185 200 369q69 128 75 137l7 16q-209 -83 -463 -83q-138 0 -275 21q-34 6 -34 16q0 16 35 16h11q136 -20 263 -20q167 0 303 33q84 20 201 69q-1 -37 -8 -56.5t-87 -165.5q-152 -277 -299 -556q-111 -211 -210 -367q-93 -148 -205 -273q88 0 208.5 -14t189.5 -14
q185 0 293 77q2 0 24 15q83 61 157 136q20 19 29 19q8 0 8 -11q0 -15 -25 -41q-156 -159 -308 -206q-15 -3 -27 -7q-73 -14 -154 -14q-70 0 -188 13.5t-180 13.5q-30 0 -59 -2q-57 -60 -118 -115q-4 0 -53 -42l-2 -1v-1h-1q-36 -29 -65 -29v-1z" />
    <glyph glyph-name="bracketleft" unicode="[" horiz-adv-x="455" 
d="M245 -62q-79 0 -93 1q0 1 -1 1q-6 0 -10.5 2.5t-7 2.5t-7.5 4l-2 1q-28 23 -28 71q10 1016 22 1041q2 3 3 5.5t2.5 4t1.5 2.5l4 3q4 8 37 19q42 14 102 14q12 0 12 -12q0 -15 -18 -21q-66 0 -110 -22q-2 -1 -3.5 -5t-3 -7t-3.5 -134q-14 -780 -14 -884q0 -25 8.5 -39.5
t33.5 -14.5l141 1q13 -1 13 -13q0 -18 -18 -20z" />
    <glyph glyph-name="backslash" unicode="\" horiz-adv-x="618" 
d="M387 -82q-7 0 -9 7q-75 254 -175 549l-108 290q0 6 -69 174q-6 16 -12 29q-19 45 -19 49q0 5 5.5 11.5t14.5 6.5q6 0 10 -6l26 -66q25 -54 73 -183q159 -402 284 -844q0 -6 -6 -11.5t-15 -5.5z" />
    <glyph glyph-name="bracketright" unicode="]" horiz-adv-x="446" 
d="M161 -58l-153 1q-13 1 -13 13q0 18 18 20l131 -1q23 0 23 2h2l12 9q9 9 9 40l-13 958q-1 12 -1 31q0 42 -8 42q-47 24 -115 24q-15 0 -15 13q1 20 22 20q62 -6 62 -6.5t29.5 -7.5t36.5 -17q8 -6 14.5 -21t6.5 -83l14 -950q0 -66 -42 -82q-1 -1 -2.5 -1t-16.5 -3z" />
    <glyph glyph-name="asciicircum" unicode="^" horiz-adv-x="475" 
d="M19 748q-6 0 -13 6q-11 5 -11 14q111 190 123 208q15 18 19 20t5 3.5t4 3.5t5.5 4t5.5 3l2 1q7 5 13 5q4 2 10 2l9 -1l1 -1h2l1 -1h2q6 -3 8 -5t3 -2q14 -13 21 -30q12 -27 18 -38q0 -2 1 -3l69 -166q-7 -12 -27 -12q-5 0 -55 125q-16 39 -19 44q-7 12 -9 20l-1 2
q-3 9 -8 16q0 2 -1 3t-1 2t-1 2h-1q-2 5 -8 11l-6 1q-28 -8 -46 -45l-41 -68q-72 -124 -74 -124z" />
    <glyph glyph-name="underscore" unicode="_" horiz-adv-x="758" 
d="M650 0l-645 11q-4 0 -5 16q2 16 8 16l645 -10q7 0 7 -11q0 -22 -10 -22z" />
    <glyph glyph-name="grave" unicode="`" horiz-adv-x="270" 
d="M147 663q-73 72 -150 172q0 1 4.5 5.5t9 7t8 5t4.5 2.5q87 -112 111 -133l35 -37q0 -3 -9.5 -12.5t-12.5 -9.5z" />
    <glyph glyph-name="a" unicode="a" 
d="M-18 196q11 0 12.5 1.5t5.5 2.5q25 8 115 160q17 36 67 114h-3q-10 2 -19 2q-40 0 -76 -15q-2 -2 -11 -5q-12 -7 -24 -16q-4 -5 -9 -9t-5.5 -4.5t-2 -0.5t-4.5 -6q-15 -15 -16.5 -18.5t-7.5 -9.5q-8 -10 -8 -13q-4 -4 -7 -10q-42 -64 -44 -126q0 -46 37 -47zM242 141
q-22 0 -29 7q-6 0 -35 29q-11 12 -20.5 41t-9.5 57q0 51 10 93l-52 -86q-55 -92 -102 -116h-2v-1l-12 -2q-43 0 -65 31q-3 6 -5 8q-8 21 -8 46q11 89 57 150q2 4 30 40q71 71 161 71q12 0 22 -2q6 -2 12 -2t19 -5q3 0 6.5 -1.5t4 -1.5t1.5 -1q10 -3 10 -15q-49 -87 -57 -196
q0 -94 54 -114q4 -2 10 -2q47 0 110 100l98 159q11 0 11 -12q-79 -153 -150 -235q-40 -37 -58 -39z" />
    <glyph glyph-name="b" unicode="b" horiz-adv-x="454" 
d="M59 559q110 212 217 512q44 128 51 195q-70 -34 -128 -222q-29 -88 -109 -360zM-35 74l39 27q76 47 122 97q36 38 55 96q15 37 15 71l-2 7q0 11 -8 14v1h-3l-18 -16l-10 -10q-125 -125 -190 -287zM-84 -166q-19 0 -20 28q0 8 18 135l4 23l4 32q1 1 1 2.5t1 2.5l6 41
q37 222 106 507q53 202 133 451q62 200 162 236l5 1q23 0 24 -34q-1 -45 -54 -201q-82 -229 -170 -416q-52 -118 -105 -199q-14 -51 -53 -265q69 127 179 226q13 13 28 13t26 -11.5t13 -29.5l2 -14q-1 -28 -9 -54q-8 -20 -8 -23q-24 -70 -89 -132q137 92 259 198
q36 33 67 70q5 6 10 7q9 0 9 -10q0 -9 -5 -16q-58 -67 -145 -136q-117 -94 -241 -174q-104 -70 -122 -71q-14 -84 -25 -168q-2 -19 -11 -19z" />
    <glyph glyph-name="c" unicode="c" horiz-adv-x="344" 
d="M25 64q-22 0 -40 9l-2 1v1q-58 29 -58 123q1 109 45 191q1 1 1 3l17 28q15 27 41 43q14 7 26 7q27 0 39.5 -15.5t12.5 -41.5q0 -117 -18 -117q-9 0 -15.5 4.5t-6.5 10.5l1 2q7 50 7 84q0 30 -2 35q-7 6 -16 6q-13 0 -26 -13q-9 -9 -10 -11q-3 -6 -6 -9q-9 -9 -20 -33
q-36 -72 -41 -160l-1 -12q0 -48 19.5 -78.5t52.5 -30.5q27 0 52 16q33 21 96 94q87 105 162 221q5 5 7 5q12 0 12 -14q0 -3 -2 -7q-110 -174 -209 -277q-55 -65 -118 -65z" />
    <glyph glyph-name="d" unicode="d" horiz-adv-x="405" 
d="M251 522q29 55 63 130q91 199 164 413q46 133 50 184q-60 -32 -100 -133t-107 -334q-20 -73 -28 -97q-18 -73 -38 -145zM91 -268q-19 0 -20 28q40 298 105 589q-115 -162 -179 -176q-34 0 -54 18q-13 11 -15 21q-1 2 -1 2.5t-1.5 2t-1.5 5.5q-5 10 -5 32q0 27 4 36
q18 70 54 119q2 5 4 7t3.5 4.5t3.5 4.5q14 17 17 21.5t6 5.5q2 4 7 7q0 1 0.5 2t15.5 13q0 2 7 5q20 17 46 25q37 14 71 14q24 0 57 -6q0 3 1 5v1q43 179 140 492l42 119q53 130 135 158q1 1 3 1q11 0 20 -9q0 -1 2 -3q3 -8 3 -23q0 -46 -52 -201q-73 -214 -168 -420
q-55 -121 -105 -201l-1 -1q-3 -5 -7 -8v-1l-2 -2q-83 -368 -123 -667q-3 -20 -12 -20zM-12 206q9 0 10.5 1t5.5 1l32 23q31 29 89 102l22 32l48 66q4 13 6 23l6 26l-9 2q-19 4 -36 4q-34 0 -76 -17q-1 -1 -7.5 -4t-22.5 -15q-37 -32 -51 -58q-29 -29 -49 -107q-3 -9 -3 -17
q-1 -2 -1 -16q1 -11 1 -13.5t1 -5t1 -5.5t7 -9q0 -2 1.5 -3t9.5 -5.5t15 -4.5z" />
    <glyph glyph-name="e" unicode="e" horiz-adv-x="359" 
d="M-22 308q75 81 112 165q2 5 5.5 12t3.5 16l-3 2q-34 0 -61 -47q-41 -70 -57 -148zM31 82q-7 0 -13 1q-58 20 -68 72q-7 26 -7 84q5 128 69 235q35 59 78 59q36 0 40 -32q-2 -15 -8 -28.5t-6 -16.5q-34 -73 -87 -138q-43 -52 -58 -63q-2 -21 -2 -42q0 -37 13 -72
q18 -31 47 -34q41 0 116 70q87 81 159 178q36 48 46 65q3 6 9 6q9 0 9 -12q0 -7 -49 -76q-199 -256 -288 -256z" />
    <glyph glyph-name="f" unicode="f" horiz-adv-x="220" 
d="M-168 -620q2 0 2.5 0.5l1 1t1.5 0.5q7 4 14 25q87 261 91 757q-105 -387 -136 -740q0 -22 6 -31q0 -7 16 -13h4zM80 611q40 73 59 112q65 128 65 231q-14 -17 -124 -343zM-173 -653q-27 3 -41 26q-4 4 -4 7q-9 17 -9 47q0 33 31 257q38 252 141 603q0 5 2 7l1 3
q53 183 125 395l88 253q11 32 37 45q7 3 16 3l21 -3l2 -45q0 -102 -71 -241l-60 -114q-21 -34 -71 -132l-2 -3q-6 -10 -24 -66q-6 -24 -22 -72q24 12 64 30q157 74 172 82q5 0 7.5 -7t2.5 -10q0 -4 -136 -73q-76 -38 -122 -65l1 -13q-4 -310 -14 -411q-19 -218 -57 -370
q-21 -81 -31 -102q-5 -12 -17 -22q-6 -4 -6.5 -4t-2 -0.5t-1.5 -1.5q-9 -3 -20 -3z" />
    <glyph glyph-name="g" unicode="g" horiz-adv-x="452" 
d="M-131 -823q8 0 14 5q3 0 22 22q52 79 103 238q75 235 128 512q-110 -159 -182 -291q-125 -228 -125 -380q0 -36 15 -91h1v-2q12 -13 24 -13zM-14 194q11 0 11 3q19 6 46 43q50 70 89 142q40 69 56 91q-12 2 -27 2q-37 0 -73 -15q-3 -3 -9 -5q-18 -9 -41 -29q0 -2 -6 -8
q-56 -53 -82 -157q0 -6 -1 -9l1 -23q0 -16 15 -28q11 -7 21 -7zM-132 -852q-40 0 -54 46q-8 25 -13 89q0 203 225 554q59 91 121 178q45 253 58 424q-10 -15 -25 -40q-100 -175 -141 -213q-9 -10 -31 -21h-2v-1l-12 -2q-43 0 -65 31q-3 6 -5 8q-8 21 -8 46q1 15 14 66
q17 47 49 92l24 32l32 29q52 41 125 41q23 0 36 -3q2 -1 4.5 -1t3.5 -1q13 -1 14 -2l2 -2q20 0 20 -31v-3q-14 -185 -49 -388l19 26q175 233 227 309q13 16 19 16t6 -11q0 -18 -113 -168q-1 -3 -106 -144l-63 -87q-22 -123 -54 -253q-36 -165 -93 -341q-63 -195 -128 -261
q-1 0 -5 -3q-11 -9 -32 -11z" />
    <glyph glyph-name="h" unicode="h" horiz-adv-x="498" 
d="M44 552q26 50 53 108q100 220 166 410q47 135 51 183q-25 -14 -51 -44q-43 -59 -76 -166q-89 -271 -143 -491zM-99 -167q-6 0 -11.5 7.5t-5.5 17.5q37 305 110 622q8 26 12 52q69 275 121 433q49 148 62 179q50 119 130 147q1 1 3 1q25 0 25 -35q0 -48 -54 -200
q-74 -212 -169 -416q-73 -155 -105 -197l-3 -13q-49 -225 -66 -334q36 78 88 163q2 5 3 5q35 62 84 75q6 2 13 2q51 0 51 -98q0 -18 -7 -86q-4 -26 -4 -47l1 -2q7 -28 22 -28q39 6 110 89q98 114 176 249q5 6 9 6q10 0 10 -11q0 -5 -2 -10q-76 -133 -177 -253
q-80 -96 -130 -96q-11 1 -20 7q-3 0 -6 4q-14 14 -19 44q-1 3 -1 10q0 11 5 44q5 53 5 80q0 69 -20 69q-35 0 -73 -60q-106 -170 -143 -328v-1q-2 -2 -10 -72q-3 -19 -14 -19z" />
    <glyph glyph-name="i" unicode="i" horiz-adv-x="297" 
d="M38 156q-46 0 -58 44q-4 19 -4 40q0 100 20 190q2 4 6 4q5 0 11 -2t10 -4.5t4 -5.5q-18 -79 -20 -159l-1 -13q0 -45 8 -54.5t20 -9.5q18 0 37 11l32 23q110 82 186 206q2 2 4 2q9 0 16 -10l1 -4q-61 -102 -160 -192q-6 -6 -24 -19l-15 -12q-43 -33 -73 -35zM35 464l-5 1
q-27 6 -27 7l8 37q6 -2 11 -2q20 -5 21 -6z" />
    <glyph glyph-name="j" unicode="j" horiz-adv-x="243" 
d="M-351 -837q8 0 27 19q81 121 158 410q46 170 82 356q-46 -67 -89 -135q-96 -149 -165 -311q-54 -129 -54 -233q0 -40 15 -90q5 -16 26 -16zM-356 -866q-65 10 -65 143q0 38 8 73q30 149 132 333q76 138 208 325l17 102q30 177 42 351q2 24 14 24q18 0 18 -34
q-14 -180 -49 -384q77 108 171 230q44 57 86 114q13 16 19 16t6 -9q0 -10 -11 -29q-41 -56 -148 -197q-111 -149 -133 -182q-82 -436 -180 -691q-57 -150 -112 -181q-12 -4 -23 -4z" />
    <glyph glyph-name="k" unicode="k" horiz-adv-x="437" 
d="M-17 188q15 18 50 54q80 84 94 107q13 18 14 33q0 4 -0.5 4.5t-0.5 1t-1 1.5q-13 0 -33 -19q-4 -1 -15 -12q-48 -45 -91 -130q-10 -21 -17 -40zM45 534q26 49 53 109q101 221 166 410q49 139 52 184q-75 -41 -128 -211q-88 -270 -139 -475zM-39 125l1 1h-1v-1zM-97 -184
q-7 0 -12.5 7t-5.5 19q16 121 34 241q0 6 2 12q37 220 81 400q56 224 140 498q30 90 48 134q51 120 130 147l5 1q9 0 18 -9q5 -13 6 -21q0 -51 -55 -205q-74 -211 -169 -416q-73 -157 -106 -198q-19 -84 -34 -158q38 71 89 116q24 21 28 21q12 12 34 14q34 0 34 -37
q0 -24 -21 -54q-27 -37 -93 -103q-60 -64 -78 -88q43 15 181 99q144 89 274 183q4 4 8 4q9 0 10 -12q0 -16 -143 -110q-291 -194 -347 -194q-3 0 -4 1q-1 -7 -2 -11t-2 -7l-2 -18q-15 -66 -35 -237q-2 -19 -13 -19z" />
    <glyph glyph-name="l" unicode="l" horiz-adv-x="207" 
d="M43 520q45 90 52 111q94 217 157 412q45 141 47 185q-59 -32 -97 -137q-51 -136 -159 -571zM-108 -300q-16 0 -17 32q0 60 65 447q28 149 37 186q35 203 162 643q36 123 80 189q35 50 84 69l5 1q24 0 24 -38q0 -51 -50 -198q-67 -204 -161 -419q-70 -163 -102 -202
l-48 -243q-47 -283 -64 -447q-3 -20 -15 -20z" />
    <glyph glyph-name="m" unicode="m" horiz-adv-x="558" 
d="M-55 103q-9 0 -17 7.5t-8 20.5l2 15q20 112 27 140q28 119 71 231q5 12 12 12q18 0 18 -20q0 -6 -2 -10q-62 -157 -89 -322q53 129 113 227l1 2q5 6 19 29q17 27 39 27q40 0 40 -40l-29 -186q0 -13 3 -19l2 -1q6 9 20 38q77 151 110 199q1 1 1 1.5t0.5 2t9 6t15.5 4.5
q20 0 31 -33q6 -49 6 -68l-1 -42q0 -39 7 -75q4 -7 4 -12q8 -16 24 -16q18 8 38 30q14 14 60 72q38 46 73 94q8 9 12 9q9 0 9 -11q0 -13 -80 -113q-61 -77 -79.5 -91.5t-38.5 -14.5q-25 0 -39 28q-3 5 -4 8l-1.5 4.5t-0.5 3.5t-1 4q-9 27 -9 73l1 44l-1 39q-1 7 -1 8.5
t-1 2.5q0 6 -2 14q-1 3 -1.5 6.5t-5.5 9.5v-1h-1q-28 -34 -79 -136.5t-52 -102.5q-2 -7 -8 -10v-1l-8 -3q-12 0 -20 4q-20 20 -20 37q0 18 24 166l4 28q0 6 -0.5 6.5t-0.5 1t-1 1.5l-6 3q-7 0 -14 -8v-1h-1q-99 -162 -146 -296q-7 -26 -28 -26z" />
    <glyph glyph-name="n" unicode="n" horiz-adv-x="431" 
d="M-49 113q-4 0 -11 1.5t-11.5 4t-4.5 3.5q36 187 82 371q2 2 6 2q25 -3 25 -11q-33 -132 -61 -265l99 166q32 58 81 58q21 0 34.5 -16t16.5 -63q0 -79 9.5 -108.5t31.5 -29.5q42 0 143 152q1 3 35 49q3 3 6 3q1 0 4.5 -0.5t6.5 -7.5q0 -1 1 -3t1 -4q0 -3 -56 -82l-12 -18
q-73 -110 -129 -116q-43 0 -59 49q-9 30 -9 60q0 86 -14 102q-6 4 -15 4q-25 -4 -37 -24q-6 -8 -44 -73l-100 -171q-12 -19 -12.5 -23.5t-1 -7t-5.5 -2.5z" />
    <glyph glyph-name="o" unicode="o" horiz-adv-x="348" 
d="M137 325q1 3 1 6.5t1 6.5q2 16 2 29q0 71 -30 110q-24 27 -57 27q-16 -1 -29 -12.5t-13 -32.5q0 -28 21 -55q45 -55 104 -79zM46 169q-24 0 -46 17q-25 24 -32 58q-2 7 -2 11q-5 5 -5 52q0 62 29 120l1 3q-5 13 -5 26q0 38 27 59q20 14 44 16q48 -2 78 -41
q34 -47 34 -122q0 -25 -4 -50l15 -1q65 0 133 73q31 34 35 34q8 -2 8 -13q0 -13 -59 -67q-54 -50 -119 -50l-18 1q-6 -23 -17 -44q-33 -79 -97 -82zM46 199q17 0 32 11q38 31 54 91q-1 1 -3 1l-25 12q-64 38 -94 79q-18 -44 -18 -89q0 -72 31 -97q10 -8 23 -8z" />
    <glyph glyph-name="p" unicode="p" horiz-adv-x="353" 
d="M-210 -697q-7 0 -14 4.5t-7 11.5l156 814q-14 -4 -15.5 -5t-6.5 -1l-20 -6q-12 0 -12 18q0 14 9 15l52 16l66 347q3 8 10 8q21 0 21 -16l-24 -126q20 32 49 69l23 27q6 4 10 10q41 41 81 41q24 0 43 -16l2 -2q14 -17 17 -34l2 -6v-5l1 -2q0 -88 -70 -163
q-81 -84 -145 -124q-33 -19 -58 -31l-160 -836q-2 -8 -10 -8zM-33 186q72 36 146 112q2 0 18 18q56 56 68 111v4l2 8q0 58 -35 58l-12 -1v-1q-18 -4 -43 -29q-2 0 -32 -35l-2 -3q-11 -11 -15 -18t-14 -19l-1 -2q-7 -10 -14 -23q-6 -6 -15 -26q-3 -3 -3 -4.5t-1.5 -3
t-1.5 -4.5l-11 -21q-8 -22 -10 -24l-11 -31z" />
    <glyph glyph-name="q" unicode="q" horiz-adv-x="383" 
d="M-27 184l16 3q41 32 118 162l3 6l64 106q-16 3 -25 3q-45 0 -88 -21q-33 -17 -75 -77q-49 -72 -49 -140q0 -22 16 -35q10 -7 20 -7zM17 -701q20 33 57 153q52 174 73 348q0 5 1 9q4 60 4 78q0 53 -6 89q-4 21 -29 70q-58 -260 -90 -533q-10 -89 -12 -116t-5 -56l-1 -18
q2 -19 5 -23v-1h3zM17 -729q-19 0 -28 16l-2 6q-4 8 -6 39q43 562 197 1073l-45 -75q-94 -164 -143 -176l-3 -2h-13q-34 0 -59 33q-1 1 -1 2.5t-2 3.5q-8 21 -8 46q3 51 34 112l7 12q12 23 30 44q63 92 172 92q26 0 58 -8l9 -3q14 -6 14 -22q0 -7 -3 -15q-37 -120 -78 -279
q55 56 223 249q10 11 17 11q6 0 6 -8q0 -24 -222 -262q-41 -37 -41 -63l-1 -4q2 -21 19 -53q30 -55 30 -146q0 -70 -13 -156q-22 -151 -67 -302q-33 -100 -54 -147q-7 -16 -27 -18z" />
    <glyph glyph-name="r" unicode="r" horiz-adv-x="458" 
d="M11 445q54 70 84 133q12 25 12 43q0 12 -1 13.5t-1 4.5q-2 2 -5 2q-6 0 -14 -4l-2 -3q-8 -7 -10 -12q-61 -75 -63 -177zM142 -47q-18 0 -31 10q-24 18 -24 49q0 51 70 241q61 173 61 206q-62 -33 -85.5 -51t-73.5 -36q-13 -4 -25 -4q-48 0 -57 42l-3 34q0 113 83 212
q19 19 40 19q9 0 15 -3q8 0 16 -11q13 -14 13 -40q-1 -24 -9 -39l-1 -2q-3 -9 -6 -12q-5 -15 -37.5 -64t-71.5 -94q5 -6 17 -6q11 1 21 4l2 1q23 8 62 33q28 19 86 50q15 5 19 5q17 0 21 -11q6 -3 9 -25q0 -43 -39 -149q-12 -36 -26 -74q-64 -172 -69 -229q0 -15 10 -20
l2 -1q4 -3 5 -3.5t5 -0.5q17 0 34 23q157 200 265 406q6 12 12 12q8 0 8 -13q0 -6 -4 -15q-94 -193 -258 -411q-26 -33 -56 -33z" />
    <glyph glyph-name="s" unicode="s" horiz-adv-x="405" 
d="M-15 -176q16 0 23 7l6 3h1v1q15 11 28 24q71 71 71 165v20l-1 -1q-3 -3 -5.5 -6.5t-57.5 -63.5q-34 -38 -54 -71q-1 -3 -3.5 -6.5t-2.5 -5t-0.5 -2.5t-1.5 -1q-6 -12 -8 -20l-7 -26q3 -17 12 -17zM-17 -209q-10 0 -27 11l-1 2q-14 16 -14 38q0 14 1.5 17.5t2 5t0.5 2.5
l8 22l6 12q26 59 122 155q6 6 6.5 7t19.5 25q-6 36 -61 120q-52 71 -66 129q-2 2 -2 11q-1 2 -1 8l-1 1l-1 16q0 47 17 76q4 7 7 13t7 12l2 4l2 1q1 0 2 2.5t6 7.5l3 4l1 2q0 2 6 5q37 40 96 40q11 0 15 -2q8 0 24 -8q47 -29 47 -76q0 -16 -12 -16q-13 0 -21 21
q-10 33 -34 44q-15 5 -23 5q-37 0 -74 -36q-4 -4 -4 -5q-8 -7 -11 -16q-2 -3 -3.5 -5.5t-2.5 -4.5t-1 -3q-6 -11 -10 -23q0 -7 -2 -7l-4 -34l2 -20q1 -3 1 -6.5t1 -5.5t1 -4q0 -23 60 -111q51 -76 60 -109l17 20v1l12 13q12 15 43 49q106 115 190 221q7 7 11 7q15 0 15 -18
q-99 -122 -200 -242q-37 -37 -78 -89q4 -22 4 -46q0 -102 -66 -182q-51 -61 -98 -61z" />
    <glyph glyph-name="t" unicode="t" horiz-adv-x="173" 
d="M-110 -165q-21 0 -21 20q99 560 213 989q-109 -4 -219 -15q-7 0 -7 13q0 27 234 32l10 35q45 162 92 324q5 9 12 9q19 -2 19 -19l-49 -171q-1 0 -49 -177q278 0 487 -21q7 0 7 -8q0 -13 -11 -13q-174 15 -350 15q-70 0 -141 -2q-90 -352 -136 -579q-20 -83 -80 -422
q-2 -10 -11 -10z" />
    <glyph glyph-name="u" unicode="u" horiz-adv-x="410" 
d="M162 94q-52 0 -53 73q0 50 18 135l-4 -6q-56 -73 -82 -84v-1h-1q-12 -6 -29 -6q-7 0 -12.5 2t-7.5 3t-3.5 1t-3.5 1q-23 16 -26 38q-3 13 -3 34l2 14q3 47 16 77q1 2 1 3.5t0.5 4t2.5 4.5q5 14 6 14q13 30 17 30q3 0 13.5 -5.5t10.5 -11.5q-26 -58 -26 -67q0 -2 -1 -3
q-9 -39 -9 -65q0 -31 13 -39l11 -3q9 0 16 5q5 0 5 3q17 0 106 134q12 21 18 30q3 13 9 13q9 0 18 -8q6 -4 6 -9q-43 -115 -51 -241q0 -39 20 -41q47 0 147 153l61 96q37 62 44 62q12 0 12 -10q0 -4 -40 -75q-77 -124 -110 -166q-59 -79 -101 -87q-2 -2 -10 -2z" />
    <glyph glyph-name="v" unicode="v" horiz-adv-x="520" 
d="M224 377l3 5q30 56 33 94q0 26 -12 39q-7 8 -18 8q-27 0 -40 -41q-2 -7 -2 -21q0 -10 3 -23q11 -36 33 -61zM-33 9h-3q-2 1 -5 1t-3.5 1t-5.5 6l-4 3q-13 18 -13 51q14 243 83 456q5 11 12 11q18 -2 18 -20l-1 -7q-64 -195 -81 -412v-13l-1 -1q0 -33 4 -42q24 19 78 82
q105 123 168 232q-50 46 -50 104q0 62 45 83q10 5 26 5q49 -10 52 -66q0 -43 -40 -124q36 -24 92 -28q99 4 173 92q7 7 13 7q8 0 8 -10q-1 -8 -7 -16q-85 -97 -193 -97q-51 0 -97 32q-57 -102 -172 -237q-71 -84 -92 -91z" />
    <glyph glyph-name="w" unicode="w" horiz-adv-x="536" 
d="M334 388v4q0 60 -32 60q-13 0 -14 -12q0 -16 16 -29zM33 73q-19 0 -30 7q-22 13 -30 35q-1 0 -3 5.5t-5 11.5q-9 36 -9 69q0 162 54 300q2 3 5 3q9 0 19 -7q6 -4 6 -9q-48 -123 -51 -268q0 -114 40 -114q15 1 34 29q55 65 97 159q2 3 5 3q8 0 13 -4q12 -6 13 -10
q0 -9 23 -101q8 -42 27 -42q8 0 26 29q57 93 66 190l-14 8q-58 30 -58 73q0 11 6 21.5t16.5 14.5t19.5 4q18 -1 34 -13q2 -4 4 -4q2 -4 4 -4q16 -24 16 -54q1 -9 1 -33q19 -9 37 -9q27 0 55 18q81 49 91 49q2 0 2 -1q0 -3 -29 -32q-61 -60 -115 -60q-21 0 -43 9
q-10 -90 -52 -168q-27 -45 -40 -58q-9 -8 -25 -11q-25 0 -40 19t-19 44l-15 64q-39 -73 -98 -143q-18 -17 -38 -20z" />
    <glyph glyph-name="x" unicode="x" horiz-adv-x="391" 
d="M249 38q-70 20 -117 82q-42 60 -75 126q-9 -13 -19 -29t-21 -34t-20 -36q-43 -78 -46 -78q-4 0 -12 5q-12 8 -12 12q58 117 113 195q-47 102 -73 219q0 3 6.5 6t20.5 3q5 -1 6 -4q23 -109 61 -195l2 2q26 41 79 93q2 0 35 34q29 29 32 29q37 29 67 29q23 0 33 -11h1
q0 -6 -8 -15t-13 -9q-3 0 -5 1t-5 1q-28 0 -57 -28q-1 -1 -2.5 -1t-1.5 -3q-13 -13 -20 -18q-55 -55 -67 -69q-24 -30 -26 -30q-5 -9 -28 -38q48 -96 80 -140q41 -55 102 -71q3 -1 3 -6q0 -4 -2 -9.5t-5 -9t-6 -3.5z" />
    <glyph glyph-name="y" unicode="y" horiz-adv-x="468" 
d="M-127 -837q8 0 12 4q1 1 1.5 1t2 0.5t7.5 8.5q3 3 7.5 5.5t23.5 37.5q87 167 175 543l8 35q16 70 29 137q-48 -69 -84 -124q-222 -342 -222 -542q0 -40 15 -90q6 -16 25 -16zM-130 -866q-48 3 -59 73l-1 6q-5 29 -5 55q0 114 61 253q87 201 285 481q33 178 50 337
l-31 -60q-31 -52 -63 -78q-16 -14 -27 -14q-5 -2 -11 -2q-92 0 -92 139q0 66 22 156q7 30 8.5 31.5t4.5 1.5q9 0 17 -4.5t8 -9.5q-24 -97 -27 -177q0 -103 56 -104q7 0 8 1q36 21 69 79q57 102 74 198q3 4 10 4q3 0 8.5 -1t9.5 -3t4 -7q-3 -15 -7 -29q1 -2 1 -10
q-14 -188 -50 -389q151 194 258 349q12 16 19 16t7 -8q0 -19 -113 -171q-5 -2 -182 -250q-23 -123 -53 -251q-90 -391 -182 -549q-27 -45 -55 -59q-1 0 -2 -0.5t-3 -2t-17 -1.5z" />
    <glyph glyph-name="z" unicode="z" horiz-adv-x="473" 
d="M-25 -807q8 0 11 4h1l3 3h1q0 2 9 8q1 2 3 3.5t3 2.5q79 79 137 218q113 264 128 583v3q-72 -129 -123 -227q-153 -287 -196 -458q-9 -49 -9 -73q0 -34 10 -56l10 -9q6 -2 12 -2zM-27 -840q-16 0 -30 9t-20 23q-2 2 -5 10.5t-3 9.5q-6 12 -6 49q4 98 68 248
q85 201 291 570q-6 55 -24 64h-1v1q-25 27 -63 36q-15 5 -62 5q-10 -1 -21 -1q-34 0 -69 18q45 24 106 73q67 63 67 67q21 21 36 55q2 2 2 6t3 8l2 20q0 32 -20 53l-9 6q-7 2 -7.5 3t-20.5 3q-97 -8 -168 -82q-13 -15 -22 -15t-9 11q0 20 16 35q66 65 157 80q1 1 3 1t7.5 1
t12.5 1q6 0 27 -3l10 -2q56 -28 56 -94q-1 -13 -4 -26v-2l-1 -1q-4 -31 -49 -83q-3 -4 -53 -54q-41 -37 -59 -45h32q45 0 89 -23q33 -20 50 -51q3 -2 9 -20l1 -2q33 61 74.5 134.5t78.5 147.5q11 22 21 22t10 -17q0 -25 -127 -251l-47 -83q2 -24 2 -62q-16 -357 -160 -657
q-48 -87 -79 -124q-49 -60 -57 -60q-7 -4 -9 -6q-14 -6 -26 -6z" />
    <glyph glyph-name="braceleft" unicode="{" horiz-adv-x="403" 
d="M240 -132q-4 0 -5.5 1t-2.5 1t-3 1t-3.5 1t-2.5 0.5t-1 1.5q-33 11 -62 45q-15 15 -16 18t-2 3t-4 9q-30 50 -37 104l-2 7v9q-1 1 -1 3.5t-1 3.5v2q-3 14 -7 78q0 81 3 90v3q2 23 2 47q0 27 -4 39l-1 2q0 5 -15 40q-1 1 -1 2t-1 2.5t-1 16.5q3 22 23 53q42 89 42 228
l-1 125l1 25q0 84 29 136q7 14 7.5 16t3.5 5q42 59 94 65q2 0 2 0.5t15 1.5q11 0 11 -12q0 -13 -7 -17q-1 -1 -1.5 -1t-1.5 -1.5t-7 -1.5q-45 -4 -80 -56q0 -4 -3 -4q-8 -18 -14 -34l-5 -15l-4 -17q-5 -30 -5 -46q-1 -2 -1 -22q-1 -1 -1 -52l1 -97q0 -148 -43 -234
q-22 -37 -22 -54l1 -1q2 -7 6 -15q16 -41 16 -76q-1 -44 -4 -64l-1 -70q0 -84 27 -165l2 -3q5 -16 10 -21l6 -11q1 -3 5 -7q19 -38 76 -56q8 -3 8 -11q0 -21 -17 -21z" />
    <glyph glyph-name="bar" unicode="|" horiz-adv-x="398" 
d="M139 -105q-19 0 -19 16q12 636 21 1272q0 12 11 12q21 0 21 -17q-18 -1281 -27 -1282z" />
    <glyph glyph-name="braceright" unicode="}" horiz-adv-x="453" 
d="M77 -134q-10 0 -11 14q0 15 15 21h2q2 2 5 2q71 24 99 145l3.5 17.5t0.5 5t1 3.5q8 72 8 114l-6 107q0 23 4 39q2 5 2 9q3 12 4.5 14t1.5 3.5t1 2.5t1 2.5t0.5 3t4 9.5t3.5 9h1v10q-1 1 -1 4t-12 24l-10 20q-29 54 -37 131q-5 52 -5 110q1 26 1 66q0 129 -9 153
q-1 19 -26 61q-40 53 -84 53q-1 1 -5.5 1t-5.5 13q0 9 9 18q1 1 3 1q5 0 22 -3q56 -11 95 -74q2 -6 2.5 -7l1.5 -3t6.5 -14t6 -15.5t3 -6.5t5.5 -23q0 -7 5 -32q3 -18 4 -100l-1 -100q0 -139 43 -225q22 -28 22 -60q-1 -14 -12 -36t-11 -63q0 -21 2 -44q3 -13 3 -96
q-3 -20 -3 -40q0 -30 -14 -86l-6 -18q0 -12 -7 -21q0 -13 -31 -57q-48 -55 -94 -62z" />
    <glyph glyph-name="asciitilde" unicode="~" horiz-adv-x="487" 
d="M305 805h-25q-1 1 -6 1q-18 0 -73 21q-26 9 -38 10.5t-24 4.5q-19 4 -39 4q-25 0 -39 -13q-10 -10 -10 -19q0 -4 -17 -4q-3 1 -5 1t-4 1t-4 1t-2 9q0 6 5 17q18 27 44 35q5 0 6.5 1.5t26.5 2.5q53 0 110.5 -20.5t84.5 -20.5l2 1q41 0 59 37q0 2 2 2q29 -1 29 -9
q0 -7 -3 -10v-2l-2 -3q-3 -10 -19 -24q-22 -18 -59 -24z" />
    <glyph glyph-name="exclamdown" unicode="&#xa1;" horiz-adv-x="377" 
d="M83 -19q-19 3 -21 14l16 153q3 16 4.5 34.5t4.5 38.5q54 456 85 747q1 7 10 7q21 0 22 -14l-54 -487q-30 -243 -55 -486q-2 -7 -12 -7zM197 1037q-19 0 -31 13q-9 10 -9 22q0 20 12 29t27 9t29 -13q8 -10 8 -22q0 -19 -12 -28.5t-24 -9.5z" />
    <glyph glyph-name="cent" unicode="&#xa2;" horiz-adv-x="468" 
d="M168 50q-25 0 -26 11l9 197q-4 0 -6.5 0.5l-5 1t-7.5 2.5q-52 13 -93 62q-47 60 -47 142l1 32h1v1q0 14 14 62q4 5 4 8.5t13 27.5q23 41 55 60l27 12q25 5 64 6l13 276q3 7 13 7q20 0 20 -12l-13 -272q53 -3 80 -27q10 -9 26 -34l1 -4q0 -1 -4.5 -5.5t-15.5 -4.5
q-4 0 -6.5 0.5t-7.5 5.5q-10 19 -29 26q-2 2 -3.5 2t-2.5 1q-13 6 -40 7l-17 -351q47 3 77 33q1 0 4 5q2 1 5.5 4.5t4.5 3.5q6 0 14 -6t8 -14l-2 -5l-22 -21q-21 -21 -61 -29q-4 -1 -5 -2q-6 -2 -19 -2q-1 -1 -5 -1l-10 -199q-1 -7 -6 -7zM153 291l16 352q-36 0 -54 -6
l-20 -10q-26 -16 -43 -48q-14 -29 -18 -49q-4 -15 -6 -19l-1 -14q-1 -1 -3 -29q0 -73 43 -126q22 -25 49 -39q13 -6 27 -10z" />
    <glyph glyph-name="sterling" unicode="&#xa3;" horiz-adv-x="495" 
d="M337 184l-10 8h-1q-57 42 -152 42q-4 -2 -37 -5q-67 -18 -83 -18t-33 -1q-4 0 -7 3q-12 9 -12 19q0 3 5 7t22 26l5 8q5 5 16 25q38 60 42 154l-1 26q0 20 -13 66h-76q-1 0 -2 16q2 17 3 17h65q-30 82 -30 140q0 26 5 42q2 6 2 12q1 0 3 9l1 2q11 24 12.5 25.5t3.5 6.5
q0 1 2 3.5t16 22.5q53 62 109 76q3 1 5 1t4 1q11 0 15 1q23 0 42 -7q57 -21 68 -71q0 -7 -14 -9q-12 0 -19 7q0 3 -2 6q-9 25 -46 37q-11 4 -34 4l-3 -1q-10 0 -12 -2q-56 -15 -101 -83l-3 -5q-6 -6 -6 -11q-7 -9 -7 -17q-7 -25 -7 -49t9 -71l21 -70q117 -1 118 -3
q0 -29 -3 -30h-106q13 -33 13 -92q0 -119 -69 -207h2q98 20 133 22q86 0 164 -54q0 -1 4 -3q0 -13 -21 -26z" />
    <glyph glyph-name="currency" unicode="&#xa4;" horiz-adv-x="606" 
d="M404 261q-25 54 -49 122q-1 0 -1 -1h-2q0 -1 -1 -1l-10 -5l-6 -2q-26 -9 -55 -9q-27 0 -73 12q-10 0 -32 11q-23 -16 -25 -20q-3 -2 -6 -3t-6 -6q-21 -11 -73 -93q-4 0 -16 7t-12 8q46 77 106 125l-19 15q-36 41 -36 92q2 30 6 39l1 2q3 13 16 31l-5 -2q-57 71 -102 149
q0 2 12 9t16 7q58 -92 97 -142l9 8q40 28 83 28q8 -2 8 -13q-1 -20 -12 -20q-43 0 -77 -38l-2 -3q-4 -8 -6 -9t-2 -4t-1 -5q-6 -12 -6 -15t-1 -4.5t-1 -15.5q1 -81 89 -105q36 -12 73 -12q23 0 43 8h2l10 5l1 2q18 9 30 30q19 27 19 61q-1 39 -30 72v1h-1q-38 38 -85 38
q-19 0 -28 -2q-9 0 -9 19q0 14 8 14q1 2 23 2q78 0 129 -68q24 28 51 53l61 50q3 0 10.5 -12t7.5 -15q-63 -45 -110 -104l-4 2q7 -20 7.5 -27.5t1.5 -9.5q0 -75 -40 -114h2q19 -58 52 -128q-18 -12 -30 -14z" />
    <glyph glyph-name="yen" unicode="&#xa5;" horiz-adv-x="495" 
d="M227 253q-16 1 -16 4v107l-62 -3q-3 0 -3 16q0 17 1 17l64 2l1 48q-67 0 -93 1q-1 1 -1 11q0 22 3 22q27 -1 91 -1l1 33q0 23 1 32h-3l-2 1q-38 66 -70 109q-31 39 -64 76q-32 32 -67 63q0 5 9.5 14.5t12.5 9.5q55 -47 93 -91q44 -53 67.5 -89.5t27.5 -41.5t7 -11l29 50
q47 79 147 188q5 0 14 -9t9 -14q-54 -54 -101 -122q-20 -24 -64 -98q-6 -10 -6 -12l-11 -19q2 0 2 -69l102 3q2 0 3 -18q0 -13 -2 -14q-88 -4 -103 -4v-48l21 1l42 -1q1 0 1 -8q0 -22 -3 -25l-61 1v-108q0 -3 -17 -3z" />
    <glyph glyph-name="brokenbar" unicode="&#xa6;" horiz-adv-x="326" 
d="M161 578q-25 0 -26 3l-5 191l2 189q0 4 7 4q25 0 25 -5l-1 -190l5 -189q0 -1 -7 -3zM170 0q-27 0 -28 4q-2 93 -5 185q-4 112 -4 163q0 2 5 2q16 0 28 -5l-1 -2q0 -46 5 -158l5 -186q0 -1 -5 -3z" />
    <glyph glyph-name="section" unicode="&#xa7;" horiz-adv-x="487" 
d="M196 61q-48 0 -70 40q-1 0 -2 2t-1.5 2t-0.5 2t-7 11q-10 21 -11 39q0 20 6 31.5t9 11.5q7 0 14.5 -10t7.5 -12v-1q-1 -1 -2 -3.5t-1.5 -3t-0.5 -6.5q0 -15 11 -37q16 -32 40 -33q29 0 52 47q0 5 1 7q4 12 4 25q0 32 -14 52q-3 6 -3.5 6.5t-5 6t-11.5 11.5q-6 2 -10.5 6
t-24.5 16q-39 18 -65 51q-5 12 -8 15q-7 20 -7 39q-4 9 -4 24q0 7 8 7h2l3 10q14 23 22 30q27 26 75 26q-19 23 -44 48q-63 53 -63 125q0 23 6 47q3 3 5 8t6 9l1 2q23 25 59 25q22 -1 22 -3q4 0 10.5 -2.5t7.5 -3.5t6 -3v-1h1q30 -15 51 -52h1l2 -4q0 -6 -17 -13
q-4 -2 -8 -2q-3 0 -5.5 3t-2.5 3.5t-0.5 1l-1.5 1.5q-16 24 -46 39q-3 0 -6 2t-11 2q-25 0 -41 -20q-3 -4 -3.5 -6.5t-0.5 -4.5t-1 -5.5t-1 -17.5q0 -42 8 -51v-2q13 -22 47 -57q41 -37 51 -58q3 -9 4.5 -10t4 -8.5t6.5 -16.5q4 -14 4 -32q0 -9 -2 -18v-2q-16 -68 -79 -72
q-10 0 -13 0.5t-10 2.5l1 -2q5 -9 43 -26l30 -19q3 0 28 -25q26 -37 26 -79q0 -49 -34 -90q-19 -19 -47 -25zM176 356q3 1 6.5 2t4.5 1.5l2 1t3 2t5.5 2t13 18t9.5 30.5l1 3l-1 8q0 9 -2 12.5t-20 4.5q-25 0 -44.5 -13t-23.5 -45q14 -27 46 -27z" />
    <glyph glyph-name="dieresis" unicode="&#xa8;" horiz-adv-x="310" 
d="M87 833q-15 0 -26.5 11t-11.5 26t11.5 26t26.5 11q17 0 28 -11t11 -26t-11 -26t-28 -11zM197 833q-15 0 -26.5 11t-11.5 26t11.5 26t26.5 11q17 0 28 -11t11 -26t-11 -26t-28 -11z" />
    <glyph glyph-name="copyright" unicode="&#xa9;" horiz-adv-x="733" 
d="M324 199q-67 0 -106 35t-39 93q0 47 30 92q35 57 82 71q18 4 36 5l2 -1q11 0 31 -7q30 -12 44 -43q0 -3 -3.5 -6t-9.5 -5t-12 -2q-5 0 -5 2q-14 29 -58 29q-55 -10 -84 -67q-20 -35 -20 -73q0 -23 13 -45q5 -10 9 -13v-1l6 -5q24 -24 76 -27q20 0 34 2q7 3 11 3
q16 10 16 12.5t16 2.5q15 -1 15 -9q-15 -43 -84 -43zM292 101q54 0 96 21q4 0 11 5q14 7 19 12q8 0 45 39q11 11 17 22q43 64 43 140q0 89 -53 153q-3 3 -4 5t-4.5 5t-6.5 7l-8 8q-77 65 -175 65q-21 0 -45 -5l-15 -2q-4 0 -8 3q-3 -5 -8 -8q0 -1 -1 -1q-72 -43 -100 -113
l-5 -12q-6 -6 -17 -57q-6 -27 -6 -62q0 -34 9 -61q2 -10 3 -11.5t1 -4t2 -4.5t4 -7l1 -3q35 -86 132 -122q3 -1 5.5 -1t4 -1.5t23.5 -6.5q5 -1 9.5 -1t14 -1t16.5 -1zM290 68q-46 0 -65 9q-21 6 -41 14q-6 4 -12.5 7t-12.5 7q-71 45 -105 122l-1 2q0 9 -2.5 10.5t-2.5 3.5
q-14 38 -14 93q0 56 23 116q27 68 71 110q38 33 45 33q15 8 21 9q6 0 9 -3q7 11 29 11q1 1 3 1t13 1.5t36 1.5q102 0 183 -73h1v-1q6 -3 22 -22q3 -4 7.5 -7.5t6 -7.5t2.5 -4.5t2 -1.5t2 -4t8 -13q37 -69 37 -143q0 -70 -32 -130q-21 -54 -105 -109q-63 -32 -128 -32z" />
    <glyph glyph-name="ordfeminine" unicode="&#xaa;" horiz-adv-x="373" 
d="M49 816l7 2l-1 -1q4 0 4 1t1.5 1t8.5 7q27 27 71 104q35 60 48 78h-3q-8 2 -16 2q-37 0 -62 -17l-4 -3q-6 0 -27 -23l-1 -2q-6 -6 -12 -15q-4 -4 -4 -5t-1.5 -2.5l-2.5 -2.5q-23 -35 -30 -74q0 -4 -2 -6l-1 -10l2 -12q4 -22 25 -22zM187 729q-9 0 -11 11q-2 24 -2 48
q0 109 20 190l-36 -62q-71 -122 -104 -122q-30 0 -47 23q0 2 -2 4q-5 13 -5 31q3 38 22 72q2 4 4 8.5t10 17.5q24 36 40 49q41 33 92 33q24 0 43 -7q17 0 17 -9q-30 -101 -32 -182l-1 -24q0 -47 2 -69q0 -12 -10 -12z" />
    <glyph glyph-name="guillemotleft" unicode="&#xab;" horiz-adv-x="721" 
d="M495 237h-2l-187 138q-4 5 -11.5 9.5t-11.5 8.5q-1 0 -2.5 3.5t-3 3.5t-1.5 3t-0.5 4.5t-1.5 2.5q3 31 98 94q71 46 98 76q2 4 3 5h1h1v1q8 8 12 14q13 22 16 22t13 -6.5t10 -12.5q-11 -20 -14 -23q-24 -38 -123 -104q-49 -31 -80 -63q206 -151 206 -154q0 -4 -7.5 -13
t-12.5 -9zM269 236q-209 153 -214 159t-5 9.5t-1 4.5q0 8 2 10q2 9 9 15l1 2q31 31 86 67q71 46 98 76q4 2 4.5 3t0.5 2t13 16q13 20 14 20q5 0 15 -6.5t10 -11.5q-15 -26 -22 -32l-1 -3h-1q-36 -43 -114 -92q-49 -32 -80 -62v-1h1q2 -1 3 -2.5t2 -1.5l18 -13
q183 -136 183 -137q0 -4 -8 -13t-14 -9z" />
    <glyph glyph-name="logicalnot" unicode="&#xac;" horiz-adv-x="1014" 
d="M809 147q-19 0 -20 11q0 237 -3 241q-11 3 -695 3q-7 0 -8 12q0 20 11 20h679q24 0 34 -11q1 0 3 -2l5 -6q4 -5 4 -11q0 -1 1 -1q0 -8 2 -16l-1 -232q0 -7 -5 -7z" />
    <glyph glyph-name="registered" unicode="&#xae;" horiz-adv-x="727" 
d="M255 169q-24 0 -26 5l1 88l-7 222q0 3 16 3t16 -3l1 -21q15 12 27 19l4 1v1h2q1 1 2.5 1t2.5 0.5t3.5 2t5.5 1.5t5 1t15 1q23 0 37 -11q2 -2 4.5 -2.5t9.5 -10.5q12 -18 12 -23q5 -4 5 -31l-2 -13q-1 -25 -25 -56q-36 -39 -75 -51q8 -4 14 -12q6 -2 8 -6q29 -23 78 -71
q0 -1 -11 -11.5t-13 -10.5q-52 51 -102 89v-50q-1 -48 -1 -49.5t-2.5 -2t-4.5 -0.5zM262 320q86 26 95 83l1 5q0 29 -8 36l-1 4q-11 11 -28 11q-4 0 -23 -6q-27 -16 -37 -30l-3 -2l2 -35q0 -28 2 -58v-8zM308 91q44 0 83 16q7 2 11 5q29 12 48 29q21 16 29 28q59 73 59 161
q0 113 -90 190q-17 13 -46 28l-6 3q-7 4 -17 6l-9 3q-46 14 -76 14q-2 -1 -7 -1q-30 0 -39 -4q-7 0 -12 -2t-9 -2t-7 2q-3 -4 -7 -6q-59 -25 -103 -114q-3 -4 -3 -7t-2 -5q-22 -57 -23 -111q0 -57 9 -70q6 -20 13 -34q23 -58 92 -100q39 -20 49 -20q11 -5 21 -5q1 -1 5 -1
t6 -1q13 -2 31 -2zM308 58q-57 0 -121 30q-84 43 -117 128q-21 50 -21 110q0 59 24 117q24 66 71 109q36 35 67 42q5 0 7 -3q14 15 71 15q101 0 184 -64q1 -1 3 -2.5t4.5 -3.5t8 -7.5t13 -13.5t10 -12.5t10.5 -13.5q48 -73 48 -160q0 -94 -52 -164q-3 -3 -4.5 -6.5
t-6.5 -6.5q-21 -27 -44 -42q-10 -10 -19 -13q-5 -4 -11 -7q-60 -32 -125 -32z" />
    <glyph glyph-name="macron" unicode="&#xaf;" horiz-adv-x="528" 
d="M464 936l-397 1q-3 0 -3 15q0 17 4 17h397q3 0 3 -17q0 -15 -4 -16z" />
    <glyph glyph-name="degree" unicode="&#xb0;" horiz-adv-x="304" 
d="M109 877q14 0 26 6q2 0 3 1t3 2t3.5 2.5l2 2t1 0.5t1.5 1l6 7q11 11 11 39q0 20 -10 36q0 2 -6 8.5t-8 6.5v1l-6 3h1q-12 4 -15 4q-19 0 -33 -12q-9 -7 -12 -13q0 -3 -1 -4t-1.5 -2t-0.5 -2t-0.5 -1.5t-0.5 -2.5t-1.5 -2t-2.5 -1q-5 -5 -5 -7q-6 -11 -6 -23q0 -21 12 -35
l3 -2q2 -2 3 -2.5t2 -2t3.5 -2.5t3 -1.5t2.5 -0.5q10 -4 22 -4zM110 844q-28 0 -54 17q-13 12 -15 16q-1 0 -2.5 3.5t-4.5 7.5q-9 14 -9 39q0 26 21 53q1 3 1.5 5l1 4t8.5 10q0 2 6 8q26 22 48 22q5 0 6 1l27 -4l14 -7q7 -7 11 -9l1 -1q0 -1 2 -1t12 -17q15 -26 15 -52
q0 -31 -18 -59q-2 -3 -5 -5.5t-4 -5.5q-27 -25 -62 -25z" />
    <glyph glyph-name="plusminus" unicode="&#xb1;" horiz-adv-x="609" 
d="M413 200l-315 1q-1 0 -2 15q0 17 3 17h315q2 0 2 -17q0 -15 -3 -16zM266 268q-22 0 -22 6l4 248l-152 -5l-1 33q101 5 153 5l3 202q1 1 34 1l-3 -202l56 1l81 -1q3 -1 3 -18q-1 -2 -1 -6.5t-1 -6.5t-2 -2l-80 1l-57 -1l-4 -251q-1 -3 -11 -4z" />
    <glyph glyph-name="uni00B2" unicode="&#xb2;" horiz-adv-x="406" 
d="M119 675q-13 0 -22 4q-23 15 -23 34q0 21 20 52q5 6 72 102q9 9 85 138q33 68 33 86l-3 4q-4 5 -15 5q-33 0 -120 -48l-4 -1q-7 0 -7 8q0 6 12 13q75 38 87 38q2 0 7 3q15 3 22 3q15 0 26 -6q12 -12 12 -32q-1 -1 -1.5 -3t-1.5 -5q-46 -114 -157 -268q-38 -54 -41 -60
q-9 -16 -9 -28q0 -15 10 -19h1v-1l8 -2l10 -1q9 0 20 3l161 45q7 0 7 -6q0 -8 -8 -11q-164 -46 -181 -47z" />
    <glyph glyph-name="uni00B3" unicode="&#xb3;" horiz-adv-x="417" 
d="M183 637q-48 0 -74 21q-9 9 -9 10q0 8 12 9q3 0 9 -5q19 -17 62 -17l29 1q5 2 45 7q52 15 82 49q38 42 39 96l-1 15q-5 53 -50.5 90t-102.5 40l-21 -10q-9 0 -9 12l1 4q105 49 120 79q21 20 21 44q-5 18 -31 19q-30 -7 -52 -25q-6 -5 -10.5 -7.5t-5.5 -3.5
q-10 -3 -60 -49q-16 -15 -19 -15q-7 0 -11 12q102 99 155 105q54 0 54 -41q0 -22 -27 -51q-17 -26 -76 -59q63 -12 106 -60q27 -30 35 -66l4 -31q0 -31 -13 -62q-34 -76 -108 -98q-1 -1 -11 -3q-2 -2 -11 -2q-31 -7 -52 -7z" />
    <glyph glyph-name="acute" unicode="&#xb4;" horiz-adv-x="298" 
d="M34 752h-1l-10 11q-11 10 -11 13l63 66l61 74v1l22 29q3 0 14 -9t11 -11q-40 -55 -48 -64q-40 -47 -101 -110z" />
    <glyph glyph-name="periodcentered" unicode="&#xb7;" horiz-adv-x="236" 
d="M106 415q-10 0 -18 7.5t-8 17.5q0 11 8 18t18 7q11 0 18.5 -7t7.5 -18q0 -10 -7.5 -17.5t-18.5 -7.5z" />
    <glyph glyph-name="periodcentered" unicode="&#x2219;" horiz-adv-x="236" 
d="M106 415q-10 0 -18 7.5t-8 17.5q0 11 8 18t18 7q11 0 18.5 -7t7.5 -18q0 -10 -7.5 -17.5t-18.5 -7.5z" />
    <glyph glyph-name="cedilla" unicode="&#xb8;" horiz-adv-x="325" 
d="M89 0h-9q-1 1 -2.5 1t-15.5 3q-39 15 -52 40q-2 4 -4 6.5t-3 5t-3 5.5q0 5 14 9q10 3 14 3q2 0 9.5 -12.5t31.5 -24.5q3 0 6 -1.5t13 -1.5q14 0 30 10q18 15 18 28l1 1q0 45 -42 46q-21 0 -22.5 0.5t-1.5 1.5h-1l-19 12q-12 16 -12 43q0 30 9 30q9 -1 22 -7q4 -2 4 -4
q-2 -11 -2 -20q0 -15 4 -21q1 0 2 -1t3 -1t2 -1l19 1l13 -2q12 0 24 -10t21.5 -26t9.5 -33l-1 -10q0 -8 -1 -9.5t-1 -3t-1 -2.5q-3 -11 -14 -25q-26 -29 -55 -29z" />
    <glyph glyph-name="uni00B9" unicode="&#xb9;" horiz-adv-x="259" 
d="M93 744h-27l50 186q24 91 29 104l26 93q2 3 8 3q16 -1 16 -7q-20 -76 -22 -80q-6 -17 -40 -145q-6 -27 -40 -154z" />
    <glyph glyph-name="ordmasculine" unicode="&#xba;" horiz-adv-x="331" 
d="M105 754q-10 0 -16 2q-35 15 -42 60q-1 14 -3.5 21.5t-2.5 46.5q0 119 75 215l11 12q8 10 11 10q6 0 6 -9q0 -4 -3 -7q-21 -24 -39 -55q-25 -35 -40 -109q-5 -18 -5 -59q0 -85 27 -106l4 -2q0 -1 1.5 -1t2.5 -0.5t4 -1.5t7 -2q20 0 37 16q23 25 52 81q40 79 40 140
q-4 60 -23 81l-2 3q-21 20 -41 20l-10 -1q-6 0 -6 7q0 8 13 10l8 -1q17 0 38 -15q38 -36 38 -104q0 -81 -63 -185q-18 -30 -33 -46q-20 -21 -46 -21z" />
    <glyph glyph-name="guillemotright" unicode="&#xbb;" horiz-adv-x="721" 
d="M82 237q-6 0 -14 9t-8 13q0 3 206 154q-31 32 -80 63q-99 66 -123 104q-1 2 -3 3l-11 20q0 6 10 12.5t13 6.5t16 -22l12 -14q0 -1 1 -1t3 -2q10 -21 99 -79q95 -63 98 -94l-1 -2q0 -5 -0.5 -6.5t-1.5 -1.5t-2.5 -3.5t-3.5 -3.5q-4 -4 -11 -8.5t-12 -9.5zM306 236
q-6 0 -14 9t-8 13q0 2 207 154v1q-31 30 -80 62q-78 49 -114 92h-1l-1 3q-7 6 -22 32q0 5 10.5 11.5t14.5 6.5q2 0 14 -20q12 -15 13 -17t5 -4q27 -30 98 -76q52 -34 85 -66q2 -2 2 -3q8 -6 9 -15q2 -2 2 -10l-1 -1q0 -7 -5 -13t-214 -159z" />
    <glyph glyph-name="onequarter" unicode="&#xbc;" horiz-adv-x="802" 
d="M21 0q-9 0 -15 5.5t-6 11.5q125 442 284 844q49 129 73 183l26 66q4 6 11 6q8 0 13.5 -6.5t5.5 -11.5q0 -4 -19 -49q-6 -13 -12 -29q-69 -168 -69 -174l-108 -290q-99 -295 -175 -549q-1 -7 -9 -7zM23 673l21 190q5 53 30 268q2 5 18 5q11 0 11 -5l-10 -85
q-3 -18 -4.5 -40t-6.5 -46q-8 -100 -25 -243l-4 -39zM313 244l-9 1q-26 7 -26 58q17 98 48 192l41 104q6 10 28 60q16 37 21 37t10 -4t5 -8q-24 -61 -35 -78q-51 -102 -86 -253q-9 -51 -9 -62q0 -22 7 -22l2 -2q5 1 31 17q91 67 140 128q7 6 8 6q8 0 11 -8q2 -2 2 -6
q0 -1 -6 -10q-53 -59 -80 -80q-68 -60 -103 -70zM479 47q-16 0 -16 8q24 268 60 415q4 28 34 146q2 3 5 3q17 0 17 -11q-21 -72 -36 -157q-23 -96 -38 -225q-4 -46 -15 -123l-4 -52q-1 -4 -7 -4z" />
    <glyph glyph-name="onehalf" unicode="&#xbd;" horiz-adv-x="696" 
d="M21 0q-9 0 -15 5.5t-6 11.5q125 442 284 844q49 129 73 183l26 66q4 6 11 6q8 0 13.5 -6.5t5.5 -11.5q0 -4 -19 -49q-6 -13 -12 -29q-69 -168 -69 -174l-108 -290q-99 -295 -175 -549q-1 -7 -9 -7zM345 -28q-19 0 -30 5q-30 18 -30 45q0 29 26 68q8 8 101 143
q55 80 105 172q44 91 44 109q0 6 -2 6.5t-2 2.5q-6 7 -20 7q-43 0 -158 -62l-5 -2q-9 0 -9 10q0 8 15 17q79 39 96 44.5t18.5 6t3.5 1l6 1.5q19 5 29 5q51 0 51 -45q-1 -1 -1 -2t-0.5 -3t-3.5 -11q-60 -148 -206 -351q-51 -72 -54 -79q-12 -22 -12 -37q1 -21 14 -24l1 -1
q2 -2 5.5 -2t6.5 -1.5t12 -1.5q10 0 238 62q8 0 8 -9t-10 -13q-216 -60 -237 -61zM23 673l21 190q5 53 30 268q2 5 18 5q11 0 11 -5l-10 -85q-3 -18 -4.5 -40t-6.5 -46q-8 -100 -25 -243l-4 -39z" />
    <glyph glyph-name="threequarters" unicode="&#xbe;" horiz-adv-x="892" 
d="M162 0q-9 0 -15 5.5t-6 11.5q125 442 284 844q49 129 73 183l26 66q4 6 11 6q8 0 13.5 -6.5t5.5 -11.5q0 -4 -19 -49q-6 -13 -12 -29q-69 -168 -69 -174l-108 -290q-99 -295 -175 -549q-1 -7 -9 -7zM454 244l-9 1q-26 7 -26 58q17 98 48 192l41 104q6 10 28 60
q16 37 21 37t10 -4t5 -8q-24 -61 -35 -78q-51 -102 -86 -253q-9 -51 -9 -62q0 -22 7 -22l2 -2q5 1 31 17q91 67 140 128q7 6 8 6q8 0 11 -8q2 -2 2 -6q0 -1 -6 -10q-53 -59 -80 -80q-68 -60 -103 -70zM620 47q-16 0 -16 8q24 268 60 415q4 28 34 146q2 3 5 3q17 0 17 -11
q-21 -72 -36 -157q-23 -96 -38 -225q-4 -46 -15 -123l-4 -52q-1 -4 -7 -4zM83 665q-48 0 -74 21q-9 9 -9 10q0 8 12 9q3 0 9 -5q19 -17 62 -17l29 1q5 2 45 7q52 15 82 49q38 42 39 96l-1 15q-5 53 -50.5 90t-102.5 40l-21 -10q-9 0 -9 12l1 4q105 49 120 79q21 20 21 44
q-5 18 -31 19q-30 -7 -52 -25q-6 -5 -10.5 -7.5t-5.5 -3.5q-10 -3 -60 -49q-16 -15 -19 -15q-7 0 -11 12q102 99 155 105q54 0 54 -41q0 -22 -27 -51q-17 -26 -76 -59q63 -12 106 -60q27 -30 35 -66l4 -31q0 -31 -13 -62q-34 -76 -108 -98q-1 -1 -11 -3q-2 -2 -11 -2
q-31 -7 -52 -7z" />
    <glyph glyph-name="questiondown" unicode="&#xbf;" horiz-adv-x="552" 
d="M124 12q-48 3 -71 22q-1 0 -1 1v0h-2v1q-9 9 -14 19q-1 0 -3 6q-11 22 -12 87q0 24 5 53q0 20 19 78q29 90 124 239q81 122 109 196q3 2 11 29q25 72 25 135q0 64 -16 106q-3 5 -3.5 7t-0.5 3t-1 2q-5 8 -8 21q0 13 14 13t21 -14q27 -53 27 -136q0 -45 -12 -99l-2 -5
q-1 -10 -6 -21q0 -4 -4 -14q-6 -24 -10 -27q-22 -64 -79 -154q-78 -124 -89 -144q-87 -136 -92 -284l2 -22q0 -27 19 -52q18 -13 52 -13q68 0 123 49v1h1l6 6q0 2 3 4t3 2.5t6 6.5q40 45 40 118q0 23 -10 64q0 9 16 12q14 0 17 -13l3 -12q6 -12 6 -60q0 -54 -29 -104
q-12 -21 -26 -35l-19 -18q-44 -39 -109 -51q-16 -3 -33 -3zM267 1060q-10 0 -18 7.5t-8 17.5q0 11 8 18t18 7q26 0 26 -25t-26 -25z" />
    <glyph glyph-name="Agrave" unicode="&#xc0;" horiz-adv-x="1371" 
d="M242 -271q47 0 95 46q74 71 147 217q77 152 208 472q39 95 75 178h-4q-19 -2 -54 -2q-226 -19 -324 -69q-61 -21 -129 -70q-139 -99 -195 -259q-28 -80 -28 -172q0 -91 33 -178q43 -109 136 -153q8 -8 40 -10zM1182 595q170 743 170 759q-2 13 -4 16.5t-2 4.5t-3 3
q-11 11 -27 12q-34 0 -85 -38q-1 -1 -2 -1.5t-3 -2t-5 -4.5t-7 -6q-135 -123 -264 -375q-60 -119 -135 -291q19 -2 104 -7l32 -5q0 -2 26 -5q14 -1 31 -6q57 -11 72 -19q36 -8 102 -35zM975 -394q-10 0 -10 29q0 25 112 507l97 421q-16 6 -23 9.5t-61 21.5q-14 5 -29 8
q-22 5 -24 7q-7 0 -18 4q-7 0 -31 7q-34 7 -95 14q-2 2 -71 6l-21 1l-93 -223q-127 -309 -204 -459q-138 -262 -257 -262q-90 4 -154 86q-93 117 -93 289q0 65 18 143q71 257 332 377q17 9 20 9t5 1v1h1q49 18 119 38q16 3 31 7q108 24 255 26q87 200 150 322
q155 300 306 401q44 26 78 26q41 0 59 -34h1v-1q10 -17 10 -37q-1 -20 -10 -67l-162 -702q85 -35 85 -53q0 -6 -12 -6q-22 0 -62 19l-19 8l-207 -896q-12 -48 -23 -48zM1495 1497q-73 72 -150 172q0 1 4.5 5.5t9 7t8 5t4.5 2.5q87 -112 111 -133l35 -37q0 -3 -9.5 -12.5
t-12.5 -9.5z" />
    <glyph glyph-name="Aacute" unicode="&#xc1;" horiz-adv-x="1371" 
d="M242 -271q47 0 95 46q74 71 147 217q77 152 208 472q39 95 75 178h-4q-19 -2 -54 -2q-226 -19 -324 -69q-61 -21 -129 -70q-139 -99 -195 -259q-28 -80 -28 -172q0 -91 33 -178q43 -109 136 -153q8 -8 40 -10zM1182 595q170 743 170 759q-2 13 -4 16.5t-2 4.5t-3 3
q-11 11 -27 12q-34 0 -85 -38q-1 -1 -2 -1.5t-3 -2t-5 -4.5t-7 -6q-135 -123 -264 -375q-60 -119 -135 -291q19 -2 104 -7l32 -5q0 -2 26 -5q14 -1 31 -6q57 -11 72 -19q36 -8 102 -35zM975 -394q-10 0 -10 29q0 25 112 507l97 421q-16 6 -23 9.5t-61 21.5q-14 5 -29 8
q-22 5 -24 7q-7 0 -18 4q-7 0 -31 7q-34 7 -95 14q-2 2 -71 6l-21 1l-93 -223q-127 -309 -204 -459q-138 -262 -257 -262q-90 4 -154 86q-93 117 -93 289q0 65 18 143q71 257 332 377q17 9 20 9t5 1v1h1q49 18 119 38q16 3 31 7q108 24 255 26q87 200 150 322
q155 300 306 401q44 26 78 26q41 0 59 -34h1v-1q10 -17 10 -37q-1 -20 -10 -67l-162 -702q85 -35 85 -53q0 -6 -12 -6q-22 0 -62 19l-19 8l-207 -896q-12 -48 -23 -48zM1370 1511q-2 0 -10 11t-8 16l72 56l72 64v1l25 24q5 0 14 -10.5t9 -12.5l-57 -56q-39 -34 -117 -93z
" />
    <glyph glyph-name="Acircumflex" unicode="&#xc2;" horiz-adv-x="1371" 
d="M242 -271q47 0 95 46q74 71 147 217q77 152 208 472q39 95 75 178h-4q-19 -2 -54 -2q-225 -19 -324 -69q-61 -21 -129 -70q-139 -99 -195 -259q-28 -80 -28 -172q0 -91 33 -178q43 -109 136 -153q8 -8 40 -10zM1182 595q170 743 170 759q-2 13 -4 16.5t-2 4.5t-3 3
q-11 11 -27 12q-34 0 -85 -38q-1 -1 -2 -1.5t-3 -2t-5 -4.5t-7 -6q-135 -123 -264 -375q-60 -119 -135 -291q104 -7 136 -12q0 -2 26 -5q14 -1 31 -6q57 -11 72 -19q36 -8 102 -35zM975 -394q-10 0 -10 29q0 18 6 47l203 881q-16 6 -23 9.5t-61 21.5q-14 5 -29 8
q-22 5 -24 7q-7 0 -18 4q-7 0 -31 7q-34 7 -95 14q-3 3 -92 7l-93 -223q-127 -309 -204 -459q-138 -262 -257 -262q-90 4 -154 86q-93 117 -93 289q0 65 18 143q71 257 332 377q17 9 20 9t5 1v1h1q49 18 119 38q16 3 31 7q108 24 255 26q87 200 150 322q155 300 306 401
q44 26 78 26q41 0 59 -34h1v-1q10 -17 10 -37q-1 -20 -10 -67l-162 -702q85 -36 85 -53q0 -6 -12 -6q-22 0 -62 19l-19 8l-207 -896q-12 -48 -23 -48zM1518 1495h-2q-26 54 -49 128l-6 15l-3 1q-4 0 -24 -10q-3 -3 -114 -65l-15 -8q-5 2 -10 12.5t-5 13.5t138 80q15 9 30 9
q33 -4 40 -36q23 -77 44 -118l3 -10q-1 -4 -11.5 -8t-15.5 -4z" />
    <glyph glyph-name="Atilde" unicode="&#xc3;" horiz-adv-x="1371" 
d="M242 -271q47 0 95 46q74 71 147 217q77 152 208 472q39 95 75 178h-4q-19 -2 -54 -2q-226 -19 -324 -69q-61 -21 -129 -70q-139 -99 -195 -259q-28 -80 -28 -172q0 -91 33 -178q43 -109 136 -153q8 -8 40 -10zM1182 595q170 743 170 759q-2 13 -4 16.5t-2 4.5t-3 3
q-11 11 -27 12q-34 0 -85 -38q-1 -1 -2 -1.5t-3 -2t-5 -4.5t-7 -6q-135 -123 -264 -375q-60 -119 -135 -291q19 -2 104 -7l32 -5q0 -2 26 -5q14 -1 31 -6q57 -11 72 -19q36 -8 102 -35zM975 -394q-10 0 -10 29q0 25 112 507l97 421q-16 6 -23 9.5t-61 21.5q-14 5 -29 8
q-22 5 -24 7q-7 0 -18 4q-7 0 -31 7q-34 7 -95 14q-2 2 -71 6l-21 1l-93 -223q-127 -309 -204 -459q-138 -262 -257 -262q-90 4 -154 86q-93 117 -93 289q0 65 18 143q71 257 332 377q17 9 20 9t5 1v1h1q49 18 119 38q16 3 31 7q108 24 255 26q87 200 150 322
q155 300 306 401q44 26 78 26q41 0 59 -34h1v-1q10 -17 10 -37q-1 -20 -10 -67l-162 -702q85 -35 85 -53q0 -6 -12 -6q-22 0 -62 19l-19 8l-207 -896q-12 -48 -23 -48zM1544 1567h-4q-2 0 -22 20q2 0 2 7q0 12 -16 19l-1 1h-4v1l-9 1q-18 0 -43 -10q-9 -4 -11.5 -4.5t-4 -1
t-3.5 -0.5q-27 -10 -91 -16q-14 0 -44 6q-5 1 -26 17q-13 15 -13 37q0 10 7 22q12 0 25 -17q0 -21 17 -27v-1h4v-1q17 -3 27 -3q24 0 29 2t9 2q14 1 64 16q32 11 57 11q8 0 13 -1t8 -2.5t4.5 -2t2.5 -0.5q32 -22 32 -52l-3 -14q-3 -2 -3 -3.5t-3 -5.5z" />
    <glyph glyph-name="Adieresis" unicode="&#xc4;" horiz-adv-x="1371" 
d="M242 -271q47 0 95 46q74 71 147 217q77 152 208 472q39 95 75 178h-4q-19 -2 -54 -2q-225 -19 -324 -69q-61 -21 -129 -70q-139 -99 -195 -259q-28 -80 -28 -172q0 -91 33 -178q43 -109 136 -153q8 -8 40 -10zM1182 595q170 743 170 759q-2 13 -4 16.5t-2 4.5t-3 3
q-11 11 -27 12q-34 0 -85 -38q-1 -1 -2 -1.5t-3 -2t-5 -4.5t-7 -6q-135 -123 -264 -375q-60 -119 -135 -291q104 -7 136 -12q0 -2 26 -5q14 -1 31 -6q57 -11 72 -19q36 -8 102 -35zM975 -394q-10 0 -10 29q0 18 6 47l203 881q-16 6 -23 9.5t-61 21.5q-14 5 -29 8
q-22 5 -24 7q-7 0 -18 4q-7 0 -31 7q-34 7 -95 14q-3 3 -92 7l-93 -223q-127 -309 -204 -459q-138 -262 -257 -262q-90 4 -154 86q-93 117 -93 289q0 65 18 143q71 257 332 377q17 9 20 9t5 1v1h1q49 18 119 38q16 3 31 7q108 24 255 26q87 200 150 322q155 300 306 401
q44 26 78 26q41 0 59 -34h1v-1q10 -17 10 -37q-1 -20 -10 -67l-162 -702q85 -36 85 -53q0 -6 -12 -6q-22 0 -62 19l-19 8l-207 -896q-12 -48 -23 -48zM1368 1587q-22 0 -35 18q-5 9 -5 18q4 38 37 38q23 0 34 -19q5 -9 5 -18q0 -22 -18 -33q-9 -4 -18 -4zM1473 1559
q-22 0 -33 19q-6 10 -6 20q4 35 37 35q23 0 35 -18q5 -9 5 -18q-4 -38 -38 -38z" />
    <glyph glyph-name="Aring" unicode="&#xc5;" horiz-adv-x="1371" 
d="M242 -271q47 0 95 46q74 71 147 217q77 152 208 472q39 95 75 178h-4q-19 -2 -54 -2q-226 -19 -324 -69q-61 -21 -129 -70q-139 -99 -195 -259q-28 -80 -28 -172q0 -91 33 -178q43 -109 136 -153q8 -8 40 -10zM1182 595q170 743 170 759q-2 13 -4 16.5t-2 4.5t-3 3
q-11 11 -27 12q-34 0 -85 -38q-1 -1 -2 -1.5t-3 -2t-5 -4.5t-7 -6q-135 -123 -264 -375q-60 -119 -135 -291q19 -2 104 -7l32 -5q0 -2 26 -5q14 -1 31 -6q57 -11 72 -19q36 -8 102 -35zM975 -394q-10 0 -10 29q0 25 112 507l97 421q-16 6 -23 9.5t-61 21.5q-14 5 -29 8
q-22 5 -24 7q-7 0 -18 4q-7 0 -31 7q-34 7 -95 14q-2 2 -71 6l-21 1l-93 -223q-127 -309 -204 -459q-138 -262 -257 -262q-90 4 -154 86q-93 117 -93 289q0 65 18 143q71 257 332 377q17 9 20 9t5 1v1h1q49 18 119 38q16 3 31 7q108 24 255 26q87 200 150 322
q155 300 306 401q44 26 78 26q41 0 59 -34h1v-1q10 -17 10 -37q-1 -20 -10 -67l-162 -702q85 -35 85 -53q0 -6 -12 -6q-22 0 -62 19l-19 8l-207 -896q-12 -48 -23 -48zM1415 1571q9 0 18 4q5 0 5 1.5t2 3.5q14 8 14 32q0 14 -7 24q0 1 -9 10v1l-14 5q-21 0 -30 -17
q-1 -3 -1.5 -3.5t-0.5 -2.5t-2 -4h-1q-4 -4 -4 -5q-4 -7 -4 -15q0 -15 8 -24l8 -6l4 -1q7 -3 14 -3zM1416 1549q-25 0 -46 21q-2 2 -2.5 4t-2.5 5q-6 8 -6 26q0 17 14 35q1 2 1.5 3.5t0.5 3.5t6 6q0 2 4 6q17 14 32 14l4 1l18 -3l2 -1l9 -5l6 -5q0 -1 1.5 -1t3.5 -3.5
t5 -7.5q10 -18 10 -35q0 -30 -16 -44q-2 -2 -2 -3q-18 -17 -42 -17z" />
    <glyph glyph-name="AE" unicode="&#xc6;" horiz-adv-x="2415" 
d="M242 -271q47 0 95 46q74 71 147 217q77 152 208 472q39 95 75 178h-4q-19 -2 -54 -2q-226 -19 -324 -69q-61 -21 -129 -70q-139 -99 -195 -259q-28 -80 -28 -172q0 -91 33 -178q43 -109 136 -153q8 -8 40 -10zM1182 595q170 743 170 759q-2 13 -4 16.5t-2 4.5t-3 3
q-11 11 -27 12q-34 0 -85 -38q-1 -1 -2 -1.5t-3 -2t-5 -4.5t-7 -6q-135 -123 -264 -375q-60 -118 -135 -291q104 -7 136 -12q0 -2 26 -5q14 -1 31 -6q57 -11 72 -19q36 -8 102 -35zM975 -394q-10 0 -10 29q0 18 6 47l203 881q-16 6 -23 9.5t-61 21.5q-14 5 -29 8
q-22 5 -24 7q-7 0 -18 4q-7 0 -31 7q-34 7 -95 14q-3 3 -92 7l-93 -223q-127 -309 -204 -459q-138 -262 -257 -262q-90 4 -154 86q-93 117 -93 289q0 65 18 143q71 257 332 377q17 9 20 9t5 1v1h1q49 18 119 38q16 3 31 7q108 24 255 26q87 200 150 322q155 300 306 401
q44 26 78 26q41 0 59 -34h1v-1q10 -17 10 -37q-1 -20 -10 -67l-31 -136q57 64 168 112q24 11 32 12q102 37 168 54q35 94 48 94q14 0 14 -20q0 -7 -24 -65q11 2 21 5q36 9 76 17q249 48 441 64l201 18q12 0 12 -15q0 -16 -13 -18l-201 -18q-325 -31 -549 -90
q-39 -114 -153 -637q36 16 149 50q3 0 17 4q147 35 336 55q7 0 7 -13q0 -18 -6 -20q-283 -30 -426 -83l-85 -32q-139 -639 -144 -714q0 -34 1 -37q0 -22 16 -46q26 -37 93 -37q122 0 303 90q195 92 312 187q20 17 26 17q12 -2 12 -14q0 -13 -13 -25l-86 -63
q-111 -72 -245 -135q-184 -90 -310 -90q-46 0 -80 17q-13 8 -13 9q-4 0 -17 15q-21 23 -21 33q-3 6 -4 12q-7 8 -7 57q6 104 139 708q-32 -16 -43 -20q-4 0 -10 12q-3 6 -3 13q0 3 64 35q119 533 153 642q-183 -51 -264 -104q-70 -43 -96 -96q-16 -28 -17 -45q-1 -6 -6 -9
l-104 -452q85 -36 85 -53q0 -6 -12 -6q-22 0 -62 19l-19 8l-207 -896q-12 -48 -23 -48z" />
    <glyph glyph-name="Ccedilla" unicode="&#xc7;" horiz-adv-x="964" 
d="M326 -521h-9q-1 1 -2.5 1t-15.5 3q-38 14 -52 40q-2 4 -4 6.5t-2.5 4t-1.5 1.5l-2 5q0 5 14 9q10 3 14 3q2 0 9 -11.5t26 -22.5q8 -4 9.5 -4t3.5 -1t12 -1q14 0 30 10q18 15 18 28l1 1q0 45 -42 46q-24 0 -24 2h-1l-19 12q-12 18 -12 50q-17 1 -31 4q-31 1 -93 46v1
q-1 0 -2 0.5t-23 21.5q-127 133 -127 457q0 99 12 214q30 302 133 549q145 354 386 432q52 16 104 16l45 -1q110 -22 158 -123q42 -80 42 -175q0 -109 -66 -241q-33 -47 -35 -52q-16 -17 -25 -17q-7 0 -8 12q0 20 28 57q40 58 65 157q8 34 8 83q0 134 -75 215
q-51 53 -128 53q-6 0 -8 -1q-47 0 -91 -13q-185 -58 -308 -285q-27 -45 -47 -94q-12 -22 -20 -46q-97 -241 -126 -527q-12 -112 -12 -208q0 -202 51 -332q39 -91 93 -129q25 -19 26 -19t2 -1q32 -21 81 -21q53 0 133 65l70 62q43 45 69 71q0 1 0.5 1.5l1.5 1.5l21 23
q79 95 121 160q13 18 13 18.5t12.5 19.5t16.5 19l6 -1q8 0 8 -13q0 -18 -22 -52q-58 -98 -200 -248l-94 -86q-35 -28 -63 -45t-68 -26l-1 -5q0 -21 4 -27q1 0 2 -1t3 -1t2 -1l19 1l13 -2q12 0 24 -10t21.5 -26t9.5 -33q0 -18 -1.5 -19t-1.5 -3q0 -9 -15 -28q-26 -29 -55 -29
z" />
    <glyph glyph-name="Egrave" unicode="&#xc8;" horiz-adv-x="1087" 
d="M217 -245q-46 0 -80 17q-13 8 -13 9q-4 0 -17 15q-21 23 -21 33q-3 6 -4 12q-7 8 -7 57q6 104 139 708q-10 -4 -17 -9l-26 -11q-4 0 -10 12q-3 6 -3 13q0 3 64 35q123 549 153 642q-181 -49 -264 -104q-70 -43 -96 -96q-16 -28 -17 -45q-2 -11 -13 -11q-10 0 -16 8
q-4 4 -4 8q32 130 222 212q24 11 32 12q100 36 168 54q17 44 33 80q8 14 15 14q14 0 14 -20q0 -7 -9 -29l-15 -36q45 12 97 22q249 48 441 64l201 18q12 0 12 -15q0 -16 -13 -18l-201 -18q-325 -31 -549 -90q-24 -71 -49 -179q-21 -76 -104 -458q36 16 149 50q3 0 17 4
q147 35 336 55q7 0 7 -13q0 -18 -6 -20q-283 -30 -426 -83q-51 -17 -85 -32q-60 -273 -91 -428q-50 -238 -53 -286q0 -34 1 -37q0 -22 16 -46q26 -37 93 -37q122 0 303 90q195 92 312 187q20 17 26 17q12 -2 12 -14q0 -13 -13 -25l-86 -63q-111 -72 -245 -135
q-184 -90 -310 -90zM716 1524q-73 72 -150 172q0 1 4.5 5.5t9 7t8 5t4.5 2.5q87 -112 111 -133l35 -37q0 -3 -9.5 -12.5t-12.5 -9.5z" />
    <glyph glyph-name="Eacute" unicode="&#xc9;" horiz-adv-x="1087" 
d="M217 -245q-46 0 -80 17q-13 8 -13 9q-4 0 -17 15q-21 23 -21 33q-3 6 -4 12q-7 8 -7 57q6 104 139 708q-10 -4 -17 -9l-26 -11q-4 0 -10 12q-3 6 -3 13q0 3 64 35q123 549 153 642q-181 -49 -264 -104q-70 -43 -96 -96q-16 -28 -17 -45q-2 -11 -13 -11q-10 0 -16 8
q-4 4 -4 8q32 130 222 212q24 11 32 12q100 36 168 54q17 44 33 80q8 14 15 14q14 0 14 -20q0 -7 -9 -29l-15 -36q45 12 97 22q249 48 441 64l201 18q12 0 12 -15q0 -16 -13 -18l-201 -18q-325 -31 -549 -90q-24 -71 -49 -179q-21 -76 -104 -458q36 16 149 50q3 0 17 4
q147 35 336 55q7 0 7 -13q0 -18 -6 -20q-283 -30 -426 -83q-51 -17 -85 -32q-60 -273 -91 -428q-50 -238 -53 -286q0 -34 1 -37q0 -22 16 -46q26 -37 93 -37q122 0 303 90q195 92 312 187q20 17 26 17q12 -2 12 -14q0 -13 -13 -25l-86 -63q-111 -72 -245 -135
q-184 -90 -310 -90zM575 1526q-2 0 -10 11t-8 16l72 56l72 64v1l25 24q5 0 14 -10.5t9 -12.5l-57 -56q-39 -34 -117 -93z" />
    <glyph glyph-name="Ecircumflex" unicode="&#xca;" horiz-adv-x="1087" 
d="M217 -245q-46 0 -80 17q-13 8 -13 9q-4 0 -17 15q-21 23 -21 33q-3 6 -4 12q-7 8 -7 57q6 104 139 708q-10 -4 -17 -9l-26 -11q-4 0 -10 12q-3 6 -3 13q0 3 64 35q123 549 153 642q-181 -49 -264 -104q-70 -43 -96 -96q-16 -28 -17 -45q-2 -11 -13 -11q-10 0 -16 8
q-4 4 -4 8q32 130 222 212q24 11 32 12q100 36 168 54q17 44 33 80q8 14 15 14q14 0 14 -20q0 -7 -9 -29l-15 -36q45 12 97 22q249 48 441 64l201 18q12 0 12 -15q0 -16 -13 -18l-201 -18q-325 -31 -549 -90q-24 -71 -49 -179q-21 -76 -104 -458q36 16 149 50q3 0 17 4
q147 35 336 55q7 0 7 -13q0 -18 -6 -20q-283 -30 -426 -83q-51 -17 -85 -32q-60 -273 -91 -428q-50 -238 -53 -286q0 -34 1 -37q0 -22 16 -46q26 -37 93 -37q122 0 303 90q195 92 312 187q20 17 26 17q12 -2 12 -14q0 -13 -13 -25l-86 -63q-111 -72 -245 -135
q-184 -90 -310 -90zM587 1529q-11 0 -22 21q0 2 110 116q13 14 35 19q26 -1 40 -25q44 -67 76 -101l5 -9q0 -7 -22 -19h-2q-40 44 -84 109l-10 12q-7 0 -23 -16q-1 -3 -51 -54z" />
    <glyph glyph-name="Edieresis" unicode="&#xcb;" horiz-adv-x="1087" 
d="M217 -245q-46 0 -80 17q-13 8 -13 9q-4 0 -17 15q-21 23 -21 33q-3 6 -4 12q-7 8 -7 57q6 104 139 708q-10 -4 -17 -9l-26 -11q-4 0 -10 12q-3 6 -3 13q0 3 64 35q123 549 153 642q-181 -49 -264 -104q-70 -43 -96 -96q-16 -28 -17 -45q-2 -11 -13 -11q-10 0 -16 8
q-4 4 -4 8q32 130 222 212q24 11 32 12q100 36 168 54q17 44 33 80q8 14 15 14q14 0 14 -20q0 -7 -9 -29l-15 -36q45 12 97 22q249 48 441 64l201 18q12 0 12 -15q0 -16 -13 -18l-201 -18q-325 -31 -549 -90q-24 -71 -49 -179q-21 -76 -104 -458q36 16 149 50q3 0 17 4
q147 35 336 55q7 0 7 -13q0 -18 -6 -20q-283 -30 -426 -83q-51 -17 -85 -32q-60 -273 -91 -428q-50 -238 -53 -286q0 -34 1 -37q0 -22 16 -46q26 -37 93 -37q122 0 303 90q195 92 312 187q20 17 26 17q12 -2 12 -14q0 -13 -13 -25l-86 -63q-111 -72 -245 -135
q-184 -90 -310 -90zM656 1552q-27 0 -35 25q-2 6 -2 12q0 27 27 35q7 2 13 2q14 0 25.5 -11t11.5 -28q0 -13 -10 -24t-30 -11zM765 1556q-13 0 -24.5 11t-11.5 27q0 36 40 36q27 0 35 -25q2 -6 2 -12q0 -27 -28 -35q-7 -2 -13 -2z" />
    <glyph glyph-name="Igrave" unicode="&#xcc;" horiz-adv-x="460" 
d="M61 -457q-16 0 -16 24q0 6 94 422q124 570 229 1151q27 150 33 213q-27 -15 -70 -49q-82 -64 -159 -143q-61 -61 -87 -110q-28 -55 -48 -140q0 -4 -1 -9t-1 -11q-2 -4 -2 -37l-1 -7q2 -2 3 -32q11 -67 24 -89l14 -34q0 -10 -11 -11q-10 0 -20 10q-4 0 -24 47l-1 6
q-13 38 -16 74l-1 55l1 8q0 12 2 18q2 20 3 21q0 41 40 125q31 69 109 145q73 75 163 145q75 59 96 59q17 0 21 -21q-10 -125 -82 -494q-157 -818 -277 -1316q-6 -20 -15 -20zM502 1512q-73 72 -150 172q0 1 4.5 5.5t9 7t8 5t4.5 2.5q87 -112 111 -133l35 -37
q0 -3 -9.5 -12.5t-12.5 -9.5z" />
    <glyph glyph-name="Iacute" unicode="&#xcd;" horiz-adv-x="460" 
d="M61 -457q-16 0 -16 24q0 6 94 422q124 570 229 1151q27 150 33 213q-27 -15 -70 -49q-82 -64 -159 -143q-61 -61 -87 -110q-28 -55 -48 -140q0 -4 -1 -9t-1 -11q-2 -4 -2 -37l-1 -7q2 -2 3 -32q11 -67 24 -89l14 -34q0 -10 -11 -11q-10 0 -20 10q-4 0 -24 47l-1 6
q-13 38 -16 74l-1 55l1 8q0 12 2 18q2 20 3 21q0 41 40 125q31 69 109 145q73 75 163 145q75 59 96 59q17 0 21 -21q-10 -125 -82 -494q-157 -818 -277 -1316q-6 -20 -15 -20zM342 1526q-2 0 -10 11t-8 16l72 56l72 64v1l25 24q5 0 14 -10.5t9 -12.5l-57 -56
q-39 -34 -117 -93z" />
    <glyph glyph-name="Icircumflex" unicode="&#xce;" horiz-adv-x="460" 
d="M61 -457q-16 0 -16 24q0 6 94 422q124 570 229 1151q27 150 33 213q-27 -15 -70 -49q-82 -64 -159 -143q-61 -61 -87 -110q-28 -55 -48 -140q0 -4 -1 -9t-1 -11q-2 -4 -2 -37l-1 -7q2 -2 3 -32q11 -67 24 -89l14 -34q0 -10 -11 -11q-10 0 -20 10q-4 0 -24 47l-1 6
q-13 38 -16 74l-1 55l1 8q0 12 2 18q2 20 3 21q0 41 40 125q31 69 109 145q73 75 163 145q75 59 96 59q17 0 21 -21q-10 -125 -82 -494q-157 -818 -277 -1316q-6 -20 -15 -20zM281 1517q-11 0 -22 21q0 2 110 116q13 14 35 19q26 -1 40 -25q44 -67 76 -101l5 -9
q0 -7 -22 -19h-2q-40 44 -84 109l-10 12q-7 0 -23 -16q-1 -3 -51 -54z" />
    <glyph glyph-name="Idieresis" unicode="&#xcf;" horiz-adv-x="460" 
d="M61 -457q-16 0 -16 24q0 6 94 422q124 570 229 1151q27 150 33 213q-27 -15 -70 -49q-82 -64 -159 -143q-61 -61 -87 -110q-28 -55 -48 -140q0 -4 -1 -9t-1 -11q-2 -4 -2 -37l-1 -7q2 -2 3 -32q11 -67 24 -89l14 -34q0 -10 -11 -11q-10 0 -20 10q-4 0 -24 47l-1 6
q-13 38 -16 74l-1 55l1 8q0 12 2 18q2 20 3 21q0 41 40 125q31 69 109 145q73 75 163 145q75 59 96 59q17 0 21 -21q-10 -125 -82 -494q-157 -818 -277 -1316q-6 -20 -15 -20zM366 1560q-27 0 -35 25q-2 6 -2 12q0 27 27 35q7 2 13 2q14 0 25.5 -11t11.5 -28q0 -13 -10 -24
t-30 -11zM475 1564q-13 0 -24.5 11t-11.5 27q0 36 40 36q27 0 35 -25q2 -6 2 -12q0 -27 -28 -35q-7 -2 -13 -2z" />
    <glyph glyph-name="Eth" unicode="&#xd0;" horiz-adv-x="1236" 
d="M201 -169q122 0 256 54q92 39 153 78l42 27q2 0 34 24q6 3 12 9l3 2q2 1 50 40q98 86 175 190q15 26 22 32q25 41 49 83q65 119 99 258q14 58 27 170l3 95q-2 114 -28 206q-21 57 -36 86q-59 103 -151 145q-47 22 -107 22q-76 -3 -149 -36q-8 -5 -22 -11
q-55 -32 -204 -155l-134 -617q55 -1 90 -3t50 -2q11 0 139 -7q2 -1 2 -6q0 -4 -1 -6.5t-1 -3.5q-3 -12 -11 -17q-147 9 -274 12l-136 -666q23 -3 48 -3zM104 -350q-18 0 -18 20l28 139q-65 13 -122 47q-17 12 -17 21q0 10 13 10q18 0 32 -10q47 -26 101 -37l134 661l-176 -1
q-6 0 -6 16q0 14 6 17l113 1q28 -1 70 -1l7 35l120 548l-60 -52q-13 -11 -21 -11q-10 0 -10 11q0 17 17 31l26 22v1h1l59 51l63 289q3 12 11 13q19 0 19 -21l-54 -249q83 68 165 126q14 7 23.5 12.5t13 6.5t9.5 4q81 34 157 34q39 0 82 -12q4 0 5 -1t2.5 -1t3.5 -1
q81 -31 137 -93q32 -34 42 -57q11 -16 12 -21q64 -124 67 -307q-5 -231 -73 -406q-3 -5 -5 -11q-70 -179 -183 -306q-18 -21 -22 -26.5t-31 -32.5q-13 -16 -53 -51l-14 -13l-33 -27q-56 -43 -82 -60q-34 -22 -112 -66l-89 -39q-136 -54 -253 -54q-31 0 -62 4l-29 -140
q-3 -13 -14 -13z" />
    <glyph glyph-name="Ntilde" unicode="&#xd1;" horiz-adv-x="1127" 
d="M865 -380q-6 0 -11 8q-8 12 -8 34q3 354 61 784q36 230 48 283q28 138 28 219q0 93 -26 149q-33 70 -88 77q-4 0 -5 1q-52 0 -118 -49q-5 -3 -7.5 -5.5t-3.5 -2.5q-166 -119 -295 -370q-49 -91 -150 -327q-190 -440 -250 -739l-2 -7l-7 -35q-3 -12 -12 -12q-19 0 -19 25
q92 446 182 893l195 889q3 13 13 13q8 0 13 -6t5 -14l-195 -896l-90 -441q54 150 141 354q69 161 118 262q122 246 267 382l46 40q24 18 49 35q62 44 110 44q55 -2 91 -38q71 -70 71 -222q0 -79 -28 -222q-2 -7 -50 -294q0 -10 -9 -71q-33 -258 -46 -534q0 -31 -2 -58
q-2 -32 -2 -85q0 -18 -1 -35q-1 -29 -13 -29zM998 1302h-4q-2 0 -22 20q2 0 2 7q0 12 -16 19l-1 1h-4v1l-9 1q-18 0 -43 -10q-9 -4 -11.5 -4.5t-4 -1t-3.5 -0.5q-27 -10 -91 -16q-14 0 -44 6q-5 1 -26 17q-13 15 -13 37q0 10 7 22q12 0 25 -17q0 -21 17 -27v-1h4v-1
q17 -3 27 -3q24 0 29 2t9 2q14 1 64 16q32 11 57 11q8 0 13 -1t8 -2.5t4.5 -2t2.5 -0.5q32 -22 32 -52l-3 -14q-3 -2 -3 -3.5t-3 -5.5z" />
    <glyph glyph-name="Ograve" unicode="&#xd2;" horiz-adv-x="959" 
d="M322 -213q1 1 5 1q152 18 265 244q42 84 91 206q76 207 110 424q22 164 22 282l-1 81q-1 5 -1 11q0 119 -54 208q-65 93 -157 95q-12 0 -40 -5q-73 -20 -122 -76q-18 -20 -36 -43q14 2 30 2q44 0 71 -20q9 -6 16.5 -11.5t13 -16t5.5 -15.5q0 -10 -7 -11q-4 0 -14 7l-8 5
q-10 5 -13 9q-30 18 -68 21q-28 0 -50 -11l-6 -2q-96 -160 -96 -451q0 -253 85 -339q31 -31 31 -39q0 -7 -10 -7q-22 0 -49 29q-88 98 -90 341q0 258 65 412q-26 -33 -54 -84q-5 -11 -26 -47l-19 -39q-19 -38 -24 -50q-6 -18 -26 -58q-89 -212 -113 -392l-1 -2q0 -5 -1 -9
t-1 -7.5t-1 -4.5q-8 -74 -11 -149q0 -114 5 -134q0 -12 7 -54q17 -134 99 -226l40 -34q57 -41 138 -41zM308 -246q-79 0 -154 55l-3 3q-29 23 -59 60q-9 17 -14 21q-12 18 -27 52q-31 71 -41 155q0 3 -1 5q-4 28 -4 38l-1 17q-4 20 -4 118q1 5 1 24q11 253 117 520
q2 3 19 44q84 180 94 190q31 62 83 114q7 5 13 11q3 0 23 15q24 40 52 70q94 106 200 106q95 -3 162 -81q33 -38 39 -58q3 -6 4.5 -8t3.5 -12q36 -72 36 -218q0 -184 -23 -345q-36 -235 -138 -493l-3 -6q-4 -8 -8 -20q-52 -113 -57 -119q-15 -37 -66 -108
q-79 -109 -181 -141q-34 -9 -63 -9zM717 1524q-73 72 -150 172q0 1 4.5 5.5t9 7t8 5t4.5 2.5q87 -112 111 -133l35 -37q0 -3 -9.5 -12.5t-12.5 -9.5z" />
    <glyph glyph-name="Oacute" unicode="&#xd3;" horiz-adv-x="959" 
d="M322 -213q1 1 5 1q152 18 265 244q42 84 91 206q76 207 110 424q22 164 22 282l-1 81q-1 5 -1 11q0 119 -54 208q-65 93 -157 95q-12 0 -40 -5q-73 -20 -122 -76q-18 -20 -36 -43q14 2 30 2q44 0 71 -20q9 -6 16.5 -11.5t13 -16t5.5 -15.5q0 -10 -7 -11q-4 0 -14 7l-8 5
q-10 5 -13 9q-30 18 -68 21q-28 0 -50 -11l-6 -2q-96 -160 -96 -451q0 -253 85 -339q31 -31 31 -39q0 -7 -10 -7q-22 0 -49 29q-88 98 -90 341q0 258 65 412q-26 -33 -54 -84q-5 -11 -26 -47l-19 -39q-19 -38 -24 -50q-6 -18 -26 -58q-89 -212 -113 -392l-1 -2q0 -5 -1 -9
t-1 -7.5t-1 -4.5q-8 -74 -11 -149q0 -114 5 -134q0 -12 7 -54q17 -134 99 -226l40 -34q57 -41 138 -41zM308 -246q-79 0 -154 55l-3 3q-29 23 -59 60q-9 17 -14 21q-12 18 -27 52q-31 71 -41 155q0 3 -1 5q-4 28 -4 38l-1 17q-4 20 -4 118q1 5 1 24q11 253 117 520
q2 3 19 44q84 180 94 190q31 62 83 114q7 5 13 11q3 0 23 15q24 40 52 70q94 106 200 106q95 -3 162 -81q33 -38 39 -58q3 -6 4.5 -8t3.5 -12q36 -72 36 -218q0 -184 -23 -345q-36 -235 -138 -493l-3 -6q-4 -8 -8 -20q-52 -113 -57 -119q-15 -37 -66 -108
q-79 -109 -181 -141q-34 -9 -63 -9zM576 1526q-2 0 -10 11t-8 16l72 56l72 64v1l25 24q5 0 14 -10.5t9 -12.5l-57 -56q-39 -34 -117 -93z" />
    <glyph glyph-name="Ocircumflex" unicode="&#xd4;" horiz-adv-x="959" 
d="M322 -213q1 1 5 1q152 18 265 244q42 84 91 206q76 207 110 424q22 164 22 282l-1 81q-1 5 -1 11q0 119 -54 208q-65 93 -157 95q-12 0 -40 -5q-73 -20 -122 -76q-18 -20 -36 -43q14 2 30 2q44 0 71 -20q9 -6 16.5 -11.5t13 -16t5.5 -15.5q0 -10 -7 -11q-4 0 -14 7l-8 5
q-10 5 -13 9q-30 18 -68 21q-28 0 -50 -11l-6 -2q-96 -160 -96 -451q0 -253 85 -339q31 -31 31 -39q0 -7 -10 -7q-22 0 -49 29q-88 98 -90 341q0 258 65 412q-26 -33 -54 -84q-5 -11 -26 -47l-19 -39q-19 -38 -24 -50q-6 -18 -26 -58q-89 -212 -113 -392l-1 -2q0 -5 -1 -9
t-1 -7.5t-1 -4.5q-8 -74 -11 -149q0 -114 5 -134q0 -12 7 -54q17 -134 99 -226l40 -34q57 -41 138 -41zM308 -246q-79 0 -154 55l-3 3q-29 23 -59 60q-9 17 -14 21q-12 18 -27 52q-31 71 -41 155q0 3 -1 5q-4 28 -4 38l-1 17q-4 20 -4 118q1 5 1 24q11 253 117 520
q2 3 19 44q84 180 94 190q31 62 83 114q7 5 13 11q3 0 23 15q24 40 52 70q94 106 200 106q95 -3 162 -81q33 -38 39 -58q3 -6 4.5 -8t3.5 -12q36 -72 36 -218q0 -184 -23 -345q-36 -235 -138 -493l-3 -6q-4 -8 -8 -20q-52 -113 -57 -119q-15 -37 -66 -108
q-79 -109 -181 -141q-34 -9 -63 -9zM588 1529q-11 0 -22 21q0 2 110 116q13 14 35 19q26 -1 40 -25q44 -67 76 -101l5 -9q0 -7 -22 -19h-2q-40 44 -84 109l-10 12q-7 0 -23 -16q-1 -3 -51 -54z" />
    <glyph glyph-name="Otilde" unicode="&#xd5;" horiz-adv-x="959" 
d="M322 -213q1 1 5 1q152 18 265 244q42 84 91 206q76 207 110 424q22 164 22 282l-1 81q-1 5 -1 11q0 119 -54 208q-65 93 -157 95q-12 0 -40 -5q-73 -20 -122 -76q-18 -20 -36 -43q14 2 30 2q44 0 71 -20q9 -6 16.5 -11.5t13 -16t5.5 -15.5q0 -10 -7 -11q-4 0 -14 7l-8 5
q-10 5 -13 9q-30 18 -68 21q-28 0 -50 -11l-6 -2q-96 -160 -96 -451q0 -253 85 -339q31 -31 31 -39q0 -7 -10 -7q-22 0 -49 29q-88 98 -90 341q0 258 65 412q-26 -33 -54 -84q-5 -11 -26 -47l-19 -39q-19 -38 -24 -50q-6 -18 -26 -58q-89 -212 -113 -392l-1 -2q0 -5 -1 -9
t-1 -7.5t-1 -4.5q-8 -74 -11 -149q0 -114 5 -134q0 -12 7 -54q17 -134 99 -226l40 -34q57 -41 138 -41zM308 -246q-79 0 -154 55l-3 3q-29 23 -59 60q-9 17 -14 21q-12 18 -27 52q-31 71 -41 155q0 3 -1 5q-4 28 -4 38l-1 17q-4 20 -4 118q1 5 1 24q11 253 117 520
q2 3 19 44q84 180 94 190q31 62 83 114q7 5 13 11q3 0 23 15q24 40 52 70q94 106 200 106q95 -3 162 -81q33 -38 39 -58q3 -6 4.5 -8t3.5 -12q36 -72 36 -218q0 -184 -23 -345q-36 -235 -138 -493l-3 -6q-4 -8 -8 -20q-52 -113 -57 -119q-15 -37 -66 -108
q-79 -109 -181 -141q-34 -9 -63 -9zM831 1563h-4q-2 0 -22 20q2 0 2 7q0 12 -16 19l-1 1h-4v1l-9 1q-18 0 -43 -10q-9 -4 -11.5 -4.5t-4 -1t-3.5 -0.5q-27 -10 -91 -16q-14 0 -44 6q-5 1 -26 17q-13 15 -13 37q0 10 7 22q12 0 25 -17q0 -21 17 -27v-1h4v-1q17 -3 27 -3
q24 0 29 2t9 2q14 1 64 16q32 11 57 11q8 0 13 -1t8 -2.5t4.5 -2t2.5 -0.5q32 -22 32 -52l-3 -14q-3 -2 -3 -3.5t-3 -5.5z" />
    <glyph glyph-name="Odieresis" unicode="&#xd6;" horiz-adv-x="959" 
d="M322 -213q1 1 5 1q152 18 265 244q42 84 91 206q76 207 110 424q22 164 22 282l-1 81q-1 5 -1 11q0 119 -54 208q-65 93 -157 95q-12 0 -40 -5q-73 -20 -122 -76q-18 -20 -36 -43q14 2 30 2q44 0 71 -20q9 -6 16.5 -11.5t13 -16t5.5 -15.5q0 -10 -7 -11q-4 0 -14 7l-8 5
q-10 5 -13 9q-30 18 -68 21q-28 0 -50 -11l-6 -2q-96 -160 -96 -451q0 -253 85 -339q31 -31 31 -39q0 -7 -10 -7q-22 0 -49 29q-88 98 -90 341q0 258 65 412q-26 -33 -54 -84q-5 -11 -26 -47l-19 -39q-19 -38 -24 -50q-6 -18 -26 -58q-89 -212 -113 -392l-1 -2q0 -5 -1 -9
t-1 -7.5t-1 -4.5q-8 -74 -11 -149q0 -114 5 -134q0 -12 7 -54q17 -134 99 -226l40 -34q57 -41 138 -41zM308 -246q-79 0 -154 55l-3 3q-29 23 -59 60q-9 17 -14 21q-12 18 -27 52q-31 71 -41 155q0 3 -1 5q-4 28 -4 38l-1 17q-4 20 -4 118q1 5 1 24q11 253 117 520
q2 3 19 44q84 180 94 190q31 62 83 114q7 5 13 11q3 0 23 15q24 40 52 70q94 106 200 106q95 -3 162 -81q33 -38 39 -58q3 -6 4.5 -8t3.5 -12q36 -72 36 -218q0 -184 -23 -345q-36 -235 -138 -493l-3 -6q-4 -8 -8 -20q-52 -113 -57 -119q-15 -37 -66 -108
q-79 -109 -181 -141q-34 -9 -63 -9zM657 1552q-27 0 -35 25q-2 6 -2 12q0 27 27 35q7 2 13 2q14 0 25.5 -11t11.5 -28q0 -13 -10 -24t-30 -11zM766 1556q-13 0 -24.5 11t-11.5 27q0 36 40 36q27 0 35 -25q2 -6 2 -12q0 -27 -28 -35q-7 -2 -13 -2z" />
    <glyph glyph-name="multiply" unicode="&#xd7;" horiz-adv-x="595" 
d="M74 308h-1q-3 0 -9 5q-11 14 -11 18q0 2 191 162l-103 112l25 22q63 -67 103 -113l155 130q3 0 23 -25l-155 -130q47 -51 126 -153l-18 -18q-61 68 -101 114l-32 37z" />
    <glyph glyph-name="Oslash" unicode="&#xd8;" horiz-adv-x="959" 
d="M322 -213q1 1 5 1q152 18 265 244q42 84 91 206q76 207 110 424q22 164 22 282l-1 81q-1 5 -1 11q0 83 -27 152q-117 -233 -118 -242q-139 -290 -277 -596q3 -4 3 -7q0 -6 -9 -7q-109 -241 -216 -495q62 -54 153 -54zM92 -324q-16 6 -16 25q1 5 52 130q-18 18 -36 41
q-9 17 -14 21q-12 18 -27 52q-31 71 -41 155q0 3 -1 5q-4 28 -4 38l-1 17q-4 20 -4 118q1 5 1 24q11 253 117 520q2 3 19 44q84 180 94 190q31 62 83 114q7 5 13 11q3 0 23 15q24 40 52 70q94 106 200 106q95 -3 162 -81q11 -12 18 -23l4 -5l41 83q5 8 11 8q15 -2 15 -28
q0 -6 -46 -100q2 -3 4 -13q36 -72 36 -218q0 -184 -23 -345q-36 -235 -138 -493l-3 -6q-4 -8 -8 -20q-52 -113 -57 -119q-15 -37 -66 -108q-79 -109 -181 -141q-34 -9 -63 -9q-79 0 -153 54q-27 -60 -52 -122q-5 -10 -11 -10zM365 380q138 306 280 595q81 171 123 253l-9 16
q-65 93 -157 95q-12 0 -40 -5q-73 -20 -122 -76q-18 -20 -36 -43q14 2 30 2q44 0 71 -20q35 -23 35 -43q0 -10 -7 -11q-4 0 -14 7l-8 5q-10 5 -13 9q-30 18 -68 21q-28 0 -50 -11l-6 -2q-96 -160 -96 -451q0 -254 87 -341zM142 -136q104 248 210 485l-13 11l-4 5
q-88 98 -90 341q0 260 65 412q-25 -33 -54 -84q-5 -11 -26 -47l-19 -39q-19 -38 -24 -50q-6 -18 -26 -58q-89 -212 -113 -392l-1 -2q0 -5 -1 -9t-1 -7.5t-1 -4.5q-8 -74 -11 -149q0 -114 5 -134q0 -12 7 -54q17 -132 97 -224z" />
    <glyph glyph-name="Ugrave" unicode="&#xd9;" horiz-adv-x="983" 
d="M719 -251q-16 0 -20 18q0 86 6 178q12 129 15 143l21 134q5 47 63 282q48 176 107 352q-232 -495 -471 -762l-42 -47q-109 -113 -207 -113q-36 0 -54 10h-3l-14 7q-10 1 -36 26q-35 33 -55 80q-4 10 -18 56q-11 54 -11 106q0 78 20 185q53 305 108 499q44 145 99 272
q21 53 45 91q14 33 52 95q11 18 20 18q12 0 12 -16q0 -12 -13 -33q-16 -26 -45 -82q-84 -174 -105 -247l-21 -69q-36 -109 -72 -282q-67 -319 -67 -432q0 -79 27 -150q30 -66 82 -91q3 0 5 -2q22 -8 43 -8q53 0 111 40q68 46 198 209q116 154 227 347l24 43q128 239 258 552
q1 1 1 4l53 125q9 22 18 22q5 0 6 -1q18 -2 18 -19q-1 -7 -36 -98q-138 -363 -222 -654q-8 -34 -20 -78q-24 -91 -46 -203q-6 -28 -6 -32.5t-16 -98.5q-18 -145 -25 -260l-1 -103q-1 -13 -13 -13zM821 1532q-73 72 -150 172q0 1 4.5 5.5t9 7t8 5t4.5 2.5q87 -112 111 -133
l35 -37q0 -3 -9.5 -12.5t-12.5 -9.5z" />
    <glyph glyph-name="Uacute" unicode="&#xda;" horiz-adv-x="983" 
d="M719 -251q-16 0 -20 18q0 86 6 178q12 129 15 143l21 134q5 47 63 282q48 176 107 352q-232 -495 -471 -762l-42 -47q-109 -113 -207 -113q-36 0 -54 10h-3l-14 7q-10 1 -36 26q-35 33 -55 80q-4 10 -18 56q-11 54 -11 106q0 78 20 185q53 305 108 499q44 145 99 272
q21 53 45 91q14 33 52 95q11 18 20 18q12 0 12 -16q0 -12 -13 -33q-16 -26 -45 -82q-84 -174 -105 -247l-21 -69q-36 -109 -72 -282q-67 -319 -67 -432q0 -79 27 -150q30 -66 82 -91q3 0 5 -2q22 -8 43 -8q53 0 111 40q68 46 198 209q116 154 227 347l24 43q128 239 258 552
q1 1 1 4l53 125q9 22 18 22q5 0 6 -1q18 -2 18 -19q-1 -7 -36 -98q-138 -363 -222 -654q-8 -34 -20 -78q-24 -91 -46 -203q-6 -28 -6 -32.5t-16 -98.5q-18 -145 -25 -260l-1 -103q-1 -13 -13 -13zM714 1526q-2 0 -10 11t-8 16l72 56l72 64v1l25 24q5 0 14 -10.5t9 -12.5
l-57 -56q-39 -34 -117 -93z" />
    <glyph glyph-name="Ucircumflex" unicode="&#xdb;" horiz-adv-x="983" 
d="M719 -251q-16 0 -20 18q0 86 6 178q12 129 15 143l21 134q5 47 63 282q48 176 107 352q-232 -495 -471 -762l-42 -47q-109 -113 -207 -113q-36 0 -54 10h-3l-14 7q-10 1 -36 26q-35 33 -55 80q-4 10 -18 56q-11 54 -11 106q0 78 20 185q53 305 108 499q44 145 99 272
q21 53 45 91q14 33 52 95q11 18 20 18q12 0 12 -16q0 -12 -13 -33q-16 -26 -45 -82q-84 -174 -105 -247l-21 -69q-36 -109 -72 -282q-67 -319 -67 -432q0 -79 27 -150q30 -66 82 -91q3 0 5 -2q22 -8 43 -8q53 0 111 40q68 46 198 209q116 154 227 347l24 43q128 239 258 552
q1 1 1 4l53 125q9 22 18 22q5 0 6 -1q18 -2 18 -19q-1 -7 -36 -98q-138 -363 -222 -654q-8 -34 -20 -78q-24 -91 -46 -203q-6 -28 -6 -32.5t-16 -98.5q-18 -145 -25 -260l-1 -103q-1 -13 -13 -13zM669 1521q-11 0 -22 21q0 2 110 116q13 14 35 19q26 -1 40 -25
q44 -67 76 -101l5 -9q0 -7 -22 -19h-2q-40 44 -84 109l-10 12q-7 0 -23 -16q-1 -3 -51 -54z" />
    <glyph glyph-name="Udieresis" unicode="&#xdc;" horiz-adv-x="983" 
d="M719 -251q-16 0 -20 18q0 86 6 178q12 129 15 143l21 134q5 47 63 282q48 176 107 352q-232 -495 -471 -762l-42 -47q-109 -113 -207 -113q-36 0 -54 10h-3l-14 7q-10 1 -36 26q-35 33 -55 80q-4 10 -18 56q-11 54 -11 106q0 78 20 185q53 305 108 499q44 145 99 272
q21 53 45 91q14 33 52 95q11 18 20 18q12 0 12 -16q0 -12 -13 -33q-16 -26 -45 -82q-84 -174 -105 -247l-21 -69q-36 -109 -72 -282q-67 -319 -67 -432q0 -79 27 -150q30 -66 82 -91q3 0 5 -2q22 -8 43 -8q53 0 111 40q68 46 198 209q116 154 227 347l24 43q128 239 258 552
q1 1 1 4l53 125q9 22 18 22q5 0 6 -1q18 -2 18 -19q-1 -7 -36 -98q-138 -363 -222 -654q-8 -34 -20 -78q-24 -91 -46 -203q-6 -28 -6 -32.5t-16 -98.5q-18 -145 -25 -260l-1 -103q-1 -13 -13 -13zM699 1552q-27 0 -35 25q-2 6 -2 12q0 27 27 35q7 2 13 2q14 0 25.5 -11
t11.5 -28q0 -13 -10 -24t-30 -11zM808 1556q-13 0 -24.5 11t-11.5 27q0 36 40 36q27 0 35 -25q2 -6 2 -12q0 -27 -28 -35q-7 -2 -13 -2z" />
    <glyph glyph-name="Yacute" unicode="&#xdd;" horiz-adv-x="1122" 
d="M102 -544q77 0 190 77q245 171 392 460q38 87 47.5 113t15.5 36q35 92 67 194q-144 -85 -348 -249q-183 -150 -305 -297q-91 -109 -120 -199q-3 -11 -8 -47q1 -10 2 -20.5t1 -11t14 -28.5q0 -1 9 -11q18 -17 43 -17zM110 -577q-27 0 -30 3q-3 0 -12 3q-23 11 -32 21h-1
l-10 13h-1q-23 41 -23 68l-1 10q0 30 5 39q0 6 6 24q21 83 133 216q126 149 311 300q219 174 373 260q105 352 177 834q-103 -213 -264 -445q-197 -275 -308 -275l-2 1h-8l-2 1q-66 11 -105 74q-51 88 -51 238q0 117 30 249q44 182 110 286q8 9 15 9q13 0 13 -15
q0 -9 -15 -35q-51 -84 -92 -259q-28 -120 -28 -233q0 -153 49 -228q23 -36 61 -49q3 -2 6 -2t17 -4q23 0 27 2.5t5 4.5q98 38 255 259q165 238 266 454l38 83q6 30 16 30q16 0 16 -33q-1 -15 -25 -171q-65 -435 -159 -753q76 37 91 37q13 0 13 -7q0 -17 -34 -34
q-38 -15 -82 -39q-40 -129 -85 -239l-39 -94q-98 -232 -298 -420q-108 -99 -213 -152q-63 -32 -113 -32zM683 1511q-2 0 -10 11t-8 16l72 56l72 64v1l25 24q5 0 14 -10.5t9 -12.5l-57 -56q-39 -34 -117 -93z" />
    <glyph glyph-name="germandbls" unicode="&#xdf;" horiz-adv-x="1457" 
d="M245 -408q-16 0 -17 20l18 88q-33 9 -72 23q-2 2 -5 3q-34 14 -73 39q-15 10 -15 11q-16 10 -58 49q-23 25 -23 34q0 11 12 11q14 0 26 -13l17.5 -17.5t0.5 -1t1 -1.5q71 -71 195 -106l135 666q12 65 159 738q-82 -79 -210 -225q-55 -62 -71 -94l-10 -21q-4 -15 -15 -15
q-10 0 -14 14q-1 3 -1 7q0 20 44 81q182 220 331 344q142 125 332 176q65 18 123 18q48 0 71 -12l22 -10q5 -5 12 -8q23 -21 34 -35q29 -38 39 -101v-5q2 -16 2 -33q-1 -108 -97 -225h-1v-1l-17 -17v-1l-9 -8q-81 -73 -118 -91q-1 -2 -3 -3q-12 -9 -31 -20
q-108 -71 -258 -142h2q4 4 26 4q12 6 102 6l10 -1q137 0 252 -73q35 -23 52 -41q114 -113 114 -286q0 -100 -38 -195q-38 -77 -52 -94q-28 -42 -90 -102q-154 -140 -410 -208q-152 -38 -259 -38q-28 0 -83 4l-2 1q-6 0 -9 1l-40 6q-20 -99 -24 -99.5t-7 -0.5zM400 -287
q171 0 372 72q65 23 127 56q27 13 46 26q97 50 190 169q92 127 92 281q0 189 -141 293q-82 57 -192 70l-6 1q-8 1 -11 1t-3 1l-53 2q-25 -1 -37 -1t-48 -4q-132 -16 -199 -39q-24 -8 -38 -8q-13 0 -14 11q0 17 26 24q14 9 48 17q3 3 40 16q94 31 277 136q57 38 110 69
q67 47 97 77q32 26 70 81q0 1 2 3q47 74 47 150q0 18 -2 36q-2 6 -2 12q-15 63 -55 96q-9 5 -10 8v-1l-27 12q-18 7 -53 7q-34 0 -96 -12q-147 -37 -288 -137q-3 -3 -8 -6t-11 -8v-1l-18 -14q-30 -23 -44 -35l-148 -677l-158 -773q14 -4 45 -6q19 -3 25 -3q0 -2 48 -2z" />
    <glyph glyph-name="agrave" unicode="&#xe0;" 
d="M-18 196q11 0 12.5 1.5t5.5 2.5q25 8 115 160q17 36 67 114h-3q-10 2 -19 2q-40 0 -76 -15q-2 -2 -11 -5q-12 -7 -24 -16q-4 -5 -9 -9t-5.5 -4.5t-2 -0.5t-4.5 -6q-15 -15 -16.5 -18.5t-7.5 -9.5q-8 -10 -8 -13q-4 -4 -7 -10q-42 -64 -44 -126q0 -46 37 -47zM242 141
q-22 0 -29 7q-6 0 -35 29q-11 12 -20.5 41t-9.5 57q0 51 10 93l-52 -86q-55 -92 -102 -116h-2v-1l-12 -2q-43 0 -65 31q-3 6 -5 8q-8 21 -8 46q11 89 57 150q2 4 30 40q71 71 161 71q12 0 22 -2q6 -2 12 -2t19 -5q3 0 6.5 -1.5t4 -1.5t1.5 -1q10 -3 10 -15q-49 -87 -57 -196
q0 -94 54 -114q4 -2 10 -2q47 0 110 100l98 159q11 0 11 -12q-79 -153 -150 -235q-40 -37 -58 -39zM252 600q-73 72 -150 172q0 1 4.5 5.5t9 7t8 5t4.5 2.5q87 -112 111 -133l35 -37q0 -3 -9.5 -12.5t-12.5 -9.5z" />
    <glyph glyph-name="aacute" unicode="&#xe1;" 
d="M-18 196q11 0 12.5 1.5t5.5 2.5q25 8 115 160q17 36 67 114h-3q-10 2 -19 2q-40 0 -76 -15q-2 -2 -11 -5q-12 -7 -24 -16q-4 -5 -9 -9t-5.5 -4.5t-2 -0.5t-4.5 -6q-15 -15 -16.5 -18.5t-7.5 -9.5q-8 -10 -8 -13q-4 -4 -7 -10q-42 -64 -44 -126q0 -46 37 -47zM242 141
q-22 0 -29 7q-6 0 -35 29q-11 12 -20.5 41t-9.5 57q0 51 10 93l-52 -86q-55 -92 -102 -116h-2v-1l-12 -2q-43 0 -65 31q-3 6 -5 8q-8 21 -8 46q11 89 57 150q2 4 30 40q71 71 161 71q12 0 22 -2q6 -2 12 -2t19 -5q3 0 6.5 -1.5t4 -1.5t1.5 -1q10 -3 10 -15q-49 -87 -57 -196
q0 -94 54 -114q4 -2 10 -2q47 0 110 100l98 159q11 0 11 -12q-79 -153 -150 -235q-40 -37 -58 -39zM66 610q-2 0 -10 11t-8 16l72 56l72 64v1l25 24q5 0 14 -10.5t9 -12.5l-57 -56q-39 -34 -117 -93z" />
    <glyph glyph-name="acircumflex" unicode="&#xe2;" 
d="M-18 196q11 0 12.5 1.5t5.5 2.5q25 8 115 160q17 36 67 114h-3q-10 2 -19 2q-40 0 -76 -15q-2 -2 -11 -5q-12 -7 -24 -16q-4 -5 -9 -9t-5.5 -4.5t-2 -0.5t-4.5 -6q-15 -15 -16.5 -18.5t-7.5 -9.5q-8 -10 -8 -13q-4 -4 -7 -10q-42 -64 -44 -126q0 -46 37 -47zM242 141
q-22 0 -29 7q-6 0 -35 29q-11 12 -20.5 41t-9.5 57q0 51 10 93l-52 -86q-55 -92 -102 -116h-2v-1l-12 -2q-43 0 -65 31q-3 6 -5 8q-8 21 -8 46q11 89 57 150q2 4 30 40q71 71 161 71q12 0 22 -2q6 -2 12 -2t19 -5q3 0 6.5 -1.5t4 -1.5t1.5 -1q10 -3 10 -15q-49 -87 -57 -196
q0 -94 54 -114q4 -2 10 -2q47 0 110 100l98 159q11 0 11 -12q-79 -153 -150 -235q-40 -37 -58 -39zM248 605q-40 46 -80 112l-10 13q-6 0 -24 -15q-2 -4 -107 -103q-4 0 -12 9t-9 13q0 2 114 111q15 15 36 17q27 -1 39 -26q29 -48 77 -112q0 -4 -9.5 -11t-14.5 -8z" />
    <glyph glyph-name="atilde" unicode="&#xe3;" 
d="M-18 196q11 0 12.5 1.5t5.5 2.5q25 8 115 160q17 36 67 114h-3q-10 2 -19 2q-40 0 -76 -15q-2 -2 -11 -5q-12 -7 -24 -16q-4 -5 -9 -9t-5.5 -4.5t-2 -0.5t-4.5 -6q-15 -15 -16.5 -18.5t-7.5 -9.5q-8 -10 -8 -13q-4 -4 -7 -10q-42 -64 -44 -126q0 -46 37 -47zM242 141
q-22 0 -29 7q-6 0 -35 29q-11 12 -20.5 41t-9.5 57q0 51 10 93l-52 -86q-55 -92 -102 -116h-2v-1l-12 -2q-43 0 -65 31q-3 6 -5 8q-8 21 -8 46q11 89 57 150q2 4 30 40q71 71 161 71q12 0 22 -2q6 -2 12 -2t19 -5q3 0 6.5 -1.5t4 -1.5t1.5 -1q10 -3 10 -15q-49 -87 -57 -196
q0 -94 54 -114q4 -2 10 -2q47 0 110 100l98 159q11 0 11 -12q-79 -153 -150 -235q-40 -37 -58 -39zM305 658h-4q-2 0 -22 20q2 0 2 7q0 12 -16 19l-1 1h-4v1l-9 1q-18 0 -43 -10q-9 -4 -11.5 -4.5t-4 -1t-3.5 -0.5q-27 -10 -91 -16q-14 0 -44 6q-5 1 -26 17q-13 15 -13 37
q0 10 7 22q12 0 25 -17q0 -21 17 -27v-1h4v-1q17 -3 27 -3q24 0 29 2t9 2q14 1 64 16q32 11 57 11q8 0 13 -1t8 -2.5t4.5 -2t2.5 -0.5q32 -22 32 -52l-3 -14q-3 -2 -3 -3.5t-3 -5.5z" />
    <glyph glyph-name="adieresis" unicode="&#xe4;" 
d="M-18 196q11 0 12.5 1.5t5.5 2.5q25 8 115 160q17 36 67 114h-3q-10 2 -19 2q-40 0 -76 -15q-2 -2 -11 -5q-12 -7 -24 -16q-4 -5 -9 -9t-5.5 -4.5t-2 -0.5t-4.5 -6q-15 -15 -16.5 -18.5t-7.5 -9.5q-8 -10 -8 -13q-4 -4 -7 -10q-42 -64 -44 -126q0 -46 37 -47zM242 141
q-22 0 -29 7q-6 0 -35 29q-11 12 -20.5 41t-9.5 57q0 51 10 93l-52 -86q-55 -92 -102 -116h-2v-1l-12 -2q-43 0 -65 31q-3 6 -5 8q-8 21 -8 46q11 89 57 150q2 4 30 40q71 71 161 71q12 0 22 -2q6 -2 12 -2t19 -5q3 0 6.5 -1.5t4 -1.5t1.5 -1q10 -3 10 -15q-49 -87 -57 -196
q0 -94 54 -114q4 -2 10 -2q47 0 110 100l98 159q11 0 11 -12q-79 -153 -150 -235q-40 -37 -58 -39zM109 630q-12 0 -24 9.5t-13 26.5q0 29 26 36l2 1l11 1q15 0 26.5 -10t11.5 -28q0 -13 -11 -24.5t-29 -11.5zM219 624q-13 0 -25 10t-12 29q0 24 25 33q8 2 14 2
q14 0 25.5 -9.5t12.5 -26.5q0 -27 -27 -36q-7 -2 -13 -2z" />
    <glyph glyph-name="aring" unicode="&#xe5;" 
d="M-18 196q11 0 12.5 1.5t5.5 2.5q25 8 115 160q17 36 67 114h-3q-10 2 -19 2q-40 0 -76 -15q-2 -2 -11 -5q-12 -7 -24 -16q-4 -5 -9 -9t-5.5 -4.5t-2 -0.5t-4.5 -6q-15 -15 -16.5 -18.5t-7.5 -9.5q-8 -10 -8 -13q-4 -4 -7 -10q-42 -64 -44 -126q0 -46 37 -47zM242 141
q-22 0 -29 7q-6 0 -35 29q-11 12 -20.5 41t-9.5 57q0 51 10 93l-52 -86q-55 -92 -102 -116h-2v-1l-12 -2q-43 0 -65 31q-3 6 -5 8q-8 21 -8 46q11 89 57 150q2 4 30 40q71 71 161 71q12 0 22 -2q6 -2 12 -2t19 -5q3 0 6.5 -1.5t4 -1.5t1.5 -1q10 -3 10 -15q-49 -87 -57 -196
q0 -94 54 -114q4 -2 10 -2q47 0 110 100l98 159q11 0 11 -12q-79 -153 -150 -235q-40 -37 -58 -39zM138 647q9 0 18 4q5 0 5 1.5t2 3.5q14 8 14 32q0 14 -7 24q0 1 -9 10v1l-14 5q-21 0 -30 -17q-1 -3 -1.5 -3.5t-0.5 -2.5t-2 -4h-1q-4 -4 -4 -5q-4 -7 -4 -15q0 -15 8 -24
l8 -6l4 -1q7 -3 14 -3zM139 625q-25 0 -44 19l-2 2q-2 2 -2.5 4t-2.5 5q-6 8 -6 26q0 17 14 35q1 2 1.5 3.5t0.5 3.5t6 6q0 2 4 6q17 14 32 14l4 1l18 -3l2 -1l9 -5l6 -5q0 -1 1.5 -1t3.5 -3.5t5 -7.5q10 -18 10 -35q0 -30 -16 -44q-2 -2 -2 -3q-18 -17 -42 -17z" />
    <glyph glyph-name="ae" unicode="&#xe6;" horiz-adv-x="742" 
d="M-18 196q11 0 12.5 1.5t5.5 2.5q25 8 115 160q17 35 67 114h-3q-10 2 -19 2q-40 0 -76 -15q-2 -2 -11 -5q-12 -7 -24 -16q-4 -5 -9 -9t-5.5 -4.5t-2 -0.5t-4.5 -6q-15 -15 -16.5 -18.5t-7.5 -9.5q-8 -10 -8 -13q-4 -4 -7 -10q-42 -64 -44 -126q0 -46 37 -47zM358 307
q75 83 112 165q2 5 5.5 12t3.5 16l-3 2q-34 0 -61 -47q-40 -70 -57 -148zM411 81q-7 0 -13 1q-58 20 -68 72q-4 15 -6 43q-4 -6 -9 -11l-4 -5q-40 -37 -58 -39l-11 -1q-22 0 -29 7q-6 0 -35 29q-11 12 -20.5 41t-9.5 57q0 51 10 93l-52 -86q-55 -92 -102 -116h-2v-1l-12 -2
q-43 0 -65 31q-3 6 -5 8q-8 21 -8 46q11 89 57 150q2 4 30 40q71 71 161 71q12 0 22 -2q6 -2 12 -2t19 -5q3 0 6.5 -1.5t4 -1.5t1.5 -1q10 -3 10 -15q-49 -87 -57 -196q0 -94 54 -114q4 -2 10 -2q36 0 81 58q0 131 69 246q35 59 78 59q36 0 40 -32q-2 -15 -8 -28.5t-6 -16.5
q-34 -73 -87 -138q-6 -8 -12 -14q-24 -40 -48 -73q0 -55 13 -90q18 -31 47 -34q41 0 116 70q87 81 159 178q36 48 46 65q3 6 9 6q9 0 9 -12q0 -7 -49 -76q-199 -256 -288 -256z" />
    <glyph glyph-name="ccedilla" unicode="&#xe7;" horiz-adv-x="344" 
d="M78 -118h-9q-1 1 -2.5 1t-15.5 3q-38 14 -52 40q-2 4 -4 6.5t-3 5t-3 5.5q0 5 14 9q10 3 14 3q2 0 9 -11.5t26 -22.5q8 -4 9.5 -4t3.5 -1t12 -1q14 0 30 10q18 15 18 28l1 1q0 45 -42 46q-24 0 -24 2h-1l-19 12q-12 18 -12 50h-3q-22 0 -40 9v1h-2v1q-58 29 -58 123
q2 109 45 191q20 50 59 74q14 7 26 7q52 0 52 -55q0 -119 -18 -119q-7 0 -14.5 4.5t-7.5 11.5q8 51 8 85q0 30 -3.5 35.5t-14.5 5.5q-32 -2 -62 -66q-39 -77 -42 -172q0 -49 19 -79t53 -30q27 0 52 16q35 21 96 94q87 106 162 221q3 5 7 5q12 0 12 -14q0 -2 -1 -4t-1 -3
q-110 -174 -209 -277q-39 -45 -81 -59q-1 -6 -1 -14q0 -15 4 -21q1 0 2 -1t3 -1t2 -1l19 1l13 -2q12 0 24 -10t21.5 -26t9.5 -33q0 -18 -1.5 -19t-1.5 -3q0 -9 -15 -28q-26 -29 -55 -29z" />
    <glyph glyph-name="egrave" unicode="&#xe8;" horiz-adv-x="359" 
d="M-22 308q75 81 112 165q2 5 5.5 12t3.5 16l-3 2q-34 0 -61 -47q-41 -70 -57 -148zM31 82q-7 0 -13 1q-58 20 -68 72q-7 26 -7 84q5 128 69 235q35 59 78 59q36 0 40 -32q-2 -15 -8 -28.5t-6 -16.5q-34 -73 -87 -138q-43 -52 -58 -63q-2 -21 -2 -42q0 -37 13 -72
q18 -31 47 -34q41 0 116 70q87 81 159 178q36 48 46 65q3 6 9 6q9 0 9 -12q0 -7 -49 -76q-199 -256 -288 -256zM169 600q-73 72 -150 172q0 1 4.5 5.5t9 7t8 5t4.5 2.5q87 -112 111 -133l35 -37q0 -3 -9.5 -12.5t-12.5 -9.5z" />
    <glyph glyph-name="eacute" unicode="&#xe9;" horiz-adv-x="359" 
d="M-22 308q75 81 112 165q2 5 5.5 12t3.5 16l-3 2q-34 0 -61 -47q-41 -70 -57 -148zM31 82q-7 0 -13 1q-58 20 -68 72q-7 26 -7 84q5 128 69 235q35 59 78 59q36 0 40 -32q-2 -15 -8 -28.5t-6 -16.5q-34 -73 -87 -138q-43 -52 -58 -63q-2 -21 -2 -42q0 -37 13 -72
q18 -31 47 -34q41 0 116 70q87 81 159 178q36 48 46 65q3 6 9 6q9 0 9 -12q0 -7 -49 -76q-199 -256 -288 -256zM20 613q-2 0 -10 11t-8 16l72 56l72 64v1l25 24q5 0 14 -10.5t9 -12.5l-57 -56q-39 -34 -117 -93z" />
    <glyph glyph-name="ecircumflex" unicode="&#xea;" horiz-adv-x="359" 
d="M-22 308q75 81 112 165q2 5 5.5 12t3.5 16l-3 2q-34 0 -61 -47q-41 -70 -57 -148zM31 82q-7 0 -13 1q-58 20 -68 72q-7 26 -7 84q5 128 69 235q35 59 78 59q36 0 40 -32q-2 -15 -8 -28.5t-6 -16.5q-34 -73 -87 -138q-43 -52 -58 -63q-2 -21 -2 -42q0 -37 13 -72
q18 -31 47 -34q41 0 116 70q87 81 159 178q36 48 46 65q3 6 9 6q9 0 9 -12q0 -7 -49 -76q-199 -256 -288 -256zM199 602q-40 46 -80 112l-10 13q-6 0 -24 -15q-2 -4 -107 -103q-4 0 -12 9t-9 13q0 2 114 111q15 15 36 17q27 -1 39 -26q29 -48 77 -112q0 -4 -9.5 -11
t-14.5 -8z" />
    <glyph glyph-name="edieresis" unicode="&#xeb;" horiz-adv-x="359" 
d="M-22 308q75 81 112 165q2 5 5.5 12t3.5 16l-3 2q-34 0 -61 -47q-41 -70 -57 -148zM31 82q-7 0 -13 1q-58 20 -68 72q-7 26 -7 84q5 128 69 235q35 59 78 59q36 0 40 -32q-2 -15 -8 -28.5t-6 -16.5q-34 -73 -87 -138q-43 -52 -58 -63q-2 -21 -2 -42q0 -37 13 -72
q18 -31 47 -34q41 0 116 70q87 81 159 178q36 48 46 65q3 6 9 6q9 0 9 -12q0 -7 -49 -76q-199 -256 -288 -256zM35 630q-12 0 -24 9.5t-13 26.5q0 29 26 36l2 1l11 1q15 0 26.5 -10t11.5 -28q0 -13 -11 -24.5t-29 -11.5zM145 624q-13 0 -25 10t-12 29q0 24 25 33q8 2 14 2
q14 0 25.5 -9.5t12.5 -26.5q0 -27 -27 -36q-7 -2 -13 -2z" />
    <glyph glyph-name="igrave" unicode="&#xec;" horiz-adv-x="297" 
d="M38 156q-46 0 -58 44q-4 19 -4 40q0 100 20 190q2 4 6 4q5 0 11 -2t10 -4.5t4 -5.5q-18 -79 -20 -159l-1 -13q0 -45 8 -54.5t20 -9.5q18 0 37 11l32 23q110 82 186 206q2 2 4 2q9 0 16 -10l1 -4q-61 -102 -160 -192q-6 -6 -24 -19l-15 -12q-43 -33 -73 -35zM129 483
q-73 72 -150 172q0 1 4.5 5.5t9 7t8 5t4.5 2.5q87 -112 111 -133l35 -37q0 -3 -9.5 -12.5t-12.5 -9.5z" />
    <glyph glyph-name="iacute" unicode="&#xed;" horiz-adv-x="297" 
d="M38 156q-46 0 -58 44q-4 19 -4 40q0 100 20 190q2 4 6 4q5 0 11 -2t10 -4.5t4 -5.5q-18 -79 -20 -159l-1 -13q0 -45 8 -54.5t20 -9.5q18 0 37 11l32 23q110 82 186 206q2 2 4 2q9 0 16 -10l1 -4q-61 -102 -160 -192q-6 -6 -24 -19l-15 -12q-43 -33 -73 -35zM-8 500
q-2 0 -10 11t-8 16l72 56l72 64v1l25 24q5 0 14 -10.5t9 -12.5l-57 -56q-39 -34 -117 -93z" />
    <glyph glyph-name="icircumflex" unicode="&#xee;" horiz-adv-x="297" 
d="M37 156q-46 0 -58 44q-4 19 -4 40q0 100 20 190q2 4 6 4q5 0 11 -2t10 -4.5t4 -5.5q-18 -79 -20 -159l-1 -13q0 -45 8 -54.5t20 -9.5q18 0 37 11l32 23q110 82 186 206q2 2 4 2q9 0 16 -10l1 -4q-61 -102 -160 -192q-6 -6 -24 -19l-15 -12q-43 -33 -73 -35zM167 525
q-40 46 -80 112l-10 13q-6 0 -24 -15q-2 -4 -107 -103q-4 0 -12 9t-9 13q0 2 114 111q15 15 36 17q27 -1 39 -26q29 -48 77 -112q0 -4 -9.5 -11t-14.5 -8z" />
    <glyph glyph-name="idieresis" unicode="&#xef;" horiz-adv-x="297" 
d="M38 156q-46 0 -58 44q-4 19 -4 40q0 100 20 190q2 4 6 4q5 0 11 -2t10 -4.5t4 -5.5q-18 -79 -20 -159l-1 -13q0 -45 8 -54.5t20 -9.5q18 0 37 11l32 23q110 82 186 206q2 2 4 2q9 0 16 -10l1 -4q-61 -102 -160 -192q-6 -6 -24 -19l-15 -12q-43 -33 -73 -35zM-8 513
q-12 0 -24 9.5t-13 26.5q0 29 26 36l2 1l11 1q15 0 26.5 -10t11.5 -28q0 -13 -11 -24.5t-29 -11.5zM102 507q-13 0 -25 10t-12 29q0 24 25 33q8 2 14 2q14 0 25.5 -9.5t12.5 -26.5q0 -27 -27 -36q-7 -2 -13 -2z" />
    <glyph glyph-name="eth" unicode="&#xf0;" horiz-adv-x="405" 
d="M-12 206q9 0 10.5 1t5.5 1l32 23q31 29 89 102l70 98l12 49q-24 6 -45 6q-34 0 -76 -17q-1 -1 -7.5 -4t-22.5 -15q-37 -32 -51 -58q-29 -29 -49 -107q-3 -9 -3 -17q-1 -2 -1 -16q1 -11 1 -13.5t1 -5t1 -5.5t7 -9q0 -4 9.5 -8.5t16.5 -4.5zM91 -268q-19 0 -20 28
q41 297 105 589q-115 -162 -179 -176q-34 0 -54 18q-13 11 -15 21q-4 4 -4 10q-5 10 -5 32q0 27 4 36q18 70 54 119q2 5 4 7t3.5 4.5t3.5 4.5q14 17 17 21.5t6 5.5q2 4 7 7q0 1 0.5 2t15.5 13q0 2 7 5q20 17 46 25q37 14 71 14q24 0 57 -6q7 42 74 275l-115 -1q-4 0 -5 16
q0 14 5 17l83 1q20 -1 41 -1q34 110 58 191l42 119q53 130 135 158q1 1 3 1q11 0 20 -9q0 -1 2 -3q3 -8 3 -23q0 -46 -52 -201q-41 -120 -89 -237l15 -1q8 0 102 -7q2 -1 2 -6q0 -12 -4 -18q0 -1 -1.5 -4.5t-3.5 -4.5q-64 6 -123 9q-92 -226 -171 -352q-2 -2 -3.5 -4.5
t-2 -3l-4.5 -4.5q-79 -348 -123 -667q-3 -20 -12 -20zM385 817q50 122 93 248q46 132 50 184q-60 -32 -100 -133q-37 -93 -96 -297q14 -1 27.5 -1t25.5 -1zM251 522q50 96 121 262q-26 2 -50 2l-1 -4q-20 -73 -28 -97q-18 -73 -38 -145z" />
    <glyph glyph-name="ntilde" unicode="&#xf1;" horiz-adv-x="431" 
d="M-49 113q-4 0 -11 1.5t-11.5 4t-4.5 3.5q36 187 82 371q2 2 6 2q25 -3 25 -11q-33 -132 -61 -265l99 166q32 58 81 58q21 0 34.5 -16t16.5 -63q0 -79 9.5 -108.5t31.5 -29.5q42 0 143 152q1 3 35 49q3 3 6 3q1 0 4.5 -0.5t6.5 -7.5q0 -1 1 -3t1 -4q0 -3 -56 -82l-12 -18
q-73 -110 -129 -116q-43 0 -59 49q-9 30 -9 60q0 86 -14 102q-6 4 -15 4q-25 -4 -37 -24q-6 -8 -44 -73l-100 -171q-12 -19 -12.5 -23.5t-1 -7t-5.5 -2.5zM271 625h-4q-2 0 -22 20q2 0 2 7q0 12 -16 19l-1 1h-4v1l-9 1q-18 0 -43 -10q-9 -4 -11.5 -4.5t-4 -1t-3.5 -0.5
q-27 -10 -91 -16q-14 0 -44 6q-5 1 -26 17q-13 15 -13 37q0 10 7 22q12 0 25 -17q0 -21 17 -27v-1h4v-1q17 -3 27 -3q24 0 29 2t9 2q14 1 64 16q32 11 57 11q8 0 13 -1t8 -2.5t4.5 -2t2.5 -0.5q32 -22 32 -52l-3 -14q-3 -2 -3 -3.5t-3 -5.5z" />
    <glyph glyph-name="ograve" unicode="&#xf2;" horiz-adv-x="348" 
d="M137 325q1 3 1 6.5t1 6.5q2 16 2 29q0 71 -30 110q-24 27 -57 27q-16 -1 -29 -12.5t-13 -32.5q0 -28 21 -55q45 -55 104 -79zM46 169q-24 0 -46 17q-25 24 -32 58q-2 7 -2 11q-5 5 -5 52q0 62 29 120l1 3q-5 13 -5 26q0 38 27 59q20 14 44 16q48 -2 78 -41
q34 -47 34 -122q0 -25 -4 -50l15 -1q65 0 133 73q31 34 35 34q8 -2 8 -13q0 -13 -59 -67q-54 -50 -119 -50l-18 1q-6 -23 -17 -44q-33 -79 -97 -82zM46 199q17 0 32 11q38 31 54 91q-1 1 -3 1l-25 12q-64 38 -94 79q-18 -44 -18 -89q0 -72 31 -97q10 -8 23 -8zM163 603
q-73 72 -150 172q0 1 4.5 5.5t9 7t8 5t4.5 2.5q87 -112 111 -133l35 -37q0 -3 -9.5 -12.5t-12.5 -9.5z" />
    <glyph glyph-name="oacute" unicode="&#xf3;" horiz-adv-x="348" 
d="M137 325q1 3 1 6.5t1 6.5q2 16 2 29q0 71 -30 110q-24 27 -57 27q-16 -1 -29 -12.5t-13 -32.5q0 -28 21 -55q45 -55 104 -79zM46 169q-24 0 -46 17q-25 24 -32 58q-2 7 -2 11q-5 5 -5 52q0 62 29 120l1 3q-5 13 -5 26q0 38 27 59q20 14 44 16q48 -2 78 -41
q34 -47 34 -122q0 -25 -4 -50l15 -1q65 0 133 73q31 34 35 34q8 -2 8 -13q0 -13 -59 -67q-54 -50 -119 -50l-18 1q-6 -23 -17 -44q-33 -79 -97 -82zM46 199q17 0 32 11q38 31 54 91q-1 1 -3 1l-25 12q-64 38 -94 79q-18 -44 -18 -89q0 -72 31 -97q10 -8 23 -8zM-20 610
q-2 0 -10 11t-8 16l72 56l72 64v1l25 24q5 0 14 -10.5t9 -12.5l-57 -56q-39 -34 -117 -93z" />
    <glyph glyph-name="ocircumflex" unicode="&#xf4;" horiz-adv-x="348" 
d="M136 325q1 3 1 6.5t1 6.5q2 16 2 29q0 71 -30 110q-24 27 -57 27q-16 -1 -29 -12.5t-13 -32.5q0 -28 21 -55q45 -55 104 -79zM45 169q-24 0 -46 17q-25 24 -32 58q-2 7 -2 11q-5 5 -5 52q0 62 29 120l1 3q-5 13 -5 26q0 38 27 59q20 14 44 16q48 -2 78 -41
q34 -47 34 -122q0 -25 -4 -50l15 -1q65 0 133 73q31 34 35 34q8 -2 8 -13q0 -13 -59 -67q-54 -50 -119 -50l-18 1q-6 -23 -17 -44q-33 -79 -97 -82zM45 199q17 0 32 11q38 31 54 91q-1 1 -3 1l-25 12q-64 38 -94 79q-18 -44 -18 -89q0 -72 31 -97q10 -8 23 -8zM195 599
q-40 46 -80 112l-10 13q-6 0 -24 -15q-2 -4 -107 -103q-4 0 -12 9t-9 13q0 2 114 111q15 15 36 17q27 -1 39 -26q29 -48 77 -112q0 -4 -9.5 -11t-14.5 -8z" />
    <glyph glyph-name="otilde" unicode="&#xf5;" horiz-adv-x="348" 
d="M137 325q1 3 1 6.5t1 6.5q2 16 2 29q0 71 -30 110q-24 27 -57 27q-16 -1 -29 -12.5t-13 -32.5q0 -28 21 -55q45 -55 104 -79zM46 169q-24 0 -46 17q-25 24 -32 58q-2 7 -2 11q-5 5 -5 52q0 62 29 120l1 3q-5 13 -5 26q0 38 27 59q20 14 44 16q48 -2 78 -41
q34 -47 34 -122q0 -25 -4 -50l15 -1q65 0 133 73q31 34 35 34q8 -2 8 -13q0 -13 -59 -67q-54 -50 -119 -50l-18 1q-6 -23 -17 -44q-33 -79 -97 -82zM46 199q17 0 32 11q38 31 54 91q-1 1 -3 1l-25 12q-64 38 -94 79q-18 -44 -18 -89q0 -72 31 -97q10 -8 23 -8zM244 627h-4
q-2 0 -22 20q2 0 2 7q0 12 -16 19l-1 1h-4v1l-9 1q-18 0 -43 -10q-9 -4 -11.5 -4.5t-4 -1t-3.5 -0.5q-27 -10 -91 -16q-14 0 -44 6q-5 1 -26 17q-13 15 -13 37q0 10 7 22q12 0 25 -17q0 -21 17 -27v-1h4v-1q17 -3 27 -3q24 0 29 2t9 2q14 1 64 16q32 11 57 11l14 -1l2 -1
l12 -4q32 -22 32 -52l-3 -14q-3 -2 -3 -3.5t-3 -5.5z" />
    <glyph glyph-name="odieresis" unicode="&#xf6;" horiz-adv-x="348" 
d="M137 325q1 3 1 6.5t1 6.5q2 16 2 29q0 71 -30 110q-24 27 -57 27q-16 -1 -29 -12.5t-13 -32.5q0 -28 21 -55q45 -55 104 -79zM46 169q-24 0 -46 17q-25 24 -32 58q-2 7 -2 11q-5 5 -5 52q0 62 29 120l1 3q-5 13 -5 26q0 38 27 59q20 14 44 16q48 -2 78 -41
q34 -47 34 -122q0 -25 -4 -50l15 -1q65 0 133 73q31 34 35 34q8 -2 8 -13q0 -13 -59 -67q-54 -50 -119 -50l-18 1q-6 -23 -17 -44q-33 -79 -97 -82zM46 199q17 0 32 11q38 31 54 91q-1 1 -3 1l-25 12q-64 38 -94 79q-18 -44 -18 -89q0 -72 31 -97q10 -8 23 -8zM5 630
q-12 0 -24 9.5t-13 26.5q0 29 26 36l2 1l11 1q15 0 26.5 -10t11.5 -28q0 -13 -11 -24.5t-29 -11.5zM115 624q-13 0 -25 10t-12 29q0 24 25 33q8 2 14 2q14 0 25.5 -9.5t12.5 -26.5q0 -27 -27 -36q-7 -2 -13 -2z" />
    <glyph glyph-name="divide" unicode="&#xf7;" horiz-adv-x="497" 
d="M378 510l-315 1q-1 0 -2 15q0 17 3 17h315q2 0 2 -17q0 -15 -3 -16zM218 331q-21 0 -35 14t-14 33q0 20 14 33.5t35 13.5q20 0 34.5 -13.5t14.5 -33.5q0 -19 -14 -34q-15 -13 -35 -13zM215 607q-21 0 -35 14t-14 33q0 20 14 33.5t35 13.5q20 0 34.5 -13.5t14.5 -33.5
q0 -19 -14 -34q-15 -13 -35 -13z" />
    <glyph glyph-name="oslash" unicode="&#xf8;" horiz-adv-x="348" 
d="M28 204q19 67 40 134q-37 27 -58 55q-18 -44 -18 -89q0 -72 31 -97zM-8 0q-16 0 -16 10q21 83 44 164q-41 19 -52 70q-2 7 -2 11q-5 5 -5 52q0 63 30 122q-5 14 -5 27q0 38 27 59q20 14 44 16q39 -1 65 -27l101 275q2 4 9 4q9 0 13 -11q-65 -178 -104 -291
q28 -44 28 -113q0 -25 -4 -50l15 -1q65 0 133 73q31 34 35 34q8 -2 8 -13q0 -13 -59 -67q-54 -50 -119 -50l-18 1q-35 -126 -117 -126q-24 -85 -45 -164q-1 -5 -6 -5zM52 199q13 3 26 11q38 31 54 91l-28 13q-7 5 -15 9zM75 362l37 114l-1 1q-24 27 -57 27q-16 -1 -29 -12.5
t-13 -32.5q0 -45 63 -97zM137 325q4 23 4 42q0 47 -13 79q-28 -83 -32 -99q19 -12 41 -22z" />
    <glyph glyph-name="ugrave" unicode="&#xf9;" horiz-adv-x="410" 
d="M162 94q-52 0 -53 73q0 50 18 135l-4 -6q-56 -73 -82 -84v-1h-1q-12 -6 -29 -6q-7 0 -12.5 2t-7.5 3t-3.5 1t-3.5 1q-23 16 -26 38q-3 13 -3 34l2 14q3 47 16 77q1 2 1 3.5t0.5 4t2.5 4.5q5 14 6 14q13 30 17 30q3 0 13.5 -5.5t10.5 -11.5q-26 -58 -26 -67q0 -2 -1 -3
q-9 -39 -9 -65q0 -31 13 -39l11 -3q9 0 16 5q5 0 5 3q17 0 106 134q12 21 18 30q3 13 9 13q9 0 18 -8q6 -4 6 -9q-43 -115 -51 -241q0 -39 20 -41q47 0 147 153l61 96q37 62 44 62q12 0 12 -10q0 -4 -40 -75q-77 -124 -110 -166q-59 -79 -101 -87q-2 -2 -10 -2zM184 551
q-73 72 -150 172q0 1 4.5 5.5t9 7t8 5t4.5 2.5q87 -112 111 -133l35 -37q0 -3 -9.5 -12.5t-12.5 -9.5z" />
    <glyph glyph-name="uacute" unicode="&#xfa;" horiz-adv-x="410" 
d="M162 94q-52 0 -53 73q0 50 18 135l-4 -6q-56 -73 -82 -84v-1h-1q-12 -6 -29 -6q-7 0 -12.5 2t-7.5 3t-3.5 1t-3.5 1q-23 16 -26 38q-3 13 -3 34l2 14q3 47 16 77q1 2 1 3.5t0.5 4t2.5 4.5q5 14 6 14q13 30 17 30q3 0 13.5 -5.5t10.5 -11.5q-26 -58 -26 -67q0 -2 -1 -3
q-9 -39 -9 -65q0 -31 13 -39l11 -3q9 0 16 5q5 0 5 3q17 0 106 134q12 21 18 30q3 13 9 13q9 0 18 -8q6 -4 6 -9q-43 -115 -51 -241q0 -39 20 -41q47 0 147 153l61 96q37 62 44 62q12 0 12 -10q0 -4 -40 -75q-77 -124 -110 -166q-59 -79 -101 -87q-2 -2 -10 -2zM54 555
q-2 0 -10 11t-8 16l72 56l72 64v1l25 24q5 0 14 -10.5t9 -12.5l-57 -56q-39 -34 -117 -93z" />
    <glyph glyph-name="ucircumflex" unicode="&#xfb;" horiz-adv-x="410" 
d="M162 94q-52 0 -53 73q0 50 18 135l-4 -6q-56 -73 -82 -84v-1h-1q-12 -6 -29 -6q-7 0 -12.5 2t-7.5 3t-3.5 1t-3.5 1q-23 16 -26 38q-3 13 -3 34l2 14q3 47 16 77q1 2 1 3.5t0.5 4t2.5 4.5q5 14 6 14q13 30 17 30q3 0 13.5 -5.5t10.5 -11.5q-26 -58 -26 -67q0 -2 -1 -3
q-9 -39 -9 -65q0 -31 13 -39l11 -3q9 0 16 5q5 0 5 3q17 0 106 134q12 21 18 30q3 13 9 13q9 0 18 -8q6 -4 6 -9q-43 -115 -51 -241q0 -39 20 -41q47 0 147 153l61 96q37 62 44 62q12 0 12 -10q0 -4 -40 -75q-77 -124 -110 -166q-59 -79 -101 -87q-2 -2 -10 -2zM248 565
q-40 46 -80 112l-10 13q-6 0 -24 -15q-2 -4 -107 -103q-4 0 -12 9t-9 13q0 2 114 111q15 15 36 17q27 -1 39 -26q29 -48 77 -112q0 -4 -9.5 -11t-14.5 -8z" />
    <glyph glyph-name="udieresis" unicode="&#xfc;" horiz-adv-x="410" 
d="M162 94q-52 0 -53 73q0 50 18 135l-4 -6q-56 -73 -82 -84v-1h-1q-12 -6 -29 -6q-7 0 -12.5 2t-7.5 3t-3.5 1t-3.5 1q-23 16 -26 38q-3 13 -3 34l2 14q3 47 16 77q1 2 1 3.5t0.5 4t2.5 4.5q5 14 6 14q13 30 17 30q3 0 13.5 -5.5t10.5 -11.5q-26 -58 -26 -67q0 -2 -1 -3
q-9 -39 -9 -65q0 -31 13 -39l11 -3q9 0 16 5q5 0 5 3q17 0 106 134q12 21 18 30q3 13 9 13q9 0 18 -8q6 -4 6 -9q-43 -115 -51 -241q0 -39 20 -41q47 0 147 153l61 96q37 62 44 62q12 0 12 -10q0 -4 -40 -75q-77 -124 -110 -166q-59 -79 -101 -87q-2 -2 -10 -2zM63 593
q-12 0 -24 9.5t-13 26.5q0 29 26 36l2 1l11 1q15 0 26.5 -10t11.5 -28q0 -13 -11 -24.5t-29 -11.5zM173 587q-13 0 -25 10t-12 29q0 24 25 33q8 2 14 2q14 0 25.5 -9.5t12.5 -26.5q0 -27 -27 -36q-7 -2 -13 -2z" />
    <glyph glyph-name="yacute" unicode="&#xfd;" horiz-adv-x="468" 
d="M-127 -837q8 0 12 4q1 1 1.5 1t2 0.5t7.5 8.5q3 3 7.5 5.5t23.5 37.5q87 167 175 543l8 35q16 70 29 137q-48 -69 -84 -124q-222 -342 -222 -542q0 -40 15 -90q6 -16 25 -16zM-130 -866q-48 3 -59 73l-1 6q-5 29 -5 55q0 114 61 253q87 201 285 481q33 178 50 337
l-31 -60q-31 -52 -63 -78q-16 -14 -27 -14q-5 -2 -11 -2q-92 0 -92 139q0 66 22 156q7 30 8.5 31.5t4.5 1.5q9 0 17 -4.5t8 -9.5q-24 -97 -27 -177q0 -103 56 -104q7 0 8 1q36 21 69 79q57 102 74 198q3 4 10 4q3 0 8.5 -1t9.5 -3t4 -7q-3 -15 -7 -29q1 -2 1 -10
q-14 -188 -50 -389q151 194 258 349q12 16 19 16t7 -8q0 -19 -113 -171q-5 -2 -182 -250q-23 -123 -53 -251q-90 -391 -182 -549q-27 -45 -55 -59q-1 0 -2 -0.5t-3 -2t-17 -1.5zM66 610q-2 0 -10 11t-8 16l72 56l72 64v1l25 24q5 0 14 -10.5t9 -12.5l-57 -56
q-39 -34 -117 -93z" />
    <glyph glyph-name="ydieresis" unicode="&#xff;" horiz-adv-x="468" 
d="M-127 -837q8 0 12 4q1 1 1.5 1t2 0.5t7.5 8.5q3 3 7.5 5.5t23.5 37.5q87 167 175 543l8 35q16 70 29 137q-48 -69 -84 -124q-222 -342 -222 -542q0 -40 15 -90q6 -16 25 -16zM-130 -866q-48 3 -59 73l-1 6q-5 29 -5 55q0 114 61 253q87 201 285 481q33 178 50 337
l-31 -60q-31 -52 -63 -78q-16 -14 -27 -14q-5 -2 -11 -2q-92 0 -92 139q0 66 22 156q7 30 8.5 31.5t4.5 1.5q9 0 17 -4.5t8 -9.5q-24 -97 -27 -177q0 -103 56 -104q7 0 8 1q36 21 69 79q57 102 74 198q3 4 10 4q3 0 8.5 -1t9.5 -3t4 -7q-3 -15 -7 -29q1 -2 1 -10
q-14 -188 -50 -389q151 194 258 349q12 16 19 16t7 -8q0 -19 -113 -171q-5 -2 -182 -250q-23 -123 -53 -251q-90 -391 -182 -549q-27 -45 -55 -59q-1 0 -2 -0.5t-3 -2t-17 -1.5zM109 630q-12 0 -24 9.5t-13 26.5q0 29 26 36l2 1l11 1q15 0 26.5 -10t11.5 -28
q0 -13 -11 -24.5t-29 -11.5zM219 624q-13 0 -25 10t-12 29q0 24 25 33q8 2 14 2q14 0 25.5 -9.5t12.5 -26.5q0 -27 -27 -36q-7 -2 -13 -2z" />
    <glyph glyph-name="dotlessi" unicode="&#x131;" horiz-adv-x="398" 
d="M154 -21h-7q-19 0 -19 9q12 360 21 718q0 7 9 7q23 0 23 -10q-18 -723 -27 -724z" />
    <glyph glyph-name="circumflex" unicode="&#x2c6;" horiz-adv-x="390" 
d="M248 758q-26 30 -91 123q-8 0 -24 -16q-1 -3 -105 -105q-4 0 -13 9.5t-9 13.5l112 112q17 18 36 19q26 -1 39 -26q43 -67 74 -102l6 -8q0 -4 -10 -12t-15 -8z" />
    <glyph glyph-name="caron" unicode="&#x2c7;" horiz-adv-x="301" 
d="M136 764q-11 0 -12.5 0.5t-3.5 1t-22 15.5l-60 60q-35 32 -35 34q0 3 9.5 12.5t13.5 9.5q53 -51 108 -101q1 1 3 1q37 20 82 99q3 0 15 -6.5t12 -9.5q-7 -14 -15.5 -26.5t-11.5 -17.5q-6 -9 -13 -16q0 -1 -1 -3t-2 -3l-17 -17q0 -1 -12 -13q-18 -20 -38 -20z" />
    <glyph glyph-name="uni02C9" unicode="&#x2c9;" horiz-adv-x="528" 
d="M464 936l-397 1q-3 0 -3 15q0 17 4 17h397q3 0 3 -17q0 -15 -4 -16z" />
    <glyph glyph-name="breve" unicode="&#x2d8;" horiz-adv-x="313" 
d="M132 792q-70 0 -92 18q-36 24 -37 53q0 5 27 5q6 0 6 -7h1v-1q2 -7 14 -18q0 -1 8 -5v-1h1q2 0 7 -3q16 -8 71 -8q27 0 44 7q1 1 2.5 1t3.5 0.5t4 1.5t3.5 1.5t3.5 3.5q3 0 4 3q10 5 25 29q5 0 17 -4.5t12 -7.5q-1 -2 -1 -3.5t-1.5 -3.5t-2 -3t-0.5 -1.5t-1.5 -2
t-1.5 -4.5q-4 -4 -7 -9q-15 -17 -48 -32q-1 -1 -2.5 -1t-4 -0.5t-5.5 -2.5q-23 -5 -50 -5z" />
    <glyph glyph-name="dotaccent" unicode="&#x2d9;" horiz-adv-x="236" 
d="M62 771q-15 0 -26 10.5t-11 25.5t11 25t26 10t26 -10t11 -25t-11 -25.5t-26 -10.5z" />
    <glyph glyph-name="ring" unicode="&#x2da;" horiz-adv-x="267" 
d="M99 777q9 0 18 4q5 0 5 1.5t2 3.5q14 8 14 32q0 14 -7 24q0 1 -9 10v1l-14 5q-21 0 -30 -17q-1 -3 -1.5 -3.5t-0.5 -2.5t-2 -4h-1q-4 -4 -4 -5q-4 -7 -4 -15q0 -15 8 -24l8 -6l4 -1q7 -3 14 -3zM100 755q-25 0 -46 21q-2 2 -2.5 4t-2.5 5q-6 8 -6 26q0 17 14 35
q1 2 1.5 3.5t0.5 3.5t6 6q0 2 4 6q17 14 32 14l4 1l18 -3l2 -1l9 -5l6 -5q0 -1 1.5 -1t3.5 -3.5t5 -7.5q10 -18 10 -35q0 -30 -16 -44q-2 -2 -2 -3q-18 -17 -42 -17z" />
    <glyph glyph-name="ogonek" unicode="&#x2db;" horiz-adv-x="270" 
d="M83 0q-22 0 -56 23q0 2 -1 3t-2.5 3.5t-3 3t-3.5 3.5q-17 26 -17 60q1 33 22 72q18 25 36 34q0 2 6 3q15 7 34 7q14 0 20 -3q5 0 13 -7q0 -6 -6.5 -16t-9.5 -10q-9 4 -17 4q-13 0 -24 -6l-4 -3h-1q-36 -29 -36 -79q0 -22 11 -37q15 -22 43 -22q15 0 18 6q2 0 4 2
q2 0 13 -11q8 -8 8 -13q0 -2 -1 -2.5t-7 -4.5q-4 -2 -4.5 -2t-1.5 -1t-2 -1t-3 -1.5t-7 -1.5q-3 -3 -21 -3z" />
    <glyph glyph-name="tilde" unicode="&#x2dc;" horiz-adv-x="396" 
d="M116 746h-17q-4 2 -9 2t-28 13q-19 16 -19 43q0 5 1.5 7t1.5 3.5t1 2.5v2h1q5 0 13.5 -4.5t13.5 -9.5q0 -15 17 -24h3v-1h4v-1q26 0 35 3l9 1q11 2 17 5q9 0 65 25q38 19 69 19q6 0 9 -1.5t6 -1.5q35 -17 38 -47l-1 -14l-1.5 -3t-0.5 -2.5t-1 -2.5l-2 -2l-2 -1
q-6 0 -15 9q-5 5 -11 8q1 0 1 2q0 18 -18 22l-1 1h-4l-1 1q-21 0 -50 -16q-8 -6 -13 -6v-1h-1l-4 -2q-25 -12 -88 -27h-3q-9 -2 -15 -2z" />
    <glyph glyph-name="hungarumlaut" unicode="&#x2dd;" horiz-adv-x="338" 
d="M110 813l-24 21q24 32 32 44l25 48q29 -13 29 -15q-11 -24 -11.5 -25t-0.5 -1.5t-1 -2.5t-3 -3q-15 -27 -46 -66zM163 779l-26 19q35 51 60 105q15 -4 30 -14q-25 -52 -64 -110z" />
    <glyph glyph-name="endash" unicode="&#x2013;" horiz-adv-x="947" 
d="M700 411l-651 1q-4 0 -4 15q0 17 7 17h650q5 0 5 -17q0 -15 -7 -16z" />
    <glyph glyph-name="emdash" unicode="&#x2014;" horiz-adv-x="1313" 
d="M1092 411l-1040 1q-7 0 -7 15q0 17 10 17h1039q8 0 8 -17q0 -15 -10 -16z" />
    <glyph glyph-name="quoteleft" unicode="&#x2018;" horiz-adv-x="22" 
d="M-101 775q1 0 5.5 -4t7.5 -6q9 -9 10 -10.5t1 -2.5l-8 -10q-13 -25 -13 -42q0 -21 9 -38l4 -7l6 -7l-12 -12q-5 -5 -11 -9l-2 -1l-9 12q-18 27 -18 64q1 37 30 73z" />
    <glyph glyph-name="quoteright" unicode="&#x2019;" horiz-adv-x="22" 
d="M-107 626q-1 0 -5.5 4t-7.5 6q-9 9 -10 10.5t-1 2.5l9 10q12 25 12 42q0 21 -9 38l-4 7l-6 7l12 12q6 6 12 10h1l9 -12q18 -27 18 -64q-1 -37 -30 -73z" />
    <glyph glyph-name="quotesinglbase" unicode="&#x201a;" horiz-adv-x="302" 
d="M95 -23q-1 0 -5.5 4t-7.5 6q-9 9 -10 10.5t-1 2.5l9 10q12 25 12 42q0 21 -9 38l-4 7l-6 7l12 12q6 6 12 10h1l9 -12q18 -27 18 -64q-1 -37 -30 -73z" />
    <glyph glyph-name="quotedblleft" unicode="&#x201c;" horiz-adv-x="302" 
d="M163 882l-12 15q-16 28 -18 58q0 40 27 76l3 -1l21 -21q-18 -26 -18 -52q0 -28 21 -52q0 -1 -3 -5l-8 -8q-3 -2 -6 -5t-4.5 -4t-2.5 -1zM92 882l-10 12q-18 25 -20 61q0 40 27 76l3 -1l21 -21q-18 -26 -18 -52q0 -28 21 -52l-1 -3q-11 -11 -23 -20z" />
    <glyph glyph-name="quotedblright" unicode="&#x201d;" horiz-adv-x="302" 
d="M86 882q-1 0 -5.5 4t-7.5 6q-9 9 -10 10.5t-1 2.5l9 10q12 25 12 42q0 21 -9 38l-4 7l-6 7l12 12q6 6 12 10h1l9 -12q18 -27 18 -64q-1 -37 -30 -73zM156 882l-12 10q-9 9 -10 10.5t-1 2.5l7 8q14 14 14 44q0 21 -9 38l-4 7l-6 7l12 12q6 6 12 10h1l9 -12q18 -28 18 -64
q-2 -42 -31 -73z" />
    <glyph glyph-name="quotedblbase" unicode="&#x201e;" horiz-adv-x="302" 
d="M95 -23q-1 0 -5.5 4t-7.5 6q-9 9 -10 10.5t-1 2.5l9 10q12 25 12 42q0 21 -9 38l-4 7l-6 7l12 12q6 6 12 10h1l9 -12q18 -27 18 -64q-1 -37 -30 -73zM165 -23l-12 10q-9 9 -10 10.5t-1 2.5l7 8q14 14 14 44q0 21 -9 38l-4 7l-6 7l12 12q6 6 12 10h1l9 -12q18 -28 18 -64
q-2 -42 -31 -73z" />
    <glyph glyph-name="dagger" unicode="&#x2020;" horiz-adv-x="497" 
d="M167 120q-22 3 -24 10l17 526q-77 -4 -140 -12q-5 0 -5 27q2 12 146 19q5 124 9 133q3 23 12 23q8 -1 16 -6.5t8 -10.5q-7 -19 -8.5 -59t-3.5 -79q80 0 178 -7q1 0 1 -1q0 -30 -11 -30h-7q-64 6 -121 6l-42 -1l-16 -532q-1 -4 -9 -6z" />
    <glyph glyph-name="daggerdbl" unicode="&#x2021;" horiz-adv-x="515" 
d="M178 175q-26 2 -28 9l4 196q-49 -2 -154 -16q-4 0 -5 20q0 12 2 13l54 7q6 0 45 4.5t59 4.5q2 156 5 298q-96 -6 -100 -10l-9 -1q-8 0 -21 -2h-8h-3.5t-1.5 1.5t-1 5.5t-1 7l-1 11q2 9 147 20q3 114 5 122l6 32l3 2q13 0 20.5 -4t7.5 -9q-7 -24 -7.5 -62.5t-1.5 -77.5
q125 0 176 -4q3 0 3 -10q-1 -20 -7 -23q-85 5 -109 5l-64 -1l-5 -299q51 0 62 1l101 -5q2 0 2 -9q-4 -24 -6 -24q-54 5 -120 5l-40 -1l-4 -200q0 -4 -5 -6z" />
    <glyph glyph-name="bullet" unicode="&#x2022;" horiz-adv-x="399" 
d="M195 388q-39 0 -66.5 26.5t-27.5 63.5q0 38 27.5 64t66.5 26q38 0 65.5 -26t27.5 -64q0 -37 -27.5 -63.5t-65.5 -26.5z" />
    <glyph glyph-name="ellipsis" unicode="&#x2026;" horiz-adv-x="501" 
d="M26 65q-10 0 -18 7.5t-8 17.5q0 11 8 18t18 7q11 0 18.5 -7t7.5 -18q0 -10 -7.5 -17.5t-18.5 -7.5zM144 63q-10 0 -18 7.5t-8 17.5q0 11 8 18t18 7q11 0 18.5 -7t7.5 -18q0 -10 -7.5 -17.5t-18.5 -7.5zM256 65q-10 0 -18 7.5t-8 17.5q0 11 8 18t18 7q11 0 18.5 -7
t7.5 -18q0 -10 -7.5 -17.5t-18.5 -7.5z" />
    <glyph glyph-name="guilsinglleft" unicode="&#x2039;" horiz-adv-x="595" 
d="M269 236q-209 153 -214 159t-5 9.5t-1 4.5q0 8 2 10q2 9 9 15l1 2q31 31 86 67q71 46 98 76q4 2 4.5 3t0.5 2t13 16q13 20 14 20q5 0 15 -6.5t10 -11.5q-15 -26 -22 -32l-1 -3h-1q-36 -43 -114 -92q-49 -32 -80 -62v-1h1q2 -1 3 -2.5t2 -1.5l18 -13q183 -136 183 -137
q0 -4 -8 -13t-14 -9z" />
    <glyph glyph-name="guilsinglright" unicode="&#x203a;" horiz-adv-x="524" 
d="M82 236q-6 0 -14 9t-8 13q0 2 207 154v1q-31 30 -80 62q-78 49 -114 92h-1l-1 3q-7 6 -22 32q0 5 10.5 11.5t14.5 6.5q2 0 14 -20q12 -15 13 -17t5 -4q27 -30 98 -76q52 -34 85 -66q2 -2 2 -3q8 -6 9 -15q2 -2 2 -10l-1 -1q0 -7 -5 -13t-214 -159z" />
    <glyph glyph-name="fraction" unicode="&#x2044;" horiz-adv-x="472" 
d="M21 0q-9 0 -15 5.5t-6 11.5q125 442 284 844q49 129 73 183l26 66q4 6 11 6q8 0 13.5 -6.5t5.5 -11.5q0 -4 -19 -49q-6 -13 -12 -29q-69 -168 -69 -174l-108 -290q-99 -295 -175 -549q-1 -7 -9 -7z" />
    <glyph glyph-name="fraction" unicode="&#x2215;" horiz-adv-x="472" 
d="M21 0q-9 0 -15 5.5t-6 11.5q125 442 284 844q49 129 73 183l26 66q4 6 11 6q8 0 13.5 -6.5t5.5 -11.5q0 -4 -19 -49q-6 -13 -12 -29q-69 -168 -69 -174l-108 -290q-99 -295 -175 -549q-1 -7 -9 -7z" />
    <glyph glyph-name="franc" unicode="&#x20a3;" horiz-adv-x="558" 
d="M123 231q-22 0 -22 8v68q-91 1 -91.5 4t-0.5 6q0 23 3 23h89v175h-44q-1 0 -1.5 5t-0.5 11q2 17 3 17h43l1 123q0 78 1 123q-93 0 -93.5 3t-0.5 6q0 22 6 22h88q0 29 3.5 29.5t4.5 0.5q23 0 23 -7v-23q305 0 306 -3.5t1 -6.5q0 -22 -5 -22q-196 0 -302 1v-246h171
q2 0 3 -5q0 -28 -3 -28h-171l-1 -175h44q2 0 2 -17q0 -16 -2 -16h-44l-2 -74z" />
    <glyph glyph-name="lira" unicode="&#x20a4;" horiz-adv-x="506" 
d="M358 169l-10 8h-1q-57 42 -152 42q-4 -2 -37 -5q-67 -18 -83 -18t-33 -1q-4 0 -7 3q-12 9 -12 19q0 3 5 7t22 26l5 8q5 5 16 25q42 66 42 161h-90q-1 0 -2 16q2 16 3 16h87q-3 20 -12 53h-76q-1 0 -2 16q2 17 3 17h65q-30 82 -30 140q0 26 5 42q2 6 2 12q1 0 3 9l1 2
q11 24 12.5 25.5t3.5 6.5q0 1 2 3.5t16 22.5q53 62 109 76q3 1 5 1t4 1q11 0 15 1q23 0 42 -7q57 -21 68 -71q0 -7 -14 -9q-12 0 -19 7q0 3 -2 6q-9 25 -46 37q-11 4 -34 4l-3 -1q-10 0 -12 -2q-56 -15 -101 -83l-3 -5q-6 -6 -6 -11q-7 -9 -7 -17q-7 -25 -7 -49t9 -71
l21 -70q117 -1 118 -3q0 -29 -3 -30h-106q9 -21 11 -53q97 -1 98 -3q0 -29 -3 -29h-93v-7q0 -119 -69 -207h2q98 20 133 22q86 0 164 -54q0 -1 4 -3q0 -13 -21 -26z" />
    <glyph glyph-name="Euro" unicode="&#x20ac;" horiz-adv-x="479" 
d="M305 181q-38 8 -47 14q-4 5 -9 5.5t-11 5.5q-19 12 -20.5 13.5t-2.5 1.5t-2 1q-70 54 -106 145q0 2 -1 3q-5 15 -13 53q-2 6 -2 10.5t-1 10.5t-1 12.5t-1 13.5h-71q-1 0 -1.5 5t-0.5 11q0 17 2 17h71q0 20 3 40h-74q-1 0 -1.5 5t-0.5 12q0 16 2 16h78q10 63 37 126
q14 42 43 86q13 17 13 18q49 60 123 66q7 0 7 -13q0 -20 -12 -20q-67 -17 -87 -47l-3 -5l-13 -16q-51 -77 -74 -195h62q1 0 1 -5q0 -27 -2 -28h-66q-3 -18 -3 -40h70q1 0 1 -5q0 -28 -2 -28h-69q6 -115 83 -197q47 -47 88 -55l21 -6q5 -1 5 -9q0 -4 -1.5 -9.5t-4 -9
t-7.5 -3.5z" />
    <glyph glyph-name="uni2116" unicode="&#x2116;" horiz-adv-x="710" 
d="M525 541q21 0 38 12l16 16q13 22 13 46q0 11 -2 18q-1 1 -1 3.5t-2 2.5q-1 11 -2.5 11t-8.5 11q-4 5 -10 9v1h-1q-15 7 -31 11q-4 -1 -17 -1l-1 -1q-4 0 -7 15q-17 -9 -30.5 -36t-13.5 -57q0 -16 7 -30q0 -6 4 -8.5t5 -3.5l1 -2q16 -17 43 -17zM525 509q-45 0 -75 35
q-18 30 -18 58q0 38 17 73q10 26 28 39q11 9 33 14q4 0 4 -15l21 2q2 -1 4.5 -1t7 -1.5t10 -2t23.5 -9.5l4 -3q30 -23 38 -59v-3q3 -11 3 -25q0 -43 -33 -76q0 -1 -0.5 -2t-1.5 -2t-4.5 -2.5t-4 -2t-4.5 -3.5l-1 -1q-24 -13 -51 -13zM585 413l-136 12q0 33 3 33q6 0 11 -1
q126 -11 126 -12l-1 -4q-1 -28 -3 -28zM67 303q-18 0 -21 7l39 542q2 4 9 4q23 0 23 -8v-12q15 6 22 6q3 -1 144 -306q26 -55 50 -95q8 75 14 158q5 114 8 158l3 73q1 3 11 3q21 0 22 -5q-24 -465 -40 -467q-23 1 -26 8l3 19q-22 23 -96 178l-116 254l-38 -513q0 -4 -11 -4z
" />
    <glyph glyph-name="trademark" unicode="&#x2122;" horiz-adv-x="403" 
d="M106 690q-22 0 -22 2q0 114 2 158q-77 1 -77.5 4.5t-0.5 6.5l2 22q156 0 156 -3l-1 -30h-48v-159q0 -1 -11 -1zM199 705q-13 0 -27 3q5 85 5 162l19 1q2 3 3 5.5t2 2.5l56 -25q21 22 29 25q12 5 26 9l4 -10q1 0 3.5 -1t6.5 -1.5t4 -2.5q-6 -36 -10 -72l-3 -82l-5 -2
q-27 0 -28 1q2 63 9 124q-21 -14 -25 -25l-4 -5q-1 0 -11 8l-44 20q-1 -67 -5 -134z" />
    <glyph glyph-name="partialdiff" unicode="&#x2202;" horiz-adv-x="472" 
d="M168 197q35 0 64 39q35 49 35 121q-1 54 -11 96q-5 -3 -7 -4l-4 -2t-4 -1q-21 9 -42 9l-12 -1l-1 -1q-10 0 -38 -16q-11 -8 -13.5 -11t-4.5 -5.5t-3.5 -4t-3 -4t-3 -4.5t-2 -3t-1.5 -2q-20 -36 -20 -84q0 -19 3 -36q17 -84 68 -86zM166 165l-12 1q-1 1 -3 1t-3 1
q-5 2 -6.5 2t-15.5 7q-49 35 -57 99q-4 7 -4 44q0 66 32 112q6 6 9 12q2 2 3 2t8 8l1 2l2 1q11 10 15 10q3 3 13 8q30 13 54 13q27 0 48 -11q-15 68 -37 101q-2 2 -2 4t-7 12q-26 50 -86 82q-14 4 -14 11q0 8 7 14.5t11 6.5l7 -1l23 -13q8 -6 9 -6q10 -5 37 -32l3 -2
q3 -3 12 -17l7 -9q44 -53 67 -166q3 -3 9 -49q3 -24 4 -50q0 -96 -54 -161q-36 -37 -80 -37z" />
    <glyph glyph-name="Delta" unicode="&#x2206;" horiz-adv-x="587" 
d="M60 207q-3 0 -4 12q-14 6 -14 10l72 213l78 210q2 2 6 2q5 -1 12 -4t10 -4q6 0 7 -2l67 -199q37 -101 79 -193q0 -2 -3 -4q-11 -8 -18 -8q0 -27 -5 -27l-108 3q-127 0 -138 -5h-10q-2 -1 -24 -3q-3 -1 -7 -1zM81 242q27 3 28.5 3t16.5 1q65 3 131 3q9 -1 25 -1l59 -3
q-9 21 -15 30q-46 107 -99 266l-20 59l-62 -171q-27 -81 -45 -131z" />
    <glyph glyph-name="product" unicode="&#x220f;" horiz-adv-x="479" 
d="M222 230q-25 0 -25 5l7 195l11 172h-96q-10 -143 -14 -269q-4 -100 -4.5 -101.5t-1.5 -1.5q-31 0 -31 5q8 184 18 367h-42q-1 0 -1.5 5t-0.5 11q2 16 3 16l254 1q2 0 2 -5q0 -27 -3 -28h-51q-18 -327 -18 -371q0 -1 -7 -1z" />
    <glyph glyph-name="summation" unicode="&#x2211;" horiz-adv-x="402" 
d="M229 218l-34 19q-29 14 -73 14q-20 -2 -41 -2l-70 -5q24 48 40 73q6 9 33 44l20 20l1 3q0 2 -3 5q0 2 -94 142l-6 8q6 13 14 19q9 4 19 5q131 0 140 -6.5t19 -36.5q0 -12 -24 -12q-4 0 -7 3l-8 21l-57 -1q-43 0 -57 -1h-8q104 -134 106 -139v-14h-1q0 -7 -11 -18
q-30 -33 -56 -71q0 -6 12 -6q23 1 47 1q41 0 41 2.5t1 3.5v2q8 10 18 10q17 0 28 -45z" />
    <glyph glyph-name="minus" unicode="&#x2212;" horiz-adv-x="497" 
d="M378 510l-315 1q-1 0 -2 15q0 17 3 17h315q2 0 2 -17q0 -15 -3 -16z" />
    <glyph glyph-name="radical" unicode="&#x221a;" horiz-adv-x="439" 
d="M140 193q-85 136 -85 137q0 5 10.5 10t14.5 5q3 0 54 -81q78 180 185 344q2 2 4 2q3 0 13 -6.5t10 -12.5q-115 -179 -206 -398z" />
    <glyph glyph-name="integral" unicode="&#x222b;" horiz-adv-x="383" 
d="M80 228q5 0 7.5 1t5 1t3.5 1q70 35 100 264q15 103 21 116q2 3 2.5 5t2.5 2q5 9 19 13q9 0 14 -9l4 1q9 -3 13 -3q15 0 15 8q-1 2 -1 4.5t-3 6.5q-10 25 -43 25l-1 -1h-6q-52 -17 -58 -86q-12 -78 -24.5 -155.5t-35.5 -119.5l-3 -8q-6 -8 -6 -10q-4 -10 -15 -18
q-2 -5 -10 -5l-1 -1q-17 3 -23 11l-3 12l5 15q0 3 -8 16q-5 7 -12 7q-2 0 -4 -4q-13 -13 -13 -36q0 -15 13.5 -34t44.5 -19z" />
    <glyph glyph-name="approxequal" unicode="&#x2248;" horiz-adv-x="491" 
d="M282 434q-42 0 -69 15q-41 24 -52 27l-21 5q-15 0 -15 -1q-7 0 -14 -3q-18 -8 -19.5 -11.5t-1.5 -5t-0.5 -2.5t-20.5 -2q-19 0 -20 4q0 33 41 52q8 4 15 5q1 1 9 3q1 1 3 1q6 0 8 1l29 -1q3 -1 6 -1t5.5 -2.5t6 -2.5t41.5 -19q34 -22 62 -22l1 1q15 0 22 16q0 6 28 11
q12 0 13 -2q0 -37 -34 -59q-4 -1 -7 -3.5t-11 -2.5q-3 0 -5 -1zM276 347q-39 3 -62 16q-47 27 -55 27q0 3 -2 3q-6 0 -12 2q-19 0 -34 -3q-17 -9 -19 -15t-16 -6q-27 0 -27 3q0 35 42 52l11 4q5 2 5 3q11 3 26 3q23 0 29.5 -3.5t13.5 -3.5l33 -17q7 -7 28.5 -15.5t31.5 -8.5
q21 0 29 17v5q16 6 34 7q7 0 7 -4q0 -36 -34 -57q-4 -1 -7 -4q-4 0 -9 -2q-1 0 -2.5 -1t-4.5 -1t-6 -1z" />
    <glyph glyph-name="lessequal" unicode="&#x2264;" horiz-adv-x="463" 
d="M258 332q-78 36 -154 74l-24 11l63 48l97 71l25 12q5 0 9 -14q2 -8 2 -15l-1 -2q-2 -1 -3 -2t-2 -1q-5 0 -128 -91q44 -22 131 -62l1 -2q0 -4 -5.5 -15.5t-10.5 -11.5zM112 276q-2 2 -2 17q0 16 2 16l153 3q1 -1 1 -16l-1 -17z" />
    <glyph glyph-name="greaterequal" unicode="&#x2265;" horiz-adv-x="436" 
d="M98 332q-4 0 -10 11.5t-6 15.5l1 2q88 40 131 62q-123 91 -127 91l-2 1q-2 1 -3.5 2.5t-1.5 2.5q0 6 2 14q5 14 9 14l25 -12l97 -71l63 -48l-24 -11q-76 -38 -154 -74zM244 276l-153 3l-1 17q0 15 1 16l153 -3q2 0 2 -16q0 -15 -2 -17z" />
    <glyph glyph-name="uniE000" unicode="&#xe000;" horiz-adv-x="373" 
d="M-16 190l10 2l-1 -1q2 0 3.5 1.5t4 1.5t12.5 11q40 39 104 152q52 88 70 115q-13 2 -27 2q-55 0 -93 -25l-7 -5q-10 -4 -37 -33q-1 -1 -1.5 -2t-4.5 -5t-13 -18q-3 -3 -3.5 -4.5t-4 -5.5t-6.5 -10q-31 -46 -42 -103q0 -6 -2 -8l-1 -16l2 -17q6 -32 37 -32zM186 62
q-12 0 -15 16q-4 37 -4 71q0 33 2 67q0 100 28 211q-24 -39 -53 -90q-82 -139 -123 -168q-18 -12 -30 -12q-45 0 -68 34q0 5 -3 6q-8 21 -8 46q4 54 32 106l9 20l22 35q6 6 11 14q30 34 38 40q61 49 134 49q39 0 75 -12q14 -6 14 -11q-45 -149 -47 -268q0 -16 -1 -34t-1 -38
q0 -31 3 -64q0 -18 -15 -18z" />
    <glyph glyph-name="uniE001" unicode="&#xe001;" horiz-adv-x="365" 
d="M-44 64q2 2 5 2q113 74 155 120q37 39 56 97q15 37 15 68q0 6 -1 7q0 5 -1 6q-1 6 -8 13h-2q-16 -13 -29 -26q-126 -125 -190 -287zM46 546q126 251 221 523q46 132 51 185q-74 -41 -128 -212q-75 -228 -144 -496zM-100 -184q-6 0 -11.5 7.5t-5.5 17.5q11 89 26 188
q0 9 2 11v1q15 96 34 200q68 335 116 494q93 320 131 409q52 123 134 150q11 0 15.5 -4t4.5 -6q5 -5 7 -25q0 -39 -55 -203q-73 -208 -172 -422q-60 -127 -105 -197q-33 -150 -57 -276q68 124 183 233h1v1q13 13 28 13q14 0 25 -12q16 -18 16 -44q0 -34 -16 -75q0 -2 -1 -3
q-22 -65 -66 -112q-37 -34 -155 -118q-9 -7 -16.5 -12t-11 -8t-5.5 -3q-4 -4 -6 -4l-18 -129q-9 -68 -13.5 -70t-8.5 -2z" />
    <glyph glyph-name="uniE002" unicode="&#xe002;" horiz-adv-x="393" 
d="M53 106q-21 0 -43 10t-36 35q-22 36 -22 91q0 111 44 193l12 21q10 20 30.5 40.5t44.5 20.5q52 0 52 -56l1 -22q0 -39 -9 -90q-2 -8 -10 -8q-7 0 -14.5 5t-7.5 12q8 45 8 102q0 9 -1 12t-1 6v1q-1 1 -3 4t-13 3l-11 -3q-24 -8 -52 -65q-41 -83 -41 -163q0 -121 72 -121
q49 0 103 59l46 52q23 27 29 27q1 0 1 -1q0 -12 -15 -38q-42 -70 -101 -109q-28 -18 -63 -18z" />
    <glyph glyph-name="uniE003" unicode="&#xe003;" horiz-adv-x="423" 
d="M243 506q35 62 72 147q96 210 167 419q47 134 52 189q-48 -25 -86 -103q-49 -105 -139 -406q-16 -48 -60 -218zM169 29q-19 0 -19 28q13 180 31 298q-92 -130 -150 -171q-16 -9 -17.5 -9t-3.5 -2l-21 -3q-24 0 -44 14q-11 8 -14 17l-5 5t-3 10q-7 17 -7 36q0 22 3 25
q1 4 1 8.5t7.5 27.5t7.5 24q21 48 48 84q11 16 15 20q20 20 20 22q15 13 16 13q11 11 21 15q49 29 110 29q24 0 27.5 -1t5.5 -1.5t4 -1.5t4 -1t5 -1l4 17q52 209 144 488q75 244 179 280l2 1q15 0 20 -8q5 -4 7 -27q0 -52 -54 -205q-73 -214 -170 -427q-84 -179 -113 -209
l-4 -7q-22 -114 -25 -155q0 -10 -10 -92l-8 -123q-2 -18 -14 -18zM-12 203q14 2 15 3.5t4 1.5q60 39 175 204q6 11 12 17l10 52q-9 6 -42 6q-40 0 -84 -21q-4 -3 -10 -5.5t-18 -14.5q-10 -7 -27 -28q-5 -4 -7.5 -8.5t-6.5 -8.5q-24 -28 -44 -79q-13 -39 -14 -53l-1 -2
l-1 -18q1 -14 11 -33q1 -1 1 -3q17 -10 27 -10z" />
    <glyph glyph-name="uniE004" unicode="&#xe004;" horiz-adv-x="328" 
d="M-16 304q73 80 112 167q6 12 6 13.5t1 2.5l1 4q2 5 2 9q-1 2 -12 2q-28 -7 -53 -48q-42 -70 -57 -150zM37 75q-89 7 -89 138q0 98 33 184q52 135 121 135q17 0 29 -15q6 -7 6 -18q0 -12 -6 -24q0 -6 -7 -17l-1 -4q-33 -70 -89 -141q-42 -51 -57 -62q-2 -19 -2 -39
q0 -93 50 -109q5 -2 11 -2q41 0 116 70q24 20 33 20q5 0 5 -6q0 -25 -90 -87q-40 -23 -63 -23z" />
    <glyph glyph-name="uniE005" unicode="&#xe005;" horiz-adv-x="222" 
d="M-178 -635q15 0 23 25l8 27q2 10 8 28q65 252 75 597l1 113q-15 -56 -25.5 -102t-30.5 -123q-11 -58 -23.5 -113.5t-36.5 -211.5q-16 -129 -21 -197q0 -15 4 -27q2 -2 2 -3q5 -10 16 -13zM-175 -668q-58 0 -58 87q1 3 1 7.5t1.5 9.5t8.5 90q65 562 372 1396q0 2 1 3
q2 9 5 16q1 1 1 3q9 26 27 44l2 1q8 8 22 8q3 0 5 -1.5t4 -1.5t2 -7q0 -6 -7 -13v0q-1 -1 -2 -3.5t-7 -11.5q-9 -9 -15 -26l-37 -107q-94 -264 -168 -512q28 14 171 79q35 17 68 35q4 0 7.5 -6.5t3.5 -10.5q0 -6 -137 -74h-1v-1q-75 -36 -123 -64l-1 -126q0 -111 -12 -297
q-12 -224 -80 -460q-9 -39 -37 -54h-2l-1 -1h-2q-6 -2 -12 -2z" />
    <glyph glyph-name="uniE006" unicode="&#xe006;" horiz-adv-x="399" 
d="M-15 191l14 4q47 39 117 163l69 115h-3q-12 2 -20 2q-40 0 -77 -15q-13 -4 -21 -11q-3 -3 -9 -6q-37 -31 -49 -51v-1h-1l-3 -4.5t-1.5 -2.5t-2 -2.5t-2.5 -3.5t-2.5 -3.5t-4.5 -7.5q-21 -31 -34 -72q-10 -23 -10 -38l-1 -15q0 -16 2 -19q6 -32 39 -32zM-138 -869
q-64 0 -68 135q0 38 6.5 74.5t16.5 36.5q11 0 11 -28l-6 -76q0 -57 14 -89q3 -5 3 -10q12 -14 27 -14q1 1 4 1t9 6q57 49 125 262q101 323 160 693q28 178 40 319q-12 -16 -61 -103q-46 -78 -80 -124q-25 -33 -30 -33q-4 -7 -12 -10q-8 -8 -31 -13q-45 0 -68 34
q-11 23 -11 53q5 55 33 110q2 6 30 50q6 8 12 14.5t10 13.5q21 25 32 29q1 1 2 1.5t6 5.5t7 6q53 33 114 33q26 0 62 -9q19 0 19 -35q-25 -319 -114 -708q-40 -177 -95 -346q-64 -199 -129 -264l-2 -1q-3 -4 -6 -4q-10 -10 -30 -10z" />
    <glyph glyph-name="uniE007" unicode="&#xe007;" horiz-adv-x="345" 
d="M42 535q26 50 51 106l2 4q93 199 168 415q32 89 48 159q5 18 5 27q-70 -35 -130 -213q-106 -334 -143 -492zM-103 -193q-18 0 -18 25q0 5 13 101q9 71 29 189q45 246 80 383q42 195 154 540q39 118 83 176q33 44 82 63q1 1 3 1q25 0 25 -33q0 -52 -54 -205
q-76 -217 -172 -422q-56 -121 -107 -201q-33 -149 -67 -348q36 80 87 164q3 4 3 5q5 11 17 24q40 53 85 53q48 0 48 -99q-1 -55 -8 -92q-3 -22 -3 -37q0 -10 5.5 -22.5t16.5 -12.5q4 0 16 -10q7 -7 7 -10l-1 -2q-11 -5 -25 -5q-9 0 -22 8t-17 24q-7 19 -7 28q0 30 5 55
q5 50 5 77q0 69 -20 69t-41 -18q-21 -21 -33 -42q-51 -76 -98 -188q-30 -71 -47 -145l-1 -2l-9 -72q-3 -19 -14 -19z" />
    <glyph glyph-name="uniE008" unicode="&#xe008;" horiz-adv-x="184" 
d="M39 152h-5q-58 0 -59 84q0 104 21 193q2 4 9 4q5 0 9.5 -2t8.5 -5t4 -6q-21 -95 -21 -190q0 -49 33 -49q5 0 5 -20q0 -9 -5 -9zM35 464h-2q-3 0 -5.5 0.5t-4 1.5t-3 1.5t-5 0.5t-7 1.5t-6.5 1.5l9 37q4 -1 7.5 -1t9 -1t8.5 -2.5t4.5 -1.5t2.5 -1z" />
    <glyph glyph-name="uniE009" unicode="&#xe009;" horiz-adv-x="169" 
d="M-358 -883q-66 9 -66 145q0 38 8.5 75t17.5 37q10 0 10 -22q0 -14 -2 -28v-3q-5 -34 -5 -67q1 -30 3 -38q0 -12 4 -25q2 -9 2.5 -11t1.5 -4t1 -4t1 -3.5t1 -3t1 -2.5q3 -9 15 -14q6 -3 9 -3q13 0 26 16q5 3 6 7q24 30 44 74q60 135 114 337q68 257 112 526q32 197 42 355
q2 24 14 24q18 0 18 -34q-25 -329 -115 -714q-57 -246 -127 -433t-136 -187z" />
    <glyph glyph-name="uniE010" unicode="&#xe010;" horiz-adv-x="356" 
d="M-15 197l51 54q80 86 95 108q14 18 14 34q-2 6 -4 6q-4 0 -32 -18l-4 -4q-60 -40 -120 -180zM47 545q27 52 54 112q97 208 169 415q47 134 51 185q-28 -15 -51 -45q-40 -54 -78 -167q-112 -358 -145 -500zM-97 -181q-7 0 -12.5 7.5t-5.5 20.5q11 80 32 219l3 22q0 4 3 16
q10 62 22 123q5 43 52 247q8 26 12 53q32 147 152 530q38 115 83 176q33 44 82 63q1 1 3 1q13 0 17.5 -5.5t5.5 -6t3 -14.5q0 -58 -55 -212q-76 -217 -171 -422q-57 -123 -107 -200q-15 -58 -34 -159q37 70 89 116q38 33 63 36q9 0 18 -5t13 -13.5t4 -16.5q0 -30 -22 -58
q-36 -47 -129 -140q-33 -35 -45 -53q76 33 184 101q24 13 34 13q7 0 7 -5q0 -11 -31 -34q-161 -99 -205 -106q-6 0 -9 1l-4 -19q-19 -117 -31 -205q-8 -67 -13.5 -69t-7.5 -2z" />
    <glyph glyph-name="uniE011" unicode="&#xe011;" horiz-adv-x="201" 
d="M-112 -269h-5q-7 0 -13.5 6t-6.5 16l17 118l31 191l35 180l16 68q15 73 55 239q38 147 47 178q1 1 1 5q26 84 40 139q26 80 51 161q54 167 102 221q31 34 60 47q2 2 3.5 2h2.5l1 1q12 -1 12 -13q0 -11 -4 -15q0 -3 -6 -7q-50 -28 -87 -105q-20 -44 -43 -112
q-9 -29 -11 -32l-13 -44q0 -2 -1 -3q-8 -27 -15 -45q-10 -36 -22 -72q-4 -21 -15 -52q-54 -192 -98 -374l-16 -69l-29 -133l-37 -195l-17 -102q-7 -39 -28 -187q-2 -10 -7 -12z" />
    <glyph glyph-name="uniE012" unicode="&#xe012;" horiz-adv-x="519" 
d="M-54 96q-23 0 -28 23l1 9q28 194 100 387q6 12 13 12q8 0 13 -7t5 -13t-2 -10q-57 -150 -89 -322q47 119 130 252q21 32 43 32q40 0 40 -40l-26 -175q-2 -2 -2 -20q0 -7 5 -14l12 24q2 0 22 42q58 119 97 174q1 1 1 1.5t0.5 2t5 4.5t8.5 3q4 3 11 3q11 0 20 -10
q11 -14 11 -23l5 -28q0 -10 1 -16l1 -25l-2 -48q0 -45 8 -69q0 -4 1 -5.5t1.5 -3l1 -3t0.5 -2.5q8 -15 14 -15q1 -1 2.5 -1t2.5 -1q1 1 5 1q13 5 22 13q5 0 13.5 -4.5t8.5 -7.5q0 -1 -12 -12q-18 -14 -38 -14q-25 0 -39 25q-7 15 -7.5 18t-1 5t-0.5 4q-7 15 -7 81
q0 105 -12 114h-1l-1 -2l-21 -31q-31 -52 -85 -160q-7 -18 -30 -57q-7 -4 -16 -6q-13 0 -27 13q0 3 -5 8q-4 11 -4 21q11 84 24 167q4 22 4 29q-3 11 -12 11q-4 -1 -7 -4.5t-3.5 -3.5t-5.5 -9q-12 -22 -21 -33q-75 -128 -126 -268q-8 -16 -22 -16z" />
    <glyph glyph-name="uniE013" unicode="&#xe013;" horiz-adv-x="393" 
d="M-48 116q-4 0 -11 2t-11.5 4t-4.5 3q36 189 83 376l2 1q7 0 13 -2h2q15 -4 15 -9q-34 -133 -61 -267l99 167q33 59 82 59q52 0 52 -113q0 -52 9 -79.5t33 -27.5q17 0 38 20l21 21q5 0 5 -14q0 -18 -11 -29q-27 -22 -54 -25q-45 0 -60 48q-9 36 -9 85q-3 47 -5 61
q-5 23 -19 24q-14 -1 -16 -3q-14 -5 -25 -20q-20 -27 -59 -98q-76 -130 -99 -168q-1 -4 -1.5 -7t-1.5 -6t-6 -3z" />
    <glyph glyph-name="uniE014" unicode="&#xe014;" horiz-adv-x="308" 
d="M125 317q14 48 14 85q0 41 -17.5 71.5t-51.5 36.5q-45 0 -49 -51q0 -22 14 -47q29 -52 90 -95zM21 174q-75 0 -79 110q4 92 52 158l2 2l-1 24q11 68 72 68q54 0 82 -54q19 -35 19 -83t-16 -93q15 -5 34 -5q17 0 32 3q13 0 13 -7q0 -19 -44 -19q-15 0 -43 5
q-34 -76 -87 -100q-18 -9 -36 -9zM23 205q12 0 25 7q44 24 68 83q-24 13 -56 43q-34 35 -51 66q-35 -61 -35 -121l1 -21q5 -57 48 -57z" />
    <glyph glyph-name="uniE015" unicode="&#xe015;" horiz-adv-x="331" 
d="M-208 -707q-16 0 -19 12q-3 26 -3.5 27t-0.5 2v13q-1 2 -1 4.5t-1 4.5q-1 23 -1 47q0 77 6 122l1 8q0 9 7 52q33 197 124 518q12 38 25 87q-15 -1 -42 -1q-46 0 -66 4q-6 2 -6 12q0 6 4 13t10 7q6 -1 12 -1t13 -1q12 -2 43 -2q21 0 41 2l6 22q4 20 7 25q7 32 16 64
q22 86 35 147q2 12 2.5 12t5.5 29q4 8 11 8q8 0 14.5 -4.5t6.5 -12.5q-6 -31 -14 -66l-8 -36l5 6q8 16 26 34l2 3q11 14 24 27q38 47 91 51q18 -1 42 -17l2 -1q0 -2 1.5 -3t3 -3t1.5 -2.5t1 -1.5l4 -10q8 -16 8 -50q-6 -74 -70 -139l-3 -4l-25 -25q-76 -62 -159 -79l-10 -2
l-23 -84q-73 -255 -109 -422q-33 -162 -33 -290q0 -40 7 -95q0 -10 -14 -11zM-26 229q90 21 161 92q1 0 1 2q65 65 65 129q-1 39 -12 42q-13 9 -25 9q-25 -3 -38 -15q-5 -5 -22 -19q-78 -85 -102 -145l-3 -6q-8 -20 -25 -89z" />
    <glyph glyph-name="uniE016" unicode="&#xe016;" horiz-adv-x="365" 
d="M-17 188q8 0 10 2q3 0 5 1t4 2.5t4 3.5t4 3q23 15 73 97q35 57 48 81q41 69 57 91q-16 3 -28 3q-40 0 -86 -21q-24 -15 -27.5 -18.5t-6.5 -5.5t-3 -3t-1 -2h-1q-19 -20 -21 -25q-12 -18 -15.5 -21.5t-4 -4.5l-1.5 -3t-2 -3q-21 -32 -34 -70q0 -4 -1 -5q-3 -7 -6 -24
q-3 -11 -3 -13.5t-1 -10.5q0 -54 37 -54zM1 -721q-1 0 -1 1h-1l-2 3q-4 8 -6 42q40 547 198 1086q-10 -19 -27 -46q-103 -186 -150 -203q-7 -3 -7 -3.5t-3 -0.5t-5 -2h-13q-45 0 -63 40q-6 12 -6 19l-1 2l-1 33q2 5 2 15q16 72 49 118q0 2 24 36q28 30 40 40q0 3 1.5 3
t2.5 1q5 5 13 9q53 33 116 33q14 0 25 -2h7l9 -3q39 -5 39 -28q0 -7 -3 -15q-169 -532 -218 -1123l1 -34l4 -8q-19 -13 -24 -13z" />
    <glyph glyph-name="uniE017" unicode="&#xe017;" horiz-adv-x="743" 
d="M292 449q55 72 91 148q7 17 7 33q0 11 -4 16l-3 2q-16 -5 -16 -5.5t-1 -1.5q-16 -16 -27 -35q-47 -71 -47 -157zM425 -48q-19 0 -31 9q-25 19 -25 50q0 4 1 5q6 61 70 239q57 158 61 208q-54 -29 -86 -50q-29 -24 -74 -37l-6 -2q-6 -3 -20 -3q-16 0 -31 7l-9 6
q-9 -15 -19 -27q-78 -108 -124 -160q-30 -37 -72 -65q-20 -13 -37 -15q-22 0 -22 6q0 24 23 24q17 0 57 38t91 105q62 80 87 116q-4 16 -4 35q0 138 84 222q15 20 40 20q45 0 45 -55q-1 -27 -18 -59q-43 -80 -109 -155q14 -6 18 -6q32 3 79 34q16 16 94 55q8 5 17 5
q29 0 32 -31q0 -55 -66 -231q-69 -184 -69 -231q0 -16 10 -21q2 -2 2.5 -3.5t9.5 -1.5q12 0 35 23q165 215 267 411q7 12 13 12q8 0 8 -13q0 -6 -4 -15q-101 -205 -262 -416q-23 -30 -56 -33z" />
    <glyph glyph-name="uniE018" unicode="&#xe018;" horiz-adv-x="353" 
d="M-9 -186q21 0 49 28q80 69 80 195l-40 -44q-83 -88 -92 -127q-1 -2 -2.5 -4t-4.5 -14q-3 -3 -3 -14q0 -19 13 -20zM-7 -220q-10 0 -22 5q-3 0 -5 2.5t-5 3.5q-16 8 -16 38q0 25 8 41q0 1 1.5 3.5t1.5 5.5q32 65 101 138q20 21 57 64q-1 5 -3 9v3q-19 52 -60 109
q-49 68 -65 122q0 2 -1 4t-1 6q-3 20 -4 21q0 83 28 113q1 1 2 2.5t2.5 4.5t5 6.5t9.5 12.5q41 44 84 45l14 1q5 0 7 -1t5 -1v-1q5 -2 5 -8q0 -9 -11 -20q-1 -1 -7 -3q-37 0 -71 -33l-2 -3q-38 -38 -38 -108q2 -8 2 -14q0 -37 62 -126q41 -55 60 -102l3 -9l27 32
q15 17 24 31q20 30 27 30q11 0 15 -10q3 -5 3 -10q0 -4 -16 -26q-6 -13 -8 -13.5t-7 -8.5l-20 -25q-25 -25 -36 -39q4 -23 4 -44q0 -130 -94 -214q-39 -31 -66 -34z" />
    <glyph glyph-name="uniE019" unicode="&#xe019;" horiz-adv-x="206" 
d="M-107 -169q-19 0 -20 17q12 67 24 141q3 21 6 35q2 7 10 51q24 126 101 479q63 256 75 301q-243 -3 -488 -17q-13 0 -13 14q0 30 509 32q50 182 103 363q4 9 11 9q20 -2 20 -19q-6 -20 -10 -37q-28 -96 -32.5 -109t-7.5 -27l-1 -1l-48 -179q403 0 765 -21q10 0 10 -8
l-1 -4q-4 -9 -16 -9q-303 15 -606 15l-160 -1l-16 -60q-21 -77 -52 -208q-26 -114 -92 -421l-60 -326q-2 -10 -11 -10z" />
    <glyph glyph-name="uniE020" unicode="&#xe020;" horiz-adv-x="313" 
d="M130 105q-10 0 -16 24q-4 14 -4 36q0 51 18 136l-4 -5q-20 -26 -31 -37q-28 -38 -52 -48v-1h-1q-13 -6 -27 -7q-7 0 -17 2q-1 1 -2.5 1t-3 0.5t-3.5 1.5q-33 17 -33 76q0 32 15 82q3 8 3.5 11.5t1 6t2.5 4.5q3 9 5 12.5t3 6.5q9 26 14 26q6 0 16 -6t10 -11q-3 -9 -8 -17
q-23 -60 -23 -72q-6 -19 -6 -48q0 -42 23 -42q9 0 18 4q2 0 4.5 2.5t4.5 3.5q8 5 41 45q45 57 74 109q4 9 6 11.5t2 4.5q0 6 7 6q9 0 18 -8q6 -4 6 -9l-1 -3q-42 -116 -50 -241q0 -23 9 -37q0 -4 -7 -12t-12 -8z" />
    <glyph glyph-name="uniE021" unicode="&#xe021;" horiz-adv-x="380" 
d="M-38 1h-3q-2 0 -9 3l-5 5v1h-1v1h-2q-13 21 -13 52q17 251 84 462q4 11 13 11q17 -2 17 -20l-1 -7q-67 -207 -81 -428l-2 -15q0 -21 5 -31q21 17 78 83q170 196 210 319q8 23 9 42q0 14 -13 35q0 5 7.5 9.5t11.5 4.5q3 0 5 -3q15 -19 15 -48q-4 -58 -39 -118
q-65 -121 -187 -265q-54 -60 -75 -80q-10 -8 -24 -13z" />
    <glyph glyph-name="uniE022" unicode="&#xe022;" horiz-adv-x="515" 
d="M36 65q-40 0 -62 42q-17 44 -17 87q0 161 55 305q2 3 5 3q11 0 19 -8q6 -4 6 -9q-48 -123 -51 -250l-1 -42q3 -69 27 -89q7 -6 14 -6q9 0 20 12l14 16v1h1q65 87 98 162q2 2 5 2q8 0 13 -3q11 -6 12 -13l2 -3l10 -42q12 -55 13 -55q8 -40 26 -42q12 0 31 34q5 10 13 22
q51 96 51 199q0 51 -22 58q-8 9 -8 22q0 8 3 8q20 -2 35 -17l2 -2v-1h1q15 -23 17 -55v-34q-3 -103 -54 -196q-27 -45 -41 -59q-8 -8 -23 -10q-26 0 -42 18.5t-21 48.5l-15 61q-35 -68 -86 -131q-26 -31 -50 -34z" />
    <glyph glyph-name="uniE023" unicode="&#xe023;" horiz-adv-x="396" 
d="M249 30q-72 21 -120 83q-31 44 -54 90q-7 15 -16 29q-32 -88 -68 -195q-1 -3 -6 -3q-10 0 -17.5 5t-7.5 9l10 32q24 67 32 94q19 53 38 96q-48 101 -77 228q0 3 11 7q4 2 10 2q11 0 12 -4q22 -107 61 -193q17 39 33 68q61 111 125 187q3 7 5.5 9t3.5 3.5t22 21.5
q2 5 9.5 9.5t8.5 5.5q25 17 53 17q8 0 14 -1q2 -1 5 -2l6 -2t3 -6q0 -6 -5 -12q-9 -12 -14 -12q-2 2 -10 2q-33 0 -80 -59q-71 -92 -118 -178q-22 -43 -43 -91l12 -22l15 -30q68 -137 156 -160q3 -1 3 -6q0 -4 -1.5 -9t-3 -6.5t-1.5 -2.5q-3 -4 -6 -4z" />
    <glyph glyph-name="uniE024" unicode="&#xe024;" horiz-adv-x="399" 
d="M-133 -890q-66 5 -66 135q0 116 63 257q15 33 24 33q7 0 7 -10q0 -16 -10 -43q-55 -131 -55 -229q2 -54 14 -93q1 -1 1 -5q12 -16 25 -16q11 1 16 7q6 3 13 13q8 4 26 38q84 145 177 550q73 317 100 581q-69 -153 -137 -153q-22 0 -36 8q-53 28 -53 133q0 72 23 158
q7 30 8.5 31t5.5 1q8 0 16 -4t8 -9q-25 -105 -28 -180q0 -97 48 -105l11 -1l13 5q64 49 110 176q21 57 28 100q2 6 12 6q3 0 6.5 -1t6 -2t5.5 -2.5t3 -6.5q0 -13 -7 -38q-23 -318 -115 -714q-40 -175 -96 -347q-76 -235 -144 -269q-1 0 -2 -0.5t-2.5 -2t-18.5 -1.5z" />
    <glyph glyph-name="uniE030" unicode="&#xe030;" 
d="M-18 196q11 0 12.5 1.5t5.5 2.5q25 8 115 160q17 35 67 114h-3q-10 2 -19 2q-40 0 -76 -15q-2 -2 -11 -5q-12 -7 -24 -16q-4 -5 -9 -9t-5.5 -4.5t-2 -0.5t-4.5 -6q-15 -15 -16.5 -18.5t-7.5 -9.5q-8 -10 -8 -13q-4 -4 -7 -10q-42 -64 -44 -126q0 -46 37 -47zM242 141
q-22 0 -29 7q-6 0 -35 29q-11 12 -20.5 41t-9.5 57q0 51 10 93l-52 -86q-55 -92 -102 -116h-2v-1l-12 -2q-43 0 -65 31q-3 6 -5 8q-8 21 -8 46q11 89 57 150q2 4 30 40q19 20 40 33q-377 -44 -688 -47q-495 0 -560 150l-1 2q-4 10 -4 14q0 14 12 14q8 0 11 -13
q12 -28 25 -38q2 -1 3 -3q102 -103 519 -103q333 4 756 57q23 5 48 5q12 0 22 -2q6 -2 12 -2t19 -5q3 0 6.5 -1.5t4 -1.5t1.5 -1q10 -3 10 -15q-49 -87 -57 -196q0 -94 54 -114q4 -2 10 -2q47 0 110 100l98 159q11 0 11 -12q-79 -153 -150 -235q-40 -37 -58 -39z" />
    <glyph glyph-name="uniE031" unicode="&#xe031;" horiz-adv-x="454" 
d="M59 559q110 212 217 512q44 128 51 195q-70 -34 -128 -222q-29 -88 -109 -360zM-35 74l39 27q76 47 122 97q36 38 55 96q15 37 15 71l-2 7q0 11 -8 14v1h-3l-18 -16l-10 -10q-125 -125 -190 -287zM-84 -166q-19 0 -20 28q0 8 18 135q7 44 7 49q28 176 74 381l-38 -5
q-385 -47 -720 -51q-495 0 -560 150l-1 2q-4 10 -4 14q0 14 12 14q8 0 11 -13q12 -28 25 -38q2 -1 3 -3q102 -103 519 -103q315 4 758 57q61 268 169 605q62 200 162 236l5 1q23 0 24 -34q-1 -45 -54 -201q-82 -229 -170 -416q-52 -118 -105 -199q-15 -57 -53 -265
q69 127 179 226q13 13 28 13t26 -11.5t13 -29.5l2 -14q-1 -28 -9 -54q-8 -20 -8 -23q-24 -70 -89 -132q137 92 259 198q36 33 67 70q5 6 10 7q9 0 9 -10q0 -9 -5 -16q-58 -67 -145 -136q-117 -94 -241 -174q-104 -70 -122 -71l-2 -13q-13 -79 -23 -155q-2 -19 -11 -19z" />
    <glyph glyph-name="uniE032" unicode="&#xe032;" horiz-adv-x="344" 
d="M25 64q-22 0 -40 9v1h-2v1q-58 29 -58 123q2 109 45 191q2 5 18 32q6 10 14 19l-10 -1q-385 -47 -720 -51q-495 0 -560 150l-1 2q-4 10 -4 14q0 14 12 14q8 0 11 -13q12 -28 25 -38q2 -1 3 -3q102 -103 519 -103q307 4 708 51l70 8q52 0 52 -55q0 -119 -18 -119
q-7 0 -14.5 4.5t-7.5 11.5q8 51 8 85q0 30 -3.5 35.5t-14.5 5.5q-32 -2 -62 -66q-39 -77 -42 -172q0 -49 19 -79t53 -30q27 0 52 16q35 21 96 94q87 106 162 221q3 5 7 5q12 0 12 -14q0 -2 -1 -4t-1 -3q-110 -174 -209 -277q-56 -65 -118 -65z" />
    <glyph glyph-name="uniE033" unicode="&#xe033;" horiz-adv-x="405" 
d="M251 522q29 55 63 130q91 199 164 413q46 132 50 184q-60 -32 -100 -133t-107 -334q-20 -73 -28 -97q-18 -73 -38 -145zM-12 206q9 0 10.5 1t5.5 1l32 23q31 29 89 102l70 98l12 49q-24 6 -45 6q-34 0 -76 -17q-1 -1 -7.5 -4t-22.5 -15q-37 -32 -51 -58q-29 -29 -49 -107
q-3 -9 -3 -17q-1 -2 -1 -16q1 -11 1 -13.5t1 -5t1 -5.5t7 -9q0 -4 9.5 -8.5t16.5 -4.5zM91 -268q-19 0 -20 28q41 297 105 589q-115 -162 -179 -176q-34 0 -54 18q-13 11 -15 21q-4 4 -4 10q-5 10 -5 32q0 27 4 36q18 70 54 119q2 5 4 7t3.5 4.5t3.5 4.5q14 17 17 21.5
t6 5.5q2 4 7 7q0 1 0.5 2t15.5 13q0 2 7 5l2 1q-360 -42 -673 -45q-495 0 -560 150l-1 2q-4 10 -4 14q0 14 12 14q8 0 11 -13q12 -28 25 -38q2 -1 3 -3q102 -103 519 -103q308 4 724 53q38 7 59 7q24 0 57 -6l1 6q43 179 140 492l42 119q53 130 135 158q1 1 3 1q11 0 20 -9
q0 -1 2 -3q3 -8 3 -23q0 -46 -52 -201q-73 -214 -168 -420q-55 -121 -105 -201q-2 -2 -3.5 -4.5t-2 -3l-4.5 -4.5q-79 -348 -123 -667q-3 -20 -12 -20z" />
    <glyph glyph-name="uniE034" unicode="&#xe034;" horiz-adv-x="359" 
d="M-22 308q75 83 112 165q2 5 5.5 12t3.5 16l-3 2q-34 0 -61 -47q-40 -70 -57 -148zM31 82q-7 0 -13 1q-58 20 -68 72q-7 26 -7 93l1 10q-16 -3 -43 -6q-385 -47 -720 -51q-495 0 -560 150l-1 2q-4 10 -4 14q0 14 12 14q8 0 11 -13q12 -28 25 -38q2 -1 3 -3
q102 -103 519 -103q298 4 760 57q13 104 66 193q35 59 78 59q36 0 40 -32q-2 -15 -8 -28.5t-6 -16.5q-34 -73 -87 -138q-43 -52 -58 -63q-2 -21 -2 -42q0 -37 13 -72q18 -31 47 -34q41 0 116 70q87 81 159 178q36 48 46 65q3 6 9 6q9 0 9 -12q0 -7 -49 -76
q-199 -256 -288 -256z" />
    <glyph glyph-name="uniE035" unicode="&#xe035;" horiz-adv-x="220" 
d="M-168 -620q2 0 2.5 0.5l1 1t1.5 0.5q7 4 14 25q85 255 91 757q-106 -387 -136 -740q0 -22 6 -31q0 -7 16 -13h4zM80 611q40 73 59 112q65 128 65 231q-16 -18 -124 -343zM-173 -653q-27 3 -41 26q-4 4 -4 7q-9 17 -9 47q0 33 31 257q38 252 141 603l2 9l1 1l6 21
q18 62 38 126q-418 -52 -761 -56q-495 0 -560 150l-1 2q-4 10 -4 14q0 14 12 14q8 0 11 -13q12 -28 25 -38q2 -1 3 -3q102 -103 519 -103q307 4 708 51l56 6q47 149 161 477q11 32 37 45q7 3 16 3l21 -3l2 -45q0 -102 -71 -241l-60 -114q-21 -34 -71 -132l-2 -3
q-7 -11 -46 -138l100 47q88 39 136 65q5 0 7.5 -7t2.5 -10q0 -4 -136 -73q-76 -38 -122 -65l1 -13q-4 -310 -14 -411q-19 -218 -57 -370q-21 -81 -31 -102q-5 -12 -17 -22q-6 -4 -6.5 -4t-2 -0.5t-1.5 -1.5q-9 -3 -20 -3z" />
    <glyph glyph-name="uniE036" unicode="&#xe036;" horiz-adv-x="452" 
d="M-131 -823q8 0 14 5q3 0 22 22q52 79 103 238q75 235 128 512q-110 -160 -182 -291q-125 -228 -125 -380q0 -36 15 -91h1v-2q12 -13 24 -13zM-14 194q11 0 11 3q19 6 46 43q50 70 89 142q40 69 56 91q-12 2 -27 2q-37 0 -73 -15q-3 -3 -9 -5q-18 -9 -41 -29q0 -2 -6 -8
q-56 -53 -82 -157q0 -6 -1 -9l1 -23q0 -16 15 -28q11 -7 21 -7zM-132 -852q-40 0 -54 46q-8 25 -13 89q0 203 225 554q59 90 121 178q45 253 58 424l-43 -70q-82 -145 -123 -183q-9 -10 -31 -21h-2v-1l-12 -2q-43 0 -65 31q-3 6 -5 8q-8 21 -8 46q1 15 14 66q17 47 49 92
l24 32q34 31 35 31q-360 -42 -673 -45q-495 0 -560 150l-1 2q-4 10 -4 14q0 14 12 14q8 0 11 -13q12 -28 25 -38q2 -1 3 -3q102 -103 519 -103q308 4 720 53q39 8 70 8q23 0 36 -3q2 -1 4.5 -1t3.5 -1q10 -2 15 -4h2q19 0 19 -31v-3q-14 -185 -49 -388l37 51
q154 204 209 284q13 16 19 16t6 -11q0 -18 -113 -168q-1 -3 -106 -144l-63 -87q-61 -333 -147 -594q-63 -195 -128 -261l-3 -1q-11 -11 -34 -13z" />
    <glyph glyph-name="uniE037" unicode="&#xe037;" horiz-adv-x="498" 
d="M44 552q26 50 53 108q100 220 166 410q47 135 51 183q-75 -40 -127 -210q-89 -271 -143 -491zM-99 -167q-6 0 -11.5 7.5t-5.5 17.5q35 287 101 584l-38 -5q-385 -47 -720 -51q-495 0 -560 150l-1 2q-4 10 -4 14q0 14 12 14q8 0 11 -13q12 -28 25 -38q2 -1 3 -3
q102 -103 519 -103q307 4 759 57l3 14q8 26 12 52q69 275 121 433q49 148 62 179q50 119 130 147q1 1 3 1q25 0 25 -35q0 -48 -54 -200q-74 -212 -169 -416q-73 -155 -105 -197q-51 -233 -69 -347q36 78 88 163q2 5 3 5q35 62 84 75q6 2 13 2q51 0 51 -98q0 -18 -7 -86
q-4 -26 -4 -47l1 -2q7 -28 22 -28q39 6 110 89q98 114 176 249q5 6 9 6q10 0 10 -11q0 -5 -2 -10q-76 -133 -177 -253q-80 -96 -130 -96q-11 1 -20 7q-3 0 -6 4q-14 14 -19 44q-1 3 -1 10q0 11 5 44q5 53 5 80q0 69 -20 69q-34 0 -73 -60q-106 -170 -143 -328q-1 -3 -10 -73
q-3 -19 -14 -19z" />
    <glyph glyph-name="uniE038" unicode="&#xe038;" horiz-adv-x="297" 
d="M35 464l-5 1l-6 1q-20 5 -21 6l8 37q28 -5 32 -8zM38 156q-22 0 -37.5 12.5t-20 31.5t-4.5 40q0 89 16 170q-17 -3 -44 -6q-385 -47 -720 -51q-495 0 -560 150l-1 2q-4 10 -4 14q0 14 12 14q8 0 11 -13q12 -28 25 -38q2 -1 3 -3q102 -103 519 -103q307 4 708 51l61 7
q9 0 17 -4t8 -8q-18 -79 -20 -159l-1 -13q0 -46 7.5 -55t20.5 -9q18 0 37 11l32 23q110 82 186 206q2 2 4 2q7 0 11.5 -5t4.5 -10q-71 -121 -198 -222q-42 -33 -73 -35z" />
    <glyph glyph-name="uniE039" unicode="&#xe039;" horiz-adv-x="243" 
d="M-351 -837q8 0 27 19q81 121 158 410q46 170 82 356q-46 -67 -89 -135q-96 -149 -165 -311q-54 -129 -54 -233q0 -40 15 -90q5 -16 26 -16zM-356 -866q-65 10 -65 143q0 38 8 73q30 149 132 333q76 138 208 325q45 255 59 453q-16 -3 -43 -6q-385 -47 -720 -51
q-495 0 -560 150l-1 2q-4 10 -4 14q0 14 12 14q8 0 11 -13q12 -28 25 -38q2 -1 3 -3q102 -103 519 -103q303 4 768 58q22 0 22 -34q-14 -180 -49 -384q77 108 171 230q44 57 86 114q13 16 19 16t6 -9q0 -10 -11 -29q-36 -49 -123 -163q-114 -152 -158 -216
q-78 -425 -180 -691q-57 -150 -112 -181q-12 -4 -23 -4z" />
    <glyph glyph-name="uniE040" unicode="&#xe040;" horiz-adv-x="437" 
d="M-17 188q15 18 50 54q80 84 94 107q13 18 14 33q0 4 -0.5 4.5t-0.5 1t-1 1.5q-13 0 -33 -19q-4 -1 -15 -12q-61 -58 -108 -170zM-39 125l1 1q-1 0 -1 -1zM45 534q26 49 53 109q101 221 166 410q49 140 52 184q-75 -41 -128 -211q-52 -160 -66 -210l-7 -24
q-61 -222 -70 -258zM-97 -184q-7 0 -12.5 7t-5.5 19q15 122 34 241q0 6 2 12q28 170 64 327l-38 -5q-385 -47 -720 -51q-495 0 -560 150l-1 2q-4 10 -4 14q0 14 12 14q8 0 11 -13q12 -28 25 -38q2 -1 3 -3q102 -103 519 -103q315 4 758 57l6 25q62 248 146 522q30 90 48 134
q51 120 130 147l5 1q9 0 18 -9q5 -13 6 -21q0 -51 -55 -205q-74 -211 -169 -416q-74 -157 -106 -198q-19 -84 -34 -158q38 71 89 116q24 21 28 21q12 12 34 14q34 0 34 -37q0 -24 -21 -54q-27 -37 -93 -103q-60 -65 -78 -88q43 15 181 99q144 89 274 183q4 4 8 4q9 0 10 -12
q0 -16 -143 -110q-291 -194 -347 -194l-4 1l-26 -168q-12 -83 -14.5 -103.5t-13.5 -20.5z" />
    <glyph glyph-name="uniE041" unicode="&#xe041;" horiz-adv-x="207" 
d="M43 520q25 50 52 111q94 217 157 412q45 141 47 185q-59 -33 -97 -137q-51 -137 -159 -571zM-108 -300q-16 0 -17 32q0 62 65 447q34 180 45 227q-418 -52 -760 -56q-495 0 -560 150l-1 2q-4 10 -4 14q0 14 12 14q8 0 11 -13q10 -23 27 -40q1 0 1 -1q102 -103 519 -103
q307 4 759 57q42 203 150 578q36 123 80 189q35 50 84 69l5 1q24 0 24 -38q0 -51 -50 -198q-67 -204 -161 -419q-70 -163 -102 -202l-48 -243q-47 -283 -64 -447q-3 -20 -15 -20z" />
    <glyph glyph-name="uniE042" unicode="&#xe042;" horiz-adv-x="558" 
d="M-55 103q-9 0 -17 7.5t-8 20.5l2 15q20 112 27 140q27 111 66 218q-10 -2 -22 -3q-382 -48 -736 -53q-495 0 -560 150l-1 2q-4 10 -4 14q0 14 12 14q8 0 11 -13q12 -28 25 -38q2 -1 3 -3q102 -103 519 -103q303 4 769 58q19 0 19 -20q0 -6 -2 -10q-61 -157 -89 -322
q52 129 113 227l1 2q5 6 19 29q17 27 39 27q40 0 40 -40l-29 -186q0 -13 3 -19l2 -1q6 9 20 38q77 151 110 199q1 1 1 1.5t0.5 2t9 6t15.5 4.5q20 0 31 -33q6 -48 6 -68l-1 -42q0 -39 7 -75q4 -7 4 -12q8 -16 24 -16q18 8 38 30q14 14 60 72q38 46 73 94q8 9 12 9q9 0 9 -11
q0 -13 -80 -113q-61 -77 -79.5 -91.5t-38.5 -14.5q-25 0 -39 28q-3 5 -4 8l-1.5 4.5t-0.5 3.5t-1 4q-9 31 -9 73l1 44l-1 39q-1 7 -1 8.5t-1 2.5q0 6 -2 14q-1 3 -1.5 6.5t-5.5 9.5v-1h-1q-28 -34 -79 -136.5t-52 -102.5q-2 -7 -8 -10v-1l-8 -3q-12 0 -20 4q-20 18 -20 37
q0 18 24 166l4 28q0 6 -0.5 6.5t-0.5 1t-0.5 2t-6.5 2.5q-7 0 -14 -8v-1h-1q-99 -162 -146 -296q-7 -26 -28 -26z" />
    <glyph glyph-name="uniE043" unicode="&#xe043;" horiz-adv-x="431" 
d="M-49 113q-4 0 -11 1.5t-11.5 4t-4.5 3.5q34 176 77 349q-18 -3 -46 -6q-385 -47 -720 -51q-495 0 -560 150l-1 2q-4 10 -4 14q0 14 12 14q8 0 11 -13q12 -28 25 -38q2 -1 3 -3q102 -103 519 -103q307 4 708 51l64 7q25 -3 25 -11q-33 -132 -61 -265l99 166q32 58 81 58
q47 0 51 -79q0 -79 9.5 -108.5t31.5 -29.5q42 0 143 152q1 3 35 49q3 3 6 3q1 0 4.5 -0.5t6.5 -7.5q0 -1 1 -3t1 -4q0 -3 -56 -82l-12 -18q-73 -110 -129 -116q-43 0 -59 49q-9 30 -9 60q0 86 -14 102q-6 4 -15 4q-25 -4 -37 -24q-6 -8 -44 -73q-85 -148 -111 -189l-3 -13
q0 -2 -5 -2z" />
    <glyph glyph-name="uniE044" unicode="&#xe044;" horiz-adv-x="348" 
d="M137 325q4 23 4 42q0 71 -30 110q-24 27 -57 27q-16 -1 -29 -12.5t-13 -32.5q0 -28 21 -55q42 -52 104 -79zM46 199q17 0 32 11q38 31 54 91q-83 38 -122 92q-18 -44 -18 -89q0 -72 31 -97q10 -8 23 -8zM46 169q-24 0 -46 17q-25 24 -32 58q-2 7 -2 11q-5 5 -5 52
q0 48 18 95q-14 -3 -36 -5q-385 -47 -720 -51q-495 0 -560 150l-1 2q-4 10 -4 14q0 14 12 14q8 0 11 -13q12 -28 25 -38q2 -1 3 -3q102 -103 519 -103q307 4 708 51l54 6l1 3q-5 14 -5 27q0 38 27 59q20 14 44 16q48 -2 78 -41q34 -47 34 -122q0 -25 -4 -50l15 -1
q65 0 133 73q31 34 35 34q8 -2 8 -13q0 -13 -59 -67q-54 -50 -119 -50l-18 1q-34 -121 -114 -126z" />
    <glyph glyph-name="uniE045" unicode="&#xe045;" horiz-adv-x="353" 
d="M-33 186q71 36 146 112q2 0 18 18q56 56 68 111v4q2 6 2 28q-6 38 -35 38l-12 -1v-1q-27 -6 -75 -64l-2 -3q-11 -11 -15 -18t-14 -19l-1 -2q-7 -10 -14 -23q-6 -6 -15 -26q-3 -3 -3 -4.5t-1.5 -3t-1.5 -4.5l-11 -21q-19 -53 -21 -55zM-210 -697q-7 0 -14 4.5t-7 11.5
l156 814q-5 -2 -8 -2.5t-6 -2t-8 -1.5l-20 -6q-12 0 -12 18q0 14 9.5 15.5t51.5 15.5l63 330l-24 -3q-394 -49 -738 -53q-495 0 -560 150l-1 2q-4 10 -4 14q0 14 12 14q8 0 11 -13q12 -28 25 -38q2 -1 3 -3q102 -103 519 -103q307 4 708 51l62 7q21 0 21 -16l-24 -126
q14 23 53 75l19 21q6 4 10 10q41 41 81 41q24 0 43 -16l2 -2q14 -17 17 -34l2 -6v-5l1 -2q0 -88 -70 -163q-81 -84 -145 -124q-33 -19 -58 -31l-160 -836q-2 -8 -10 -8z" />
    <glyph glyph-name="uniE046" unicode="&#xe046;" horiz-adv-x="383" 
d="M-27 184l16 3q41 32 118 162l3 6l64 106q-16 3 -25 3q-45 0 -88 -21q-33 -17 -75 -77q-49 -72 -49 -140q0 -22 16 -35q10 -7 20 -7zM17 -701q20 33 57 153q52 174 73 348q0 5 1 9q4 60 4 78q0 53 -6 89q-4 21 -29 70q-58 -260 -90 -533q-10 -89 -12 -116t-5 -56l-1 -18
q2 -19 5 -23v-1h3zM17 -729q-19 0 -28 16l-2 6q-4 8 -6 39q43 562 197 1073l-45 -75q-94 -164 -143 -176l-3 -2h-13q-34 0 -59 33q-1 1 -1 2.5t-2 3.5q-8 21 -8 46q3 51 34 112l7 12q12 23 30 44q24 34 53 56q-359 -43 -675 -46q-495 0 -560 150l-1 2q-4 10 -4 14
q0 14 12 14q8 0 11 -13q12 -28 25 -38q2 -1 3 -3q102 -103 519 -103q307 4 730 54q40 5 59 5q26 0 58 -8l9 -3q14 -6 14 -22q0 -7 -3 -15q-37 -120 -78 -279q54 56 223 249q10 11 17 11q6 0 6 -8q0 -24 -222 -262q-41 -37 -41 -63l-1 -4q2 -21 19 -53q30 -55 30 -146
q0 -70 -13 -156q-22 -151 -67 -302q-33 -100 -54 -147q-7 -16 -27 -18z" />
    <glyph glyph-name="uniE047" unicode="&#xe047;" horiz-adv-x="458" 
d="M11 445q54 70 84 133q12 25 12 43q0 12 -1 13.5t-1 4.5q-2 2 -5 2q-6 0 -14 -4l-2 -3q-8 -7 -10 -12q-61 -75 -63 -177zM142 -47q-18 0 -31 10q-24 18 -24 49q0 51 70 241q61 173 61 206q-62 -34 -85.5 -51.5t-73.5 -35.5q-13 -4 -25 -4q-40 0 -53 29l-24 -3
q-394 -49 -738 -53q-495 0 -560 150l-1 2q-4 10 -4 14q0 14 12 14q8 0 11 -13q12 -28 25 -38q2 -1 3 -3q102 -103 519 -103q291 4 752 56l-2 24q0 113 83 212q19 19 40 19q9 0 15 -3q8 0 16 -11q13 -14 13 -40q-1 -24 -9 -39l-1 -2q-3 -9 -6 -12q-5 -15 -37.5 -64t-71.5 -94
q5 -6 17 -6q11 1 21 4l2 1q23 8 62 33q28 19 86 50q15 5 19 5q17 0 21 -11q6 -3 9 -25q0 -43 -39 -149q-12 -36 -26 -74q-64 -172 -69 -229q0 -15 10 -20l2 -1q4 -3 5 -3.5t5 -0.5q17 0 34 23q157 200 265 406q6 12 12 12q8 0 8 -13q0 -6 -4 -15q-94 -193 -258 -411
q-26 -33 -56 -33z" />
    <glyph glyph-name="uniE048" unicode="&#xe048;" horiz-adv-x="405" 
d="M-15 -176q12 0 25 8l4 2h1v1q23 15 45 42q54 69 54 147v20q-3 -3 -6 -7t-58 -64q-34 -38 -54 -71q-1 -3 -3.5 -6.5t-2.5 -5t-0.5 -2.5t-1.5 -1q-6 -12 -7.5 -20t-3.5 -10l-4 -14q0 -19 12 -19zM-17 -209q-10 0 -27 11l-1 2q-14 16 -14 38q0 14 1.5 17.5t2 5t0.5 2.5l8 22
l6 12q22 50 107 138l21 24l20 25q-9 41 -61 120q-52 71 -66 129q-2 2 -2 11q-1 2 -1 8l-1 1l-1 16q0 47 17 76q4 7 7 13t7 12l2 4l2 1q1 0 2 2.5t5 6.5t4 5.5t0.5 3t6.5 3.5l5 6q-380 -46 -709 -50q-495 0 -560 150l-1 2q-4 10 -4 14q0 14 12 14q8 0 11 -13q12 -28 25 -38
q2 -1 3 -3q102 -103 519 -103q307 4 708 51l54 6q15 4 33 4q11 0 15 -2q8 0 24 -8q47 -29 47 -76q0 -16 -12 -16q-13 0 -21 21q-15 49 -57 49q-37 0 -74 -36q-4 -4 -4 -5q-8 -7 -11 -16l-5 -6q0 -4 -1.5 -6t-10.5 -24q0 -7 -2 -7l-4 -34q0 -20 4 -32l1 -4q0 -23 60 -111
q45 -67 60 -109l17 20v1l12 13q12 15 43 49q106 115 190 221q7 7 11 7q15 0 15 -18q-99 -122 -200 -242q-37 -37 -78 -89q4 -22 4 -46q0 -102 -66 -182q-51 -61 -98 -61z" />
    <glyph glyph-name="uniE049" unicode="&#xe049;" horiz-adv-x="173" 
d="M-110 -165q-21 0 -21 20q102 570 215 993l-34 1q-309 6 -628 37q-577 64 -625 235q-3 13 -3 17q4 12 14 12q8 -1 9 -14q9 -31 22 -44q89 -117 501 -173q351 -44 750 -44q101 367 114 367q19 -2 19 -19l-49 -171q-1 0 -49 -177q278 0 487 -21q7 0 7 -8q0 -13 -11 -13
q-174 15 -350 15q-70 0 -141 -2q-90 -352 -136 -579q-20 -83 -80 -422q-2 -10 -11 -10z" />
    <glyph glyph-name="uniE050" unicode="&#xe050;" horiz-adv-x="410" 
d="M162 94q-52 0 -53 73q0 50 18 135l-4 -6q-56 -73 -82 -84v-1h-1q-12 -6 -29 -6q-7 0 -12.5 2t-7.5 3t-3.5 1t-3.5 1q-23 16 -26 38q-3 13 -3 34l2 14q3 47 16 77q1 2 1 3.5t0.5 4t2.5 4.5q5 14 6 15.5t2 3.5q-418 -52 -760 -56q-495 0 -560 150l-1 2q-4 10 -4 14
q0 14 12 14q8 0 11 -13q10 -23 27 -40q1 0 1 -1q102 -103 519 -103q307 4 708 51l62 7q5 0 6 -2l8 -3q10 -6 10 -12q-26 -56 -26 -67q0 -2 -1 -3q-9 -39 -9 -65q0 -31 13 -39l11 -3q9 0 16 5q5 0 5 3q17 0 106 134q12 21 18 30q3 13 9 13q9 0 18 -8q6 -4 6 -9
q-43 -115 -51 -241q0 -39 20 -41q47 0 147 153l61 96q37 62 44 62q12 0 12 -10q0 -4 -40 -75q-77 -124 -110 -166q-59 -79 -101 -87q-2 -2 -10 -2z" />
    <glyph glyph-name="uniE051" unicode="&#xe051;" horiz-adv-x="520" 
d="M224 377q33 59 36 99q0 26 -12 39q-7 8 -18 8q-27 0 -40 -41q-2 -7 -2 -21q0 -10 3 -23q11 -37 33 -61zM-36 9q-10 2 -13 6l-4 4l-1 1q-13 18 -13 51q13 235 79 442q-418 -52 -760 -56q-495 0 -560 150l-1 2q-4 10 -4 14q0 14 12 14q8 0 11 -13q12 -28 25 -38q2 -1 3 -3
q102 -103 519 -103q307 4 708 51l63 7q18 -2 18 -20l-1 -7q-64 -195 -81 -412v-13l-1 -1q0 -34 4 -42q24 18 78 82q105 123 168 232q-50 46 -50 104q0 62 45 83q10 5 26 5q49 -10 52 -66q0 -45 -40 -124q35 -24 92 -28q99 4 173 92q7 7 13 7q8 0 8 -10q-1 -8 -7 -16
q-85 -97 -193 -97q-51 0 -97 32q-56 -102 -172 -237q-71 -84 -92 -91q-2 -2 -7 -2z" />
    <glyph glyph-name="uniE052" unicode="&#xe052;" horiz-adv-x="536" 
d="M334 388v4q0 60 -32 60q-13 0 -14 -12q0 -16 16 -29q6 -6 30 -23zM33 73q-19 0 -30 7q-22 13 -30 35q-1 0 -3 5.5t-5 11.5q-9 36 -9 69q0 150 46 278l-24 -3q-394 -49 -738 -53q-495 0 -560 150l-1 2q-4 10 -4 14q0 14 12 14q8 0 11 -13q12 -28 25 -38q2 -1 3 -3
q102 -103 519 -103q303 4 768 58q11 0 21 -7q6 -4 6 -9q-48 -123 -51 -268q0 -114 40 -114q15 1 34 29q55 65 97 159q2 3 5 3q8 0 13 -4q12 -6 13 -10q0 -9 23 -101q8 -42 27 -42q8 0 26 29q57 93 66 190l-14 8q-58 30 -58 73q0 11 6 21.5t16.5 14.5t19.5 4q18 -1 34 -13
q2 -4 4 -4q2 -4 4 -4q16 -24 16 -54q1 -9 1 -33q19 -9 37 -9q27 0 55 18q81 49 91 49q2 0 2 -1q0 -3 -29 -32q-62 -60 -115 -60q-21 0 -43 9q-10 -90 -52 -168q-27 -45 -40 -58q-9 -8 -25 -11q-25 0 -40 19t-19 44l-15 64q-39 -73 -98 -143q-18 -17 -38 -20z" />
    <glyph glyph-name="uniE054" unicode="&#xe054;" horiz-adv-x="391" 
d="M249 38q-70 20 -117 82q-42 60 -75 126q-45 -69 -60 -99q-43 -78 -46 -78q-4 0 -12 5q-12 8 -12 12q58 116 113 195q-43 94 -69 202q-17 -3 -47 -6q-385 -47 -720 -51q-495 0 -560 150l-1 2q-4 10 -4 14q0 14 12 14q8 0 11 -13q12 -28 25 -38q2 -1 3 -3
q102 -103 519 -103q307 4 738 55q32 3 33 4l14 1q5 -1 6 -4q23 -109 61 -195l2 2q26 41 79 93q2 0 35 34q29 29 32 29q37 29 67 29q23 0 33 -11h1q0 -6 -8 -15t-13 -9q-3 0 -5 1t-5 1q-28 0 -57 -28q-1 -1 -2.5 -1t-1.5 -3q-13 -13 -20 -18q-55 -55 -67 -69q-24 -30 -26 -30
q-3 -5 -28 -38q51 -100 80 -140q41 -55 102 -71q3 -1 3 -6q0 -4 -2 -9.5t-5 -9t-6 -3.5z" />
    <glyph glyph-name="uniE056" unicode="&#xe056;" horiz-adv-x="468" 
d="M-127 -837q8 0 12 4q1 1 1.5 1t2 0.5t7.5 8.5q3 3 7.5 5.5t23.5 37.5q87 167 175 543l8 35q16 70 29 137q-49 -70 -84 -124q-222 -342 -222 -542q0 -40 15 -90q6 -16 25 -16zM-130 -866q-48 3 -59 73l-1 6q-5 29 -5 55q0 114 61 253q87 200 285 481q33 178 50 337
q-45 -97 -94 -138q-16 -14 -27 -14q-5 -2 -11 -2q-91 0 -92 139q0 66 22 156q2 5 2 9q-16 -3 -46 -6q-385 -47 -720 -51q-495 0 -560 150l-1 2q-4 10 -4 14q0 14 12 14q8 0 11 -13q12 -28 25 -38q2 -1 3 -3q102 -103 519 -103q303 4 768 58q13 0 21 -4.5t8 -9.5
q-24 -97 -27 -177q0 -103 56 -104q5 0 8 1q36 21 69 79q57 102 74 198q3 4 10 4q3 0 8.5 -1t9.5 -3t4 -7q-3 -15 -7 -29l1 -10q-15 -188 -50 -389l101 135q68 86 157 214q12 16 19 16t7 -8q0 -18 -113 -171q-2 -1 -13 -17q-96 -130 -169 -233q-23 -123 -53 -251
q-90 -391 -182 -549q-27 -45 -55 -59q-1 0 -2 -0.5t-3 -2t-17 -1.5z" />
    <glyph glyph-name="uniE057" unicode="&#xe057;" horiz-adv-x="473" 
d="M-25 -807q8 0 11 4h1l3 3h1q0 2 9 8q1 2 3 3.5t3 2.5q79 79 137 218q113 264 128 583v3l-123 -227q-153 -287 -196 -458q-9 -49 -9 -73q0 -34 10 -56l10 -9q6 -2 12 -2zM-27 -840q-16 0 -30 9t-20 23q-2 2 -5 10.5t-3 9.5q-6 12 -6 49q4 98 68 248q55 130 146 305
q14 28 145 265q-6 55 -24 64h-1v1q-25 27 -63 36q-15 5 -62 5q-10 -1 -21 -1q-34 0 -69 18q45 24 106 73q67 63 67 67q21 21 36 55q2 2 2 6t3 8l2 20q0 32 -20 53l-9 6q-7 2 -7.5 3t-20.5 3q-97 -8 -168 -82q-13 -15 -23 -15q-18 -3 -60 -8q-385 -47 -720 -51
q-495 0 -560 150l-1 2q-4 10 -4 14q0 14 12 14q8 0 11 -13q10 -23 27 -40q1 0 1 -1q102 -103 519 -103q303 4 768 58q4 12 15 24q66 65 157 80q1 1 3 1t7.5 1t12.5 1q6 0 27 -3l10 -2q56 -28 56 -94q-1 -13 -4 -26v-2l-1 -1q-4 -31 -49 -83q-3 -4 -53 -54q-42 -37 -59 -45
h32q45 0 89 -23q33 -19 50 -51q3 -2 9 -20l1 -2q116 209 153 282q11 22 21 22t10 -17q0 -27 -174 -334q2 -24 2 -62q-16 -357 -160 -657q-48 -87 -79 -124q-49 -60 -57 -60q-7 -4 -9 -6q-14 -6 -26 -6z" />
    <glyph glyph-name="uniE058" unicode="&#xe058;" horiz-adv-x="1507" 
d="M-18 196q11 0 12.5 1.5t5.5 2.5q25 8 115 160q17 35 67 114h-3q-10 2 -19 2q-40 0 -76 -15q-2 -2 -11 -5q-12 -7 -24 -16q-4 -5 -9 -9t-5.5 -4.5t-2 -0.5t-4.5 -6q-15 -15 -16.5 -18.5t-7.5 -9.5q-8 -10 -8 -13q-4 -4 -7 -10q-42 -64 -44 -126q0 -46 37 -47zM242 141
q-22 0 -29 7q-6 0 -35 29q-11 12 -20.5 41t-9.5 57q0 51 10 93l-52 -86q-55 -92 -102 -116h-2v-1l-12 -2q-43 0 -65 31q-3 6 -5 8q-8 21 -8 46q11 89 57 150q2 4 30 40q71 71 161 71q12 0 22 -2q6 -2 12 -2t19 -5q3 0 6.5 -1.5t4 -1.5t1.5 -1q10 -3 10 -15q-49 -87 -57 -196
q0 -94 54 -114q4 -2 10 -2q47 0 110 100l95 154q2 8 12 8l46 -5q300 -35 547 -39q375 0 423 111q4 10 8 10q1 0 2.5 -0.5l4.5 -1.5t3 -9q0 -3 -4 -12q-49 -116 -432 -116q-232 0 -579 42l-18 3q-80 -152 -149 -233q-40 -37 -58 -39z" />
    <glyph glyph-name="uniE059" unicode="&#xe059;" horiz-adv-x="1788" 
d="M59 559q110 212 217 512q44 128 51 195q-70 -34 -128 -222q-29 -88 -109 -360zM-35 74l39 27q76 47 122 97q36 38 55 96q15 37 15 71l-2 7q0 11 -8 14v1h-3l-18 -16l-10 -10q-125 -125 -190 -287zM-84 -166q-19 0 -20 28q0 8 18 135q7 44 7 49q40 249 115 559
q53 202 133 451q62 200 162 236l5 1q23 0 24 -34q-1 -45 -54 -201q-82 -229 -170 -416q-52 -118 -105 -199q-15 -57 -53 -265q69 127 179 226q13 13 28 13t26 -11.5t13 -29.5l2 -14q-1 -28 -9 -54q-8 -20 -8 -23q-24 -70 -89 -132q137 92 259 198q36 33 67 70q5 6 10 7
q5 0 65 -7q400 -47 708 -51q417 0 520 103l2 3q13 10 26 38q3 13 10 13q1 0 2.5 -0.5t4 -2t4 -5t1.5 -6.5q0 -4 -4 -14l-1 -2q-65 -150 -560 -150q-335 4 -746 54l-27 3l-1 -2q-58 -67 -145 -136q-117 -94 -241 -174q-104 -70 -122 -71l-2 -13q-13 -79 -23 -155
q-2 -19 -11 -19z" />
    <glyph glyph-name="uniE060" unicode="&#xe060;" horiz-adv-x="1683" 
d="M25 64q-22 0 -40 9v1h-2v1q-58 29 -58 123q2 109 45 191q20 50 59 74q14 7 26 7q52 0 52 -55q0 -119 -18 -119q-7 0 -14.5 4.5t-7.5 11.5q8 51 8 85q0 30 -3.5 35.5t-14.5 5.5q-32 -1 -62 -66q-39 -77 -42 -172q0 -49 19 -79t53 -30q27 0 52 16q35 21 96 94
q87 106 162 221l5 6l37 -5q430 -49 739 -53q417 0 520 103l2 3q13 10 26 38q3 13 10 13q12 0 12 -14q0 -4 -4 -14l-1 -2q-65 -150 -560 -150q-324 3 -770 57q-110 -173 -208 -275q-56 -65 -118 -65z" />
    <glyph glyph-name="uniE061" unicode="&#xe061;" horiz-adv-x="1553" 
d="M251 522q29 55 63 130q91 199 164 413q46 132 50 184q-60 -32 -100 -133t-107 -334q-20 -73 -28 -97q-18 -73 -38 -145zM-12 206q9 0 10.5 1t5.5 1l32 23q31 29 89 102l70 98l12 49q-24 6 -45 6q-34 0 -76 -17q-1 -1 -7.5 -4t-22.5 -15q-37 -32 -51 -58q-29 -29 -49 -107
q-3 -9 -3 -17q-1 -2 -1 -16q1 -11 1 -13.5t1 -5t1 -5.5t7 -9q0 -4 9.5 -8.5t16.5 -4.5zM91 -268q-19 0 -20 28q41 297 105 589q-115 -162 -179 -176q-34 0 -54 18q-13 11 -15 21q-4 4 -4 10q-5 10 -5 32q0 27 4 36q18 70 54 119q2 5 4 7t3.5 4.5t3.5 4.5q14 17 17 21.5
t6 5.5q2 4 7 7q0 1 0.5 2t15.5 13q0 2 7 5q20 17 46 25q37 14 71 14q24 0 57 -6l1 6q43 179 140 492l42 119q53 130 135 158q1 1 3 1q11 0 20 -9q0 -1 2 -3q3 -8 3 -23q0 -46 -52 -201q-73 -214 -168 -420q-55 -121 -105 -201q-1 -3 -3 -5q442 -53 758 -57q417 0 520 103
l2 3q13 10 26 38q3 13 10 13q1 0 2.5 -0.5t4 -2t4 -5t1.5 -6.5q0 -4 -4 -14l-1 -2q-65 -150 -560 -150q-335 4 -720 51l-54 6q-77 -339 -119 -651q-3 -20 -12 -20z" />
    <glyph glyph-name="uniE062" unicode="&#xe062;" horiz-adv-x="1700" 
d="M-22 308q75 83 112 165q2 5 5.5 12t3.5 16l-3 2q-34 0 -61 -47q-40 -70 -57 -148zM31 82q-7 0 -13 1q-58 20 -68 72q-7 26 -7 84q5 128 69 235q35 59 78 59q36 0 40 -32q-2 -15 -8 -28.5t-6 -16.5q-34 -73 -87 -138q-43 -52 -58 -63q-2 -21 -2 -42q0 -37 13 -72
q18 -31 47 -34q41 0 116 70q87 81 159 178q36 48 46 65q8 10 16 10l60 -7q400 -47 708 -51q417 0 520 103l2 3q13 10 26 38q3 13 10 13q1 0 2.5 -0.5t4 -2t4 -5t1.5 -6.5q0 -4 -4 -14l-1 -2q-65 -150 -560 -150q-360 4 -774 58q-9 -18 -46 -69q-199 -256 -288 -256z" />
    <glyph glyph-name="uniE063" unicode="&#xe063;" horiz-adv-x="1318" 
d="M-168 -620q2 0 2.5 0.5l1 1t1.5 0.5q7 4 14 25q85 255 91 757q-106 -387 -136 -740q0 -22 6 -31q0 -7 16 -13h4zM80 611q40 73 59 112q65 128 65 231q-16 -18 -124 -343zM-173 -653q-27 3 -41 26q-4 4 -4 7q-9 17 -9 47q0 33 31 257q38 252 141 603l2 9l1 1
q53 184 125 395l88 253q11 32 37 45q7 3 16 3l21 -3l2 -45q0 -102 -71 -241l-60 -114q-21 -34 -71 -132q-2 -4 -8 -12q-26 -82 -41 -134l-6 -20q448 -54 766 -58q417 0 520 103l2 3q13 10 26 38q3 13 10 13q1 0 2.5 -0.5t4 -2t4 -5t1.5 -6.5q0 -4 -4 -14l-1 -2
q-65 -150 -560 -150q-342 4 -776 58l1 -8q-4 -310 -14 -411q-19 -218 -57 -370q-21 -81 -31 -102q-5 -12 -17 -22q-6 -4 -6.5 -4t-2 -0.5t-1.5 -1.5q-9 -3 -20 -3z" />
    <glyph glyph-name="uniE064" unicode="&#xe064;" horiz-adv-x="1789" 
d="M-131 -823q8 0 14 5q3 0 22 22q52 79 103 238q75 235 128 512q-110 -160 -182 -291q-125 -228 -125 -380q0 -36 15 -91h1v-2q12 -13 24 -13zM-14 194q11 0 11 3q19 6 46 43q50 70 89 142q40 69 56 91q-12 2 -27 2q-37 0 -73 -15q-3 -3 -9 -5q-18 -9 -41 -29q0 -2 -6 -8
q-56 -53 -82 -157q0 -6 -1 -9l1 -23q0 -16 15 -28q11 -7 21 -7zM-132 -852q-40 0 -54 46q-8 25 -13 89q0 203 225 554q59 90 121 178q45 253 58 424l-43 -70q-82 -145 -123 -183q-9 -10 -31 -21h-2v-1l-12 -2q-43 0 -65 31q-3 6 -5 8q-8 21 -8 46q1 15 14 66q17 47 49 92
l24 32l32 29q52 41 125 41q23 0 36 -3q2 -1 4.5 -1t3.5 -1q10 -2 15 -4h2q19 0 19 -31v-3q-14 -185 -49 -388l37 51q154 204 209 284q13 16 19 16q5 0 65 -7q400 -47 708 -51q417 0 520 103l2 3q13 10 26 38q3 13 10 13q1 0 2.5 -0.5t4 -2t4 -5t1.5 -6.5q0 -4 -4 -14l-1 -2
q-65 -150 -560 -150q-342 4 -776 58q-17 -34 -215 -300l-63 -87q-61 -333 -147 -594q-63 -195 -128 -261l-3 -1q-11 -11 -34 -13z" />
    <glyph glyph-name="uniE065" unicode="&#xe065;" horiz-adv-x="1844" 
d="M44 552q26 50 53 108q100 220 166 410q47 135 51 183q-75 -40 -127 -210q-89 -271 -143 -491zM-99 -167q-6 0 -11.5 7.5t-5.5 17.5q37 305 110 622q8 26 12 52q69 275 121 433q49 148 62 179q50 119 130 147q1 1 3 1q25 0 25 -35q0 -48 -54 -200q-74 -212 -169 -416
q-73 -155 -105 -197q-51 -233 -69 -347q36 78 88 163q2 5 3 5q35 62 84 75q6 2 13 2q51 0 51 -98q0 -18 -7 -86q-4 -26 -4 -47l1 -2q7 -28 22 -28q39 6 110 89q98 114 176 249q2 2 3.5 3t3.5 3t8 2l60 -7q400 -47 708 -51q417 0 520 103l2 3q13 10 26 38q3 13 10 13
q1 0 2.5 -0.5t4 -2t4 -5t1.5 -6.5q0 -4 -4 -14l-1 -2q-65 -150 -560 -150q-316 3 -771 57q-76 -132 -177 -252q-80 -96 -130 -96q-11 1 -20 7q-3 0 -6 4q-14 14 -19 44q-1 3 -1 10q0 11 5 44q5 53 5 80q0 69 -20 69q-34 0 -73 -60q-106 -170 -143 -328q-1 -3 -10 -73
q-3 -19 -14 -19z" />
    <glyph glyph-name="uniE066" unicode="&#xe066;" horiz-adv-x="1638" 
d="M35 464l-5 1l-6 1q-20 5 -21 6l8 37q28 -5 32 -8zM38 156q-22 0 -37.5 12.5t-20 31.5t-4.5 40q0 101 20 190q2 4 6 4q9 0 17 -4t8 -8q-18 -79 -20 -159l-1 -13q0 -46 7.5 -55t20.5 -9q18 0 37 11l32 23q110 82 188 208q5 5 12 5l60 -7q400 -47 708 -51q417 0 520 103l2 3
q13 10 26 38q3 13 10 13q1 0 2.5 -0.5t4 -2t4 -5t1.5 -6.5q0 -4 -4 -14l-1 -2q-65 -150 -560 -150q-333 4 -769 57q-71 -119 -196 -218q-42 -33 -73 -35z" />
    <glyph glyph-name="uniE067" unicode="&#xe067;" horiz-adv-x="1601" 
d="M-351 -837q8 0 27 19q81 121 158 410q46 170 82 356q-46 -67 -89 -135q-96 -149 -165 -311q-54 -129 -54 -233q0 -40 15 -90q5 -16 26 -16zM-356 -866q-65 10 -65 143q0 38 8 73q30 149 132 333q76 138 208 325q45 255 59 453q2 24 14 24q18 0 18 -34q-14 -180 -49 -384
q77 108 171 230q44 57 86 114q14 16 20 16q9 0 34 -2q429 -51 738 -55q417 0 520 103l2 3q13 10 26 38q3 13 10 13q1 0 2.5 -0.5t4 -2t4 -5t1.5 -6.5q0 -4 -4 -14l-1 -2q-65 -150 -560 -150q-335 4 -720 51l-53 5l-10 -14q-36 -49 -123 -163q-114 -152 -158 -216
q-78 -425 -180 -691q-57 -150 -112 -181q-12 -4 -23 -4z" />
    <glyph glyph-name="uniE068" unicode="&#xe068;" horiz-adv-x="1777" 
d="M-17 188q15 18 50 54q80 84 94 107q13 18 14 33q0 4 -0.5 4.5t-0.5 1t-1 1.5q-13 0 -33 -19q-4 -1 -15 -12q-61 -58 -108 -170zM-39 125l1 1q-1 0 -1 -1zM45 534q26 49 53 109q101 221 166 410q49 140 52 184q-75 -41 -128 -211q-52 -160 -66 -210l-7 -24
q-61 -222 -70 -258zM-97 -184q-7 0 -12.5 7t-5.5 19q15 122 34 241q0 6 2 12q35 209 81 400q56 224 140 498q30 90 48 134q51 120 130 147l5 1q9 0 18 -9q5 -13 6 -21q0 -51 -55 -205q-74 -211 -169 -416q-74 -157 -106 -198q-19 -84 -34 -158q38 71 89 116q24 21 28 21
q12 12 34 14q34 0 34 -37q0 -24 -21 -54q-27 -37 -93 -103q-60 -65 -78 -88q43 15 181 99q144 89 275 184q4 4 11 4l60 -7q400 -47 708 -51q417 0 520 103l2 3q13 10 26 38q3 13 10 13q1 0 2.5 -0.5t4 -2t4 -5t1.5 -6.5q0 -4 -4 -14l-1 -2q-65 -150 -560 -150
q-335 4 -720 51l-54 6q-24 -25 -136 -99q-291 -194 -347 -194l-4 1l-26 -168q-12 -83 -14.5 -103.5t-13.5 -20.5z" />
    <glyph glyph-name="uniE069" unicode="&#xe069;" horiz-adv-x="1358" 
d="M43 520q25 50 52 111q94 217 157 412q45 141 47 185q-59 -33 -97 -137q-51 -137 -159 -571zM-108 -300q-16 0 -17 32q0 62 65 447q28 149 37 186q35 203 162 643q36 123 80 189q35 50 84 69l5 1q24 0 24 -38q0 -51 -50 -198q-67 -204 -161 -419q-69 -159 -100 -200l60 -7
q400 -47 708 -51q417 0 520 103l2 3q13 10 26 38q3 13 10 13q1 0 2.5 -0.5t4 -2t4 -5t1.5 -6.5q0 -4 -4 -14l-1 -2q-65 -150 -560 -150q-335 4 -720 51l-59 7l-44 -222q-47 -283 -64 -447q-3 -20 -15 -20z" />
    <glyph glyph-name="uniE070" unicode="&#xe070;" horiz-adv-x="1887" 
d="M-55 103q-9 0 -17 7.5t-8 20.5l2 15q20 112 27 140q28 119 71 231q5 12 12 12q18 0 18 -20q0 -6 -2 -10q-61 -157 -89 -322q52 129 113 227l1 2q5 6 19 29q17 27 39 27q40 0 40 -40l-29 -186q0 -13 3 -19l2 -1q6 9 20 38q77 151 110 199q1 1 1 1.5t0.5 2t9 6t15.5 4.5
q20 0 31 -33q6 -48 6 -68l-1 -42q0 -39 7 -75q4 -7 4 -12q8 -16 24 -16q18 8 38 30q14 14 60 72q38 46 73 94q8 10 14 10l33 -3q430 -51 738 -55q417 0 520 103l2 3q13 10 26 38q3 13 10 13q1 0 2.5 -0.5t4 -2t4 -5t1.5 -6.5q0 -4 -4 -14l-1 -2q-65 -150 -560 -150
q-335 4 -720 51l-54 6q-13 -26 -75 -101q-61 -77 -79.5 -91.5t-38.5 -14.5q-25 0 -39 28q-3 5 -4 8l-1.5 4.5t-0.5 3.5t-1 4q-9 31 -9 73l1 44l-1 39q-1 7 -1 8.5t-1 2.5q0 6 -2 14q-1 3 -1.5 6.5t-5.5 9.5v-1h-1q-28 -34 -79 -136.5t-52 -102.5q-2 -7 -8 -10v-1l-8 -3
q-12 0 -20 4q-20 18 -20 37q0 18 24 166l4 28q0 6 -0.5 6.5t-0.5 1t-0.5 2t-6.5 2.5q-7 0 -14 -8v-1h-1q-99 -162 -146 -296q-7 -26 -28 -26z" />
    <glyph glyph-name="uniE071" unicode="&#xe071;" horiz-adv-x="1779" 
d="M-49 113q-4 0 -11 1.5t-11.5 4t-4.5 3.5q36 187 82 371q2 2 6 2q25 -3 25 -11q-33 -132 -61 -265l99 166q32 58 81 58q47 0 51 -79q0 -79 9.5 -108.5t31.5 -29.5q42 0 143 152q1 3 35 49l4 3q5 2 9 2q454 -53 768 -58q485 0 548 144q3 13 10 13q1 0 2.5 -0.5t4 -2t4 -5
t1.5 -6.5q0 -4 -4 -14l-1 -2q-65 -150 -560 -150q-316 3 -771 57q-12 -19 -64 -93q-73 -110 -129 -116q-43 0 -59 49q-9 30 -9 60q0 86 -14 102q-6 4 -15 4q-25 -4 -37 -24q-6 -8 -44 -73q-85 -148 -111 -189l-3 -13q0 -2 -5 -2z" />
    <glyph glyph-name="uniE072" unicode="&#xe072;" horiz-adv-x="1699" 
d="M137 325q4 23 4 42q0 71 -30 110q-24 27 -57 27q-16 -1 -29 -12.5t-13 -32.5q0 -28 21 -55q42 -52 104 -79zM46 199q17 0 32 11q38 31 54 91q-83 38 -122 92q-18 -44 -18 -89q0 -72 31 -97q10 -8 23 -8zM46 169q-24 0 -46 17q-25 24 -32 58q-2 7 -2.5 9.5t-0.5 5.5
q-4 8 -4 48q0 63 30 122q-5 14 -5 27q0 38 27 59q20 14 44 16q48 -2 78 -41q34 -47 34 -122q0 -25 -4 -50l15 -1q65 0 133 73q28 32 32 32l1 1q1 0 1 1h4l33 -2q429 -51 738 -55q417 0 520 103l2 3q13 10 26 38q3 13 10 13q1 0 2.5 -0.5t4 -2t4 -5t1.5 -6.5q0 -4 -4 -14
l-1 -2q-65 -150 -560 -150q-349 4 -775 58q-10 -18 -55 -58q-54 -50 -119 -50l-18 1q-34 -121 -114 -126z" />
    <glyph glyph-name="uniE073" unicode="&#xe073;" horiz-adv-x="1237" 
d="M-33 186q71 36 146 112q2 0 18 18q56 56 68 111v4q2 6 2 28q-6 38 -35 38l-12 -1v-1q-27 -6 -75 -64l-2 -3q-11 -11 -15 -18t-14 -19l-1 -2q-7 -10 -14 -23q-6 -6 -15 -26q-3 -3 -3 -4.5t-1.5 -3t-1.5 -4.5l-11 -21q-19 -53 -21 -55zM-210 -697q-7 0 -14 4.5t-7 11.5
l153 797q-37 4 -38 5q-13 0 -13 18q0 14 9.5 15.5t51.5 15.5l66 347q3 8 10 8q21 0 21 -16l-24 -126q14 23 53 75l19 21q6 4 10 10q41 41 81 41q24 0 43 -16l2 -2q14 -17 17 -34l2 -6v-5l1 -2q0 -88 -70 -163q-81 -84 -145 -124q-33 -19 -58 -31l-2 -12q399 -46 702 -50
q417 0 520 103l2 3q13 10 26 38q3 13 10 13q1 0 2.5 -0.5t4 -2t4 -5t1.5 -6.5q0 -4 -4 -14l-1 -2q-65 -150 -560 -150q-328 4 -712 50l-153 -801q-2 -8 -10 -8z" />
    <glyph glyph-name="uniE074" unicode="&#xe074;" horiz-adv-x="1726" 
d="M-27 184l16 3q41 32 118 162l3 6l64 106q-16 3 -25 3q-45 0 -88 -21q-33 -17 -75 -77q-49 -72 -49 -140q0 -22 16 -35q10 -7 20 -7zM17 -701q20 33 57 153q52 174 73 348q0 5 1 9q4 60 4 78q0 53 -6 89q-4 21 -29 70q-58 -260 -90 -533q-10 -89 -12 -116t-5 -56l-1 -18
q2 -19 5 -23v-1h3zM17 -729q-19 0 -28 16l-2 6q-4 8 -6 39q43 562 197 1073l-45 -75q-94 -164 -143 -176l-3 -2h-13q-34 0 -59 33q-1 1 -1 2.5t-2 3.5q-8 21 -8 46q3 51 34 112l7 12q12 23 30 44q63 92 172 92q26 0 58 -8l9 -3q14 -6 14 -22q0 -7 -3 -15q-37 -120 -78 -279
q54 56 223 249q10 11 17 11l63 -7q400 -47 708 -51q417 0 520 103l2 3q13 10 26 38q3 13 10 13q1 0 2.5 -0.5t4 -2t4 -5t1.5 -6.5q0 -4 -4 -14l-1 -2q-65 -150 -560 -150q-335 4 -777 58q-32 -51 -215 -247q-41 -37 -41 -63l-1 -4q2 -21 19 -53q30 -55 30 -146
q0 -70 -13 -156q-22 -151 -67 -302q-33 -100 -54 -147q-7 -16 -27 -18z" />
    <glyph glyph-name="uniE075" unicode="&#xe075;" horiz-adv-x="1803" 
d="M11 445q54 70 84 133q12 25 12 43q0 12 -1 13.5t-1 4.5q-2 2 -5 2q-6 0 -14 -4l-2 -3q-8 -7 -10 -12q-61 -75 -63 -177zM142 -47q-18 0 -31 10q-24 18 -24 49q0 51 70 241q61 173 61 206q-62 -34 -85.5 -51.5t-73.5 -35.5q-13 -4 -25 -4q-48 0 -57 42l-3 34q0 113 83 212
q19 19 40 19q9 0 15 -3q8 0 16 -11q13 -14 13 -40q-1 -24 -9 -39l-1 -2q-3 -9 -6 -12q-5 -15 -37.5 -64t-71.5 -94q5 -6 17 -6q11 1 21 4l2 1q23 8 62 33q28 19 86 50q15 5 19 5q17 0 21 -11q6 -3 9 -25q0 -43 -39 -149q-12 -36 -26 -74q-64 -172 -69 -229q0 -15 10 -20
l2 -1q4 -3 5 -3.5t5 -0.5q17 0 34 23q157 200 265 406q7 14 18 14l60 -7q400 -47 708 -51q417 0 520 103l2 3q13 10 26 38q3 13 10 13q1 0 2.5 -0.5t4 -2t4 -5t1.5 -6.5q0 -4 -4 -14l-1 -2q-65 -150 -560 -150q-335 4 -720 51l-53 6q0 -3 -2 -6q-94 -193 -258 -411
q-26 -33 -56 -33z" />
    <glyph glyph-name="uniE076" unicode="&#xe076;" horiz-adv-x="1745" 
d="M-15 -176q12 0 25 8l4 2h1v1q23 15 45 42q54 69 54 147v20q-3 -3 -6 -7t-58 -64q-34 -38 -54 -71q-1 -3 -3.5 -6.5t-2.5 -5t-0.5 -2.5t-1.5 -1q-6 -12 -7.5 -20t-3.5 -10l-4 -14q0 -19 12 -19zM-17 -209q-10 0 -27 11l-1 2q-14 16 -14 38q0 14 1.5 17.5t2 5t0.5 2.5l8 22
l6 12q22 50 107 138l21 24l20 25q-9 41 -61 120q-52 71 -66 129q-2 2 -2 11q-1 2 -1 8l-1 1l-1 16q0 47 17 76q4 7 7 13t7 12l2 4l2 1q1 0 2 2.5t5 6.5t4 5.5t0.5 3t6.5 3.5q37 40 96 40q11 0 15 -2q8 0 24 -8q47 -29 47 -76q0 -16 -12 -16q-13 0 -21 21q-15 49 -57 49
q-37 0 -74 -36q-4 -4 -4 -5q-8 -7 -11 -16l-5 -6q0 -4 -1.5 -6t-10.5 -24q0 -7 -2 -7l-4 -34q0 -20 4 -32l1 -4q0 -23 60 -111q45 -67 60 -109l17 20v1l12 13q12 15 43 49q106 115 190 221q7 7 11 7l64 -7q400 -47 708 -51q417 0 520 103l2 3q13 10 26 38q3 13 10 13
q1 0 2.5 -0.5t4 -2t4 -5t1.5 -6.5q0 -4 -4 -14l-1 -2q-65 -150 -560 -150q-355 4 -767 57q-96 -119 -195 -236q-37 -37 -78 -89q4 -22 4 -46q0 -102 -66 -182q-51 -61 -98 -61z" />
    <glyph glyph-name="uniE077" unicode="&#xe077;" horiz-adv-x="1051" 
d="M-110 -165q-21 0 -21 20q89 501 192 907q-140 11 -353 37q-11 2 -11 9q0 5 4.5 9.5t11.5 4.5q225 -26 354 -37q4 19 19 74q105 383 118 383q19 -2 19 -19l-49 -171q-1 0 -27 -96q-31 -112 -35.5 -132t-10.5 -41q200 -17 380 -19q417 0 520 103l2 3q13 10 26 38
q3 13 10 13q1 0 2.5 -0.5t4 -2t4 -5t1.5 -6.5q0 -4 -4 -14l-1 -2q-65 -150 -560 -150q-173 2 -391 18q-75 -297 -114 -492q-20 -83 -80 -422q-2 -10 -11 -10z" />
    <glyph glyph-name="uniE078" unicode="&#xe078;" horiz-adv-x="1758" 
d="M162 94q-52 0 -53 73q0 50 18 135l-4 -6q-56 -73 -82 -84v-1h-1q-12 -6 -29 -6q-7 0 -12.5 2t-7.5 3t-3.5 1t-3.5 1q-23 16 -26 38q-3 13 -3 34l2 14q3 47 16 77q1 2 1 3.5t0.5 4t2.5 4.5q5 14 6 14q13 30 17 30q3 0 13.5 -5.5t10.5 -11.5q-26 -56 -26 -67q0 -2 -1 -3
q-9 -39 -9 -65q0 -31 13 -39l11 -3q9 0 16 5q5 0 5 3q17 0 106 134q12 21 18 30q3 13 9 13q9 0 18 -8q6 -4 6 -9q-43 -115 -51 -241q0 -39 20 -41q47 0 147 153q95 150 100 155t12 5l60 -7q400 -47 708 -51q417 0 520 103l2 3q13 10 26 38q3 13 10 13q1 0 2.5 -0.5t4 -2
t4 -5t1.5 -6.5q0 -4 -4 -14l-1 -2q-65 -150 -560 -150q-335 4 -720 51l-53 6q-14 -28 -35 -63q-77 -124 -110 -166q-59 -79 -101 -87q-2 -2 -10 -2z" />
    <glyph glyph-name="uniE079" unicode="&#xe079;" horiz-adv-x="1571" 
d="M224 377q33 59 36 99q0 26 -12 39q-7 8 -18 8q-27 0 -40 -41q-2 -7 -2 -21q0 -10 3 -23q11 -37 33 -61zM-36 9q-10 2 -13 6l-4 4l-1 1q-13 18 -13 51q14 243 83 456q5 11 12 11q18 -2 18 -20l-1 -7q-64 -195 -81 -412v-13l-1 -1q0 -34 4 -42q24 18 78 82q105 123 168 232
q-50 46 -50 104q0 62 45 83q10 5 26 5q49 -10 52 -66q0 -42 -35 -114q413 -53 755 -57q417 0 520 103l2 3q13 10 26 38q3 13 10 13q1 0 2.5 -0.5t4 -2t4 -5t1.5 -6.5q0 -4 -4 -14l-1 -2q-65 -150 -560 -150q-335 4 -720 51l-52 6q-62 -110 -176 -244q-71 -84 -92 -91
q-2 -2 -7 -2z" />
    <glyph glyph-name="uniE080" unicode="&#xe080;" horiz-adv-x="1703" 
d="M334 388v4q0 60 -32 60q-13 0 -14 -12q0 -16 16 -29q6 -6 30 -23zM33 73q-19 0 -30 7q-22 13 -30 35q-1 0 -3 5.5t-5 11.5q-9 36 -9 69q0 162 54 300q2 3 5 3q9 0 19 -7q6 -4 6 -9q-48 -123 -51 -268q0 -114 40 -114q15 1 34 29q55 65 97 159q2 3 5 3q8 0 13 -4
q12 -6 13 -10q0 -9 23 -101q8 -42 27 -42q8 0 26 29q57 93 66 190l-14 8q-58 30 -58 73q0 11 6 21.5t16.5 14.5t19.5 4q18 -1 34 -13q2 -4 4 -4q2 -4 4 -4q16 -24 16 -54q1 -9 1 -30q448 -54 766 -58q417 0 520 103l2 3q13 10 26 38q3 13 10 13q1 0 2.5 -0.5t4 -2t4 -5
t1.5 -6.5q0 -4 -4 -14l-1 -2q-65 -150 -560 -150q-335 4 -720 51l-53 6q-10 -96 -52 -173q-27 -45 -40 -58q-9 -8 -25 -11q-25 0 -40 19t-19 44l-15 64q-39 -73 -98 -143q-18 -17 -38 -20z" />
    <glyph glyph-name="uniE081" unicode="&#xe081;" horiz-adv-x="1618" 
d="M249 38q-70 20 -117 82q-42 60 -75 126q-45 -69 -60 -99q-43 -78 -46 -78q-4 0 -12 5q-12 8 -12 12q58 116 113 195q-47 102 -73 219q0 3 6.5 6t20.5 3q5 -1 6 -4q23 -109 61 -195l2 2q26 41 79 93q2 0 35 34q29 29 32 29q25 20 64 20q17 0 51 -5q414 -49 722 -53
q417 0 520 103l2 3q13 10 26 38q3 13 10 13q4 0 8 -2.5t4 -11.5q0 -4 -4 -14l-1 -2q-65 -150 -560 -150q-336 3 -739 54l-33 3q-28 0 -57 -28q-1 -1 -2.5 -1t-1.5 -3q-13 -13 -20 -18q-55 -55 -67 -69q-24 -30 -26 -30l-28 -38q51 -100 80 -140q41 -55 102 -71q3 -1 3 -6
q0 -4 -2 -9.5t-5 -9t-6 -3.5z" />
    </font>
</defs>
</svg>
